<svg width="188" height="31" viewBox="0 0 188 31" fill="none" xmlns="http://www.w3.org/2000/svg">
<path d="M10.2411 26.5791C8.22942 26.5791 6.53274 26.2642 5.15101 25.6342C3.76928 24.984 2.72282 24.1103 2.01164 23.013C1.30045 21.8954 0.94486 20.6153 0.94486 19.1726H5.79108C5.79108 19.7416 5.94347 20.2699 6.24827 20.7576C6.57338 21.2452 7.06105 21.6415 7.71127 21.9462C8.3615 22.2307 9.20476 22.373 10.2411 22.373C11.1758 22.373 11.9581 22.251 12.588 22.0072C13.2179 21.7634 13.6954 21.4281 14.0205 21.0014C14.3456 20.5544 14.5082 20.0464 14.5082 19.4774C14.5082 18.7662 14.2034 18.2074 13.5938 17.8011C12.9842 17.3743 11.9987 17.1 10.6373 16.9781L8.96093 16.8257C6.74609 16.6428 4.97829 15.952 3.65752 14.7531C2.33675 13.5543 1.67636 11.9693 1.67636 9.99834C1.67636 8.57598 2.01164 7.34664 2.68218 6.31034C3.37305 5.27405 4.32807 4.48158 5.54724 3.93296C6.76641 3.36401 8.2091 3.07953 9.87531 3.07953C11.6228 3.07953 13.1163 3.38433 14.3558 3.99391C15.6156 4.58318 16.5808 5.42644 17.2513 6.5237C17.9219 7.60064 18.2571 8.87061 18.2571 10.3336H13.3804C13.3804 9.78499 13.2484 9.28716 12.9842 8.84013C12.72 8.37278 12.3238 7.99687 11.7955 7.71239C11.2875 7.42792 10.6475 7.28568 9.87531 7.28568C9.1438 7.28568 8.52406 7.4076 8.01607 7.65143C7.5284 7.89527 7.16265 8.23054 6.91881 8.65725C6.67498 9.06365 6.55306 9.51068 6.55306 9.99834C6.55306 10.6283 6.77657 11.1769 7.2236 11.6442C7.67063 12.1116 8.40214 12.3859 9.41812 12.4672L11.125 12.6196C12.7505 12.7618 14.1831 13.1174 15.4225 13.6863C16.662 14.235 17.6272 14.997 18.3181 15.9723C19.0293 16.9273 19.3849 18.0957 19.3849 19.4774C19.3849 20.8998 19.009 22.1494 18.2571 23.2264C17.5256 24.283 16.4792 25.1059 15.1178 25.6952C13.7563 26.2845 12.1308 26.5791 10.2411 26.5791ZM37.215 26V3.75008H42.2137V26H37.215ZM22.8288 26V3.75008H27.8274V26H22.8288ZM26.9435 17.0086V12.6196H38.0989V17.0086H26.9435ZM45.1032 26L52.4488 3.75008H60.5258L68.1456 26H62.9641L56.8073 7.19424L58.3922 7.83431H54.4604L56.1063 7.19424L50.1018 26H45.1032ZM50.681 20.4832L52.2049 16.338H60.922L62.4765 20.4832H50.681ZM75.4371 19.6298V15.3018H79.4299C80.202 15.3018 80.8624 15.1494 81.411 14.8446C81.98 14.5398 82.4169 14.1131 82.7216 13.5644C83.0264 12.9955 83.1788 12.3453 83.1788 11.6137C83.1788 10.8416 83.0264 10.1812 82.7216 9.63259C82.4169 9.06365 81.98 8.63693 81.411 8.35246C80.8624 8.04767 80.202 7.89527 79.4299 7.89527H75.4371V3.5672H79.186C81.0758 3.5672 82.6912 3.88216 84.0323 4.51206C85.3937 5.14197 86.43 6.03603 87.1412 7.19424C87.8727 8.35246 88.2384 9.74435 88.2384 11.3699V11.8576C88.2384 13.4425 87.8727 14.8242 87.1412 16.0028C86.43 17.161 85.3937 18.0551 84.0323 18.685C82.6912 19.3149 81.0758 19.6298 79.186 19.6298H75.4371ZM71.0481 26V3.5672H76.0467V26H71.0481ZM91.3775 26V3.75008H96.2542V26H91.3775ZM95.6446 26V21.8548H105.368V26H95.6446ZM95.6446 16.7648V12.6196H104.667V16.7648H95.6446ZM95.6446 7.89527V3.75008H105.154V7.89527H95.6446Z" fill="black"/>
<mask id="path-2-outside-1_265_1679" maskUnits="userSpaceOnUse" x="107.632" y="3" width="80" height="24" fill="black">
<rect fill="white" x="107.632" y="3" width="80" height="24"/>
<path d="M113.905 26.2743C113.336 26.2743 112.726 26.2134 112.076 26.0914C111.446 25.9695 110.846 25.807 110.277 25.6038C109.729 25.3803 109.292 25.1263 108.967 24.8418C108.865 24.7402 108.794 24.6386 108.754 24.537C108.733 24.4354 108.743 24.283 108.784 24.0798L109.637 19.2945C109.698 18.9288 109.861 18.7459 110.125 18.7459C110.369 18.7459 110.491 18.9491 110.491 19.3555L110.521 20.5442C110.562 22.251 110.857 23.4804 111.405 24.2322C111.954 24.984 112.848 25.3599 114.087 25.3599C115.225 25.3599 116.17 24.9535 116.922 24.1408C117.674 23.3077 118.05 22.2002 118.05 20.8185C118.05 19.9245 117.806 18.9898 117.318 18.0144C116.831 17.0391 116.15 16.0637 115.276 15.0884C114.24 13.9302 113.468 12.8736 112.96 11.9185C112.472 10.9635 112.228 9.95771 112.228 8.90109C112.228 8.06799 112.431 7.26536 112.838 6.49322C113.244 5.70076 113.854 5.05053 114.667 4.54254C115.5 4.01423 116.556 3.75008 117.836 3.75008C119.604 3.75008 120.955 4.14631 121.89 4.93877C122.175 5.16229 122.276 5.49756 122.195 5.94459L121.341 10.3946C121.281 10.6994 121.138 10.8518 120.915 10.8518C120.691 10.8518 120.559 10.6791 120.519 10.3336L120.488 9.69355C120.407 8.04767 120.173 6.79801 119.787 5.94459C119.421 5.07085 118.68 4.63398 117.562 4.63398C116.749 4.63398 116.099 4.81686 115.611 5.18261C115.124 5.54836 114.768 6.00555 114.545 6.55418C114.321 7.08249 114.209 7.6108 114.209 8.13911C114.209 8.72837 114.291 9.29732 114.453 9.84595C114.616 10.3743 114.89 10.9432 115.276 11.5528C115.682 12.1421 116.231 12.8634 116.922 13.7168C117.897 14.875 118.659 15.9825 119.208 17.0391C119.757 18.0957 120.031 19.1218 120.031 20.1175C120.031 21.3163 119.757 22.3831 119.208 23.3178C118.68 24.2322 117.958 24.9535 117.044 25.4819C116.13 26.0102 115.083 26.2743 113.905 26.2743ZM122.529 26C122.245 26 122.103 25.8984 122.103 25.6952C122.103 25.4717 122.306 25.3295 122.712 25.2685L123.322 25.1771C123.769 25.1161 124.074 25.0145 124.236 24.8723C124.419 24.7097 124.551 24.4151 124.632 23.9884L128.777 6.06651C128.879 5.6398 128.879 5.35533 128.777 5.21309C128.676 5.07085 128.422 4.95909 128.016 4.87782L127.406 4.7559C127.142 4.69494 127.01 4.58318 127.01 4.42063C127.01 4.17679 127.193 4.05487 127.558 4.05487H133.045C133.329 4.05487 133.471 4.16663 133.471 4.39015C133.471 4.61366 133.288 4.74574 132.923 4.78638L132.191 4.87782C131.744 4.93877 131.439 5.05053 131.277 5.21309C131.114 5.37564 130.982 5.67028 130.881 6.09699L129.113 13.7473C129.052 14.0318 129.164 14.174 129.448 14.174H135.483C135.767 14.174 135.94 14.0318 136.001 13.7473L137.769 6.09699C137.87 5.67028 137.87 5.37564 137.769 5.21309C137.667 5.05053 137.413 4.93877 137.007 4.87782L136.336 4.78638C136.052 4.76606 135.91 4.64414 135.91 4.42063C135.91 4.17679 136.103 4.05487 136.489 4.05487H141.975C142.26 4.05487 142.402 4.15647 142.402 4.35967C142.402 4.58318 142.199 4.72542 141.792 4.78638L141.183 4.87782C140.736 4.93877 140.431 5.05053 140.268 5.21309C140.106 5.35533 139.974 5.6398 139.872 6.06651L135.727 23.9884C135.645 24.4151 135.645 24.6995 135.727 24.8418C135.828 24.984 136.082 25.0958 136.489 25.1771L137.098 25.299C137.362 25.3599 137.495 25.4717 137.495 25.6342C137.495 25.8781 137.312 26 136.946 26H131.46C131.175 26 131.033 25.8882 131.033 25.6647C131.033 25.4412 131.216 25.3091 131.582 25.2685L132.313 25.1771C132.76 25.1161 133.065 25.0043 133.227 24.8418C133.41 24.6792 133.542 24.3846 133.624 23.9579L135.574 15.5151C135.635 15.2306 135.534 15.0884 135.27 15.0884H129.235C128.93 15.0884 128.747 15.2306 128.686 15.5151L126.735 23.9579C126.654 24.3846 126.654 24.6792 126.735 24.8418C126.837 25.0043 127.091 25.1161 127.497 25.1771L128.168 25.2685C128.452 25.2888 128.595 25.4107 128.595 25.6342C128.595 25.8781 128.402 26 128.016 26H122.529ZM142.879 26C142.594 26 142.452 25.8984 142.452 25.6952C142.452 25.4717 142.604 25.3396 142.909 25.299L144.342 25.0856C144.748 25.0247 145.053 24.9231 145.256 24.7808C145.459 24.6183 145.602 24.3236 145.683 23.8969L147.329 16.7038C147.39 16.46 147.41 16.2365 147.39 16.0333C147.39 15.8301 147.359 15.6167 147.298 15.3932L144.982 6.00555C144.901 5.66012 144.789 5.39596 144.647 5.21309C144.525 5.03021 144.301 4.89813 143.976 4.81686L143.732 4.7559C143.488 4.69494 143.366 4.57302 143.366 4.39015C143.366 4.16663 143.549 4.05487 143.915 4.05487H148.944C149.208 4.05487 149.34 4.15647 149.34 4.35967C149.34 4.6035 149.137 4.73558 148.731 4.7559L148.121 4.81686C147.776 4.83718 147.512 4.94893 147.329 5.15213C147.146 5.35533 147.105 5.67028 147.207 6.09699L149.127 14.174C149.168 14.3163 149.239 14.3975 149.34 14.4178C149.462 14.4178 149.574 14.3467 149.676 14.2045L155.07 6.73706C155.457 6.20875 155.619 5.78204 155.558 5.45692C155.517 5.11149 155.263 4.90829 154.796 4.84734L154.156 4.7559C153.872 4.71526 153.729 4.59334 153.729 4.39015C153.729 4.16663 153.892 4.05487 154.217 4.05487H158.606C158.891 4.05487 159.033 4.14631 159.033 4.32919C159.033 4.5527 158.86 4.69494 158.515 4.7559L158.179 4.81686C157.895 4.8575 157.61 5.03021 157.326 5.33501C157.041 5.61948 156.655 6.09699 156.168 6.76753L150.316 14.7836C150.112 15.0681 149.94 15.3424 149.798 15.6065C149.676 15.8504 149.574 16.1349 149.493 16.46L147.786 23.8969C147.705 24.3236 147.715 24.6081 147.816 24.7503C147.938 24.8926 148.192 25.0043 148.578 25.0856L149.767 25.299C150.072 25.3599 150.224 25.4717 150.224 25.6342C150.224 25.8781 150.041 26 149.676 26H142.879ZM155.386 26C155.102 26 154.959 25.8984 154.959 25.6952C154.959 25.4717 155.163 25.3295 155.569 25.2685L156.179 25.1771C156.626 25.1161 156.93 25.0145 157.093 24.8723C157.276 24.7097 157.408 24.4151 157.489 23.9884L161.634 6.06651C161.736 5.6398 161.736 5.35533 161.634 5.21309C161.533 5.07085 161.279 4.95909 160.872 4.87782L160.263 4.7559C159.999 4.69494 159.867 4.58318 159.867 4.42063C159.867 4.17679 160.05 4.05487 160.415 4.05487H170.23C170.738 4.05487 170.941 4.28855 170.839 4.7559L169.925 9.81547C169.864 10.1609 169.701 10.3336 169.437 10.3336C169.153 10.3336 169.031 10.2015 169.071 9.93739L169.132 8.87061C169.234 7.46856 169.01 6.44242 168.462 5.7922C167.913 5.14197 167.212 4.81686 166.359 4.81686C165.485 4.81686 164.845 4.95909 164.439 5.24357C164.032 5.52804 163.758 5.96491 163.616 6.55418L161.97 13.7473C161.909 14.0318 162.021 14.174 162.305 14.174H163.433C164.306 14.174 164.957 13.6965 165.383 12.7415L166.084 11.248C166.145 11.1261 166.206 11.0346 166.267 10.9737C166.328 10.8924 166.42 10.8518 166.542 10.8518C166.643 10.8518 166.735 10.9026 166.816 11.0042C166.897 11.0854 166.918 11.2074 166.877 11.3699L165.292 18.1668C165.19 18.5122 165.028 18.685 164.804 18.685C164.56 18.685 164.439 18.5529 164.439 18.2887V16.8257C164.439 16.1145 164.347 15.6472 164.164 15.4237C163.981 15.2002 163.656 15.0884 163.189 15.0884H162.092C161.787 15.0884 161.604 15.2306 161.543 15.5151L159.592 23.836C159.491 24.2627 159.491 24.5675 159.592 24.7503C159.694 24.9129 159.948 25.0247 160.354 25.0856L161.97 25.299C162.214 25.3193 162.335 25.4311 162.335 25.6342C162.335 25.8781 162.163 26 161.817 26H155.386ZM172.398 26C172.113 26 171.971 25.8984 171.971 25.6952C171.971 25.492 172.134 25.3599 172.459 25.299L173.739 25.0856C174.145 25.0247 174.45 24.9231 174.653 24.7808C174.856 24.6183 174.999 24.3236 175.08 23.8969L179.317 5.60932C179.377 5.32485 179.347 5.12165 179.225 4.99973C179.123 4.87782 178.88 4.81686 178.494 4.81686C177.803 4.81686 177.041 5.10133 176.208 5.67028C175.395 6.21891 174.663 7.2552 174.013 8.77917L173.525 9.93739C173.424 10.2015 173.251 10.3336 173.007 10.3336C172.723 10.3336 172.631 10.1609 172.733 9.81547L174.257 4.29871C174.379 3.83136 174.602 3.59768 174.927 3.59768C175.11 3.59768 175.253 3.63832 175.354 3.7196C175.476 3.78056 175.669 3.85168 175.933 3.93296C176.197 4.01423 176.655 4.05487 177.305 4.05487H184.102C184.752 4.05487 185.23 4.01423 185.534 3.93296C185.859 3.85168 186.093 3.78056 186.235 3.7196C186.398 3.63832 186.54 3.59768 186.662 3.59768C187.007 3.59768 187.129 3.83136 187.028 4.29871L186.052 9.81547C185.991 10.1609 185.819 10.3336 185.534 10.3336C185.27 10.3336 185.158 10.2015 185.199 9.93739L185.26 9.1754C185.382 7.67175 185.189 6.5745 184.681 5.88363C184.173 5.17245 183.462 4.81686 182.547 4.81686C182.161 4.81686 181.887 4.87782 181.724 4.99973C181.582 5.12165 181.481 5.32485 181.42 5.60932L177.183 23.8969C177.081 24.3236 177.092 24.6183 177.213 24.7808C177.356 24.9231 177.62 25.0247 178.006 25.0856L179.438 25.299C179.662 25.3193 179.774 25.4311 179.774 25.6342C179.774 25.8781 179.611 26 179.286 26H172.398Z"/>
</mask>
<path d="M113.905 26.2743C113.336 26.2743 112.726 26.2134 112.076 26.0914C111.446 25.9695 110.846 25.807 110.277 25.6038C109.729 25.3803 109.292 25.1263 108.967 24.8418C108.865 24.7402 108.794 24.6386 108.754 24.537C108.733 24.4354 108.743 24.283 108.784 24.0798L109.637 19.2945C109.698 18.9288 109.861 18.7459 110.125 18.7459C110.369 18.7459 110.491 18.9491 110.491 19.3555L110.521 20.5442C110.562 22.251 110.857 23.4804 111.405 24.2322C111.954 24.984 112.848 25.3599 114.087 25.3599C115.225 25.3599 116.17 24.9535 116.922 24.1408C117.674 23.3077 118.05 22.2002 118.05 20.8185C118.05 19.9245 117.806 18.9898 117.318 18.0144C116.831 17.0391 116.15 16.0637 115.276 15.0884C114.24 13.9302 113.468 12.8736 112.96 11.9185C112.472 10.9635 112.228 9.95771 112.228 8.90109C112.228 8.06799 112.431 7.26536 112.838 6.49322C113.244 5.70076 113.854 5.05053 114.667 4.54254C115.5 4.01423 116.556 3.75008 117.836 3.75008C119.604 3.75008 120.955 4.14631 121.89 4.93877C122.175 5.16229 122.276 5.49756 122.195 5.94459L121.341 10.3946C121.281 10.6994 121.138 10.8518 120.915 10.8518C120.691 10.8518 120.559 10.6791 120.519 10.3336L120.488 9.69355C120.407 8.04767 120.173 6.79801 119.787 5.94459C119.421 5.07085 118.68 4.63398 117.562 4.63398C116.749 4.63398 116.099 4.81686 115.611 5.18261C115.124 5.54836 114.768 6.00555 114.545 6.55418C114.321 7.08249 114.209 7.6108 114.209 8.13911C114.209 8.72837 114.291 9.29732 114.453 9.84595C114.616 10.3743 114.89 10.9432 115.276 11.5528C115.682 12.1421 116.231 12.8634 116.922 13.7168C117.897 14.875 118.659 15.9825 119.208 17.0391C119.757 18.0957 120.031 19.1218 120.031 20.1175C120.031 21.3163 119.757 22.3831 119.208 23.3178C118.68 24.2322 117.958 24.9535 117.044 25.4819C116.13 26.0102 115.083 26.2743 113.905 26.2743ZM122.529 26C122.245 26 122.103 25.8984 122.103 25.6952C122.103 25.4717 122.306 25.3295 122.712 25.2685L123.322 25.1771C123.769 25.1161 124.074 25.0145 124.236 24.8723C124.419 24.7097 124.551 24.4151 124.632 23.9884L128.777 6.06651C128.879 5.6398 128.879 5.35533 128.777 5.21309C128.676 5.07085 128.422 4.95909 128.016 4.87782L127.406 4.7559C127.142 4.69494 127.01 4.58318 127.01 4.42063C127.01 4.17679 127.193 4.05487 127.558 4.05487H133.045C133.329 4.05487 133.471 4.16663 133.471 4.39015C133.471 4.61366 133.288 4.74574 132.923 4.78638L132.191 4.87782C131.744 4.93877 131.439 5.05053 131.277 5.21309C131.114 5.37564 130.982 5.67028 130.881 6.09699L129.113 13.7473C129.052 14.0318 129.164 14.174 129.448 14.174H135.483C135.767 14.174 135.94 14.0318 136.001 13.7473L137.769 6.09699C137.87 5.67028 137.87 5.37564 137.769 5.21309C137.667 5.05053 137.413 4.93877 137.007 4.87782L136.336 4.78638C136.052 4.76606 135.91 4.64414 135.91 4.42063C135.91 4.17679 136.103 4.05487 136.489 4.05487H141.975C142.26 4.05487 142.402 4.15647 142.402 4.35967C142.402 4.58318 142.199 4.72542 141.792 4.78638L141.183 4.87782C140.736 4.93877 140.431 5.05053 140.268 5.21309C140.106 5.35533 139.974 5.6398 139.872 6.06651L135.727 23.9884C135.645 24.4151 135.645 24.6995 135.727 24.8418C135.828 24.984 136.082 25.0958 136.489 25.1771L137.098 25.299C137.362 25.3599 137.495 25.4717 137.495 25.6342C137.495 25.8781 137.312 26 136.946 26H131.46C131.175 26 131.033 25.8882 131.033 25.6647C131.033 25.4412 131.216 25.3091 131.582 25.2685L132.313 25.1771C132.76 25.1161 133.065 25.0043 133.227 24.8418C133.41 24.6792 133.542 24.3846 133.624 23.9579L135.574 15.5151C135.635 15.2306 135.534 15.0884 135.27 15.0884H129.235C128.93 15.0884 128.747 15.2306 128.686 15.5151L126.735 23.9579C126.654 24.3846 126.654 24.6792 126.735 24.8418C126.837 25.0043 127.091 25.1161 127.497 25.1771L128.168 25.2685C128.452 25.2888 128.595 25.4107 128.595 25.6342C128.595 25.8781 128.402 26 128.016 26H122.529ZM142.879 26C142.594 26 142.452 25.8984 142.452 25.6952C142.452 25.4717 142.604 25.3396 142.909 25.299L144.342 25.0856C144.748 25.0247 145.053 24.9231 145.256 24.7808C145.459 24.6183 145.602 24.3236 145.683 23.8969L147.329 16.7038C147.39 16.46 147.41 16.2365 147.39 16.0333C147.39 15.8301 147.359 15.6167 147.298 15.3932L144.982 6.00555C144.901 5.66012 144.789 5.39596 144.647 5.21309C144.525 5.03021 144.301 4.89813 143.976 4.81686L143.732 4.7559C143.488 4.69494 143.366 4.57302 143.366 4.39015C143.366 4.16663 143.549 4.05487 143.915 4.05487H148.944C149.208 4.05487 149.34 4.15647 149.34 4.35967C149.34 4.6035 149.137 4.73558 148.731 4.7559L148.121 4.81686C147.776 4.83718 147.512 4.94893 147.329 5.15213C147.146 5.35533 147.105 5.67028 147.207 6.09699L149.127 14.174C149.168 14.3163 149.239 14.3975 149.34 14.4178C149.462 14.4178 149.574 14.3467 149.676 14.2045L155.07 6.73706C155.457 6.20875 155.619 5.78204 155.558 5.45692C155.517 5.11149 155.263 4.90829 154.796 4.84734L154.156 4.7559C153.872 4.71526 153.729 4.59334 153.729 4.39015C153.729 4.16663 153.892 4.05487 154.217 4.05487H158.606C158.891 4.05487 159.033 4.14631 159.033 4.32919C159.033 4.5527 158.86 4.69494 158.515 4.7559L158.179 4.81686C157.895 4.8575 157.61 5.03021 157.326 5.33501C157.041 5.61948 156.655 6.09699 156.168 6.76753L150.316 14.7836C150.112 15.0681 149.94 15.3424 149.798 15.6065C149.676 15.8504 149.574 16.1349 149.493 16.46L147.786 23.8969C147.705 24.3236 147.715 24.6081 147.816 24.7503C147.938 24.8926 148.192 25.0043 148.578 25.0856L149.767 25.299C150.072 25.3599 150.224 25.4717 150.224 25.6342C150.224 25.8781 150.041 26 149.676 26H142.879ZM155.386 26C155.102 26 154.959 25.8984 154.959 25.6952C154.959 25.4717 155.163 25.3295 155.569 25.2685L156.179 25.1771C156.626 25.1161 156.93 25.0145 157.093 24.8723C157.276 24.7097 157.408 24.4151 157.489 23.9884L161.634 6.06651C161.736 5.6398 161.736 5.35533 161.634 5.21309C161.533 5.07085 161.279 4.95909 160.872 4.87782L160.263 4.7559C159.999 4.69494 159.867 4.58318 159.867 4.42063C159.867 4.17679 160.05 4.05487 160.415 4.05487H170.23C170.738 4.05487 170.941 4.28855 170.839 4.7559L169.925 9.81547C169.864 10.1609 169.701 10.3336 169.437 10.3336C169.153 10.3336 169.031 10.2015 169.071 9.93739L169.132 8.87061C169.234 7.46856 169.01 6.44242 168.462 5.7922C167.913 5.14197 167.212 4.81686 166.359 4.81686C165.485 4.81686 164.845 4.95909 164.439 5.24357C164.032 5.52804 163.758 5.96491 163.616 6.55418L161.97 13.7473C161.909 14.0318 162.021 14.174 162.305 14.174H163.433C164.306 14.174 164.957 13.6965 165.383 12.7415L166.084 11.248C166.145 11.1261 166.206 11.0346 166.267 10.9737C166.328 10.8924 166.42 10.8518 166.542 10.8518C166.643 10.8518 166.735 10.9026 166.816 11.0042C166.897 11.0854 166.918 11.2074 166.877 11.3699L165.292 18.1668C165.19 18.5122 165.028 18.685 164.804 18.685C164.56 18.685 164.439 18.5529 164.439 18.2887V16.8257C164.439 16.1145 164.347 15.6472 164.164 15.4237C163.981 15.2002 163.656 15.0884 163.189 15.0884H162.092C161.787 15.0884 161.604 15.2306 161.543 15.5151L159.592 23.836C159.491 24.2627 159.491 24.5675 159.592 24.7503C159.694 24.9129 159.948 25.0247 160.354 25.0856L161.97 25.299C162.214 25.3193 162.335 25.4311 162.335 25.6342C162.335 25.8781 162.163 26 161.817 26H155.386ZM172.398 26C172.113 26 171.971 25.8984 171.971 25.6952C171.971 25.492 172.134 25.3599 172.459 25.299L173.739 25.0856C174.145 25.0247 174.45 24.9231 174.653 24.7808C174.856 24.6183 174.999 24.3236 175.08 23.8969L179.317 5.60932C179.377 5.32485 179.347 5.12165 179.225 4.99973C179.123 4.87782 178.88 4.81686 178.494 4.81686C177.803 4.81686 177.041 5.10133 176.208 5.67028C175.395 6.21891 174.663 7.2552 174.013 8.77917L173.525 9.93739C173.424 10.2015 173.251 10.3336 173.007 10.3336C172.723 10.3336 172.631 10.1609 172.733 9.81547L174.257 4.29871C174.379 3.83136 174.602 3.59768 174.927 3.59768C175.11 3.59768 175.253 3.63832 175.354 3.7196C175.476 3.78056 175.669 3.85168 175.933 3.93296C176.197 4.01423 176.655 4.05487 177.305 4.05487H184.102C184.752 4.05487 185.23 4.01423 185.534 3.93296C185.859 3.85168 186.093 3.78056 186.235 3.7196C186.398 3.63832 186.54 3.59768 186.662 3.59768C187.007 3.59768 187.129 3.83136 187.028 4.29871L186.052 9.81547C185.991 10.1609 185.819 10.3336 185.534 10.3336C185.27 10.3336 185.158 10.2015 185.199 9.93739L185.26 9.1754C185.382 7.67175 185.189 6.5745 184.681 5.88363C184.173 5.17245 183.462 4.81686 182.547 4.81686C182.161 4.81686 181.887 4.87782 181.724 4.99973C181.582 5.12165 181.481 5.32485 181.42 5.60932L177.183 23.8969C177.081 24.3236 177.092 24.6183 177.213 24.7808C177.356 24.9231 177.62 25.0247 178.006 25.0856L179.438 25.299C179.662 25.3193 179.774 25.4311 179.774 25.6342C179.774 25.8781 179.611 26 179.286 26H172.398Z" fill="black"/>
<path d="M112.076 26.0914L111.984 26.5655L111.987 26.566L112.076 26.0914ZM110.277 25.6038L110.095 26.0509L110.105 26.0549L110.115 26.0584L110.277 25.6038ZM108.967 24.8418L108.625 25.1832L108.637 25.1945L108.649 25.2051L108.967 24.8418ZM108.754 24.537L108.28 24.6317L108.289 24.6751L108.305 24.7163L108.754 24.537ZM108.784 24.0798L109.258 24.1745L109.259 24.1646L108.784 24.0798ZM109.637 19.2945L110.113 19.3793L110.114 19.3739L109.637 19.2945ZM110.491 19.3555H110.008L110.008 19.3679L110.491 19.3555ZM110.521 20.5442L111.004 20.5327L111.004 20.5318L110.521 20.5442ZM111.405 24.2322L111.015 24.5168L111.015 24.5168L111.405 24.2322ZM116.922 24.1408L117.276 24.4686L117.28 24.4642L116.922 24.1408ZM117.318 18.0144L117.75 17.7985L117.75 17.7985L117.318 18.0144ZM115.276 15.0884L114.916 15.4103L114.916 15.4105L115.276 15.0884ZM112.96 11.9185L112.53 12.1381L112.533 12.1453L112.96 11.9185ZM112.838 6.49322L113.265 6.7181L113.267 6.71353L112.838 6.49322ZM114.667 4.54254L114.922 4.95197L114.925 4.95028L114.667 4.54254ZM121.89 4.93877L121.578 5.30704L121.585 5.31286L121.592 5.31841L121.89 4.93877ZM122.195 5.94459L122.669 6.03553L122.67 6.03096L122.195 5.94459ZM121.341 10.3946L121.815 10.4893L121.816 10.4855L121.341 10.3946ZM120.519 10.3336L120.036 10.3566L120.037 10.3734L120.039 10.39L120.519 10.3336ZM120.488 9.69355L120.97 9.67059L120.97 9.66974L120.488 9.69355ZM119.787 5.94459L119.341 6.1311L119.347 6.14359L119.787 5.94459ZM114.545 6.55418L114.989 6.74232L114.992 6.73634L114.545 6.55418ZM114.453 9.84595L113.99 9.98312L113.992 9.98793L114.453 9.84595ZM115.276 11.5528L114.868 11.8111L114.873 11.8191L114.879 11.8269L115.276 11.5528ZM116.922 13.7168L116.547 14.0207L116.553 14.0278L116.922 13.7168ZM119.208 17.0391L118.779 17.2616L118.779 17.2616L119.208 17.0391ZM119.208 23.3178L118.792 23.0734L118.79 23.0763L119.208 23.3178ZM117.044 25.4819L117.285 25.8999L117.285 25.8999L117.044 25.4819ZM113.905 25.7915C113.37 25.7915 112.79 25.7342 112.165 25.6169L111.987 26.566C112.662 26.6925 113.301 26.7571 113.905 26.7571V25.7915ZM112.168 25.6174C111.56 25.4999 110.984 25.3436 110.44 25.1491L110.115 26.0584C110.708 26.2704 111.332 26.4392 111.984 26.5654L112.168 25.6174ZM110.46 25.1566C109.944 24.9464 109.558 24.7173 109.285 24.4784L108.649 25.2051C109.026 25.5353 109.514 25.8141 110.095 26.0509L110.46 25.1566ZM109.308 24.5004C109.239 24.4312 109.212 24.3828 109.202 24.3577L108.305 24.7163C108.376 24.8944 108.491 25.0491 108.625 25.1832L109.308 24.5004ZM109.227 24.4423C109.228 24.4479 109.224 24.4304 109.228 24.3786C109.231 24.3293 109.24 24.2622 109.257 24.1745L108.311 23.9851C108.267 24.2009 108.24 24.4319 108.28 24.6317L109.227 24.4423ZM109.259 24.1646L110.113 19.3793L109.162 19.2098L108.309 23.995L109.259 24.1646ZM110.114 19.3739C110.124 19.3093 110.138 19.2651 110.149 19.2367C110.161 19.2085 110.168 19.201 110.166 19.2038C110.162 19.2082 110.152 19.2174 110.136 19.224C110.122 19.2302 110.115 19.2287 110.125 19.2287V18.2631C109.867 18.2631 109.625 18.3589 109.444 18.5623C109.279 18.7483 109.199 18.9855 109.161 19.2152L110.114 19.3739ZM110.125 19.2287C110.118 19.2287 110.088 19.2267 110.051 19.2061C110.013 19.1851 109.993 19.1587 109.985 19.1467C109.98 19.1379 109.987 19.1456 109.995 19.1835C110.002 19.2207 110.008 19.2766 110.008 19.3555H110.974C110.974 19.1198 110.941 18.8627 110.813 18.6499C110.662 18.3978 110.411 18.2631 110.125 18.2631V19.2287ZM110.008 19.3679L110.039 20.5566L111.004 20.5318L110.973 19.3431L110.008 19.3679ZM110.039 20.5557C110.08 22.2899 110.377 23.6429 111.015 24.5168L111.795 23.9476C111.336 23.3179 111.044 22.2122 111.004 20.5327L110.039 20.5557ZM111.015 24.5168C111.683 25.4323 112.749 25.8427 114.087 25.8427V24.8771C112.946 24.8771 112.224 24.5358 111.795 23.9476L111.015 24.5168ZM114.087 25.8427C115.356 25.8427 116.43 25.3832 117.276 24.4686L116.568 23.8129C115.91 24.5238 115.095 24.8771 114.087 24.8771V25.8427ZM117.28 24.4642C118.13 23.5231 118.533 22.2908 118.533 20.8185H117.567C117.567 22.1096 117.218 23.0922 116.564 23.8173L117.28 24.4642ZM118.533 20.8185C118.533 19.8348 118.264 18.8264 117.75 17.7985L116.886 18.2303C117.348 19.1531 117.567 20.0141 117.567 20.8185H118.533ZM117.75 17.7985C117.24 16.7779 116.533 15.7674 115.636 14.7662L114.916 15.4105C115.767 16.36 116.421 17.3003 116.886 18.2303L117.75 17.7985ZM115.636 14.7665C114.615 13.6258 113.87 12.6012 113.386 11.6918L112.533 12.1453C113.066 13.1459 113.864 14.2346 114.916 15.4103L115.636 14.7665ZM113.39 11.699C112.936 10.8109 112.711 9.8802 112.711 8.90109H111.745C111.745 10.0352 112.008 11.1162 112.53 12.1381L113.39 11.699ZM112.711 8.90109C112.711 8.15009 112.893 7.42429 113.265 6.71809L112.41 6.26835C111.969 7.10644 111.745 7.98589 111.745 8.90109H112.711ZM113.267 6.71353C113.631 6.00454 114.178 5.4174 114.922 4.95196L114.411 4.13312C113.53 4.68366 112.857 5.39698 112.408 6.27291L113.267 6.71353ZM114.925 4.95028C115.661 4.48362 116.621 4.23289 117.836 4.23289V3.26727C116.491 3.26727 115.338 3.54484 114.408 4.13481L114.925 4.95028ZM117.836 4.23289C119.539 4.23289 120.762 4.61528 121.578 5.30704L122.202 4.57051C121.149 3.67734 119.669 3.26727 117.836 3.26727V4.23289ZM121.592 5.31841C121.698 5.40148 121.779 5.53399 121.72 5.85822L122.67 6.03096C122.774 5.46113 122.652 4.9231 122.188 4.55913L121.592 5.31841ZM121.721 5.85366L120.867 10.3036L121.816 10.4855L122.669 6.03553L121.721 5.85366ZM120.868 10.2999C120.858 10.3492 120.847 10.3806 120.839 10.3985C120.831 10.4161 120.829 10.4161 120.836 10.408C120.845 10.3986 120.861 10.3863 120.881 10.3775C120.902 10.3691 120.915 10.369 120.915 10.369V11.3346C121.15 11.3346 121.372 11.2486 121.542 11.0669C121.697 10.9005 121.775 10.6893 121.815 10.4893L120.868 10.2999ZM120.915 10.369C120.922 10.369 120.946 10.3708 120.975 10.3851C121.005 10.3996 121.024 10.4184 121.032 10.4289C121.038 10.4375 121.033 10.4341 121.024 10.4076C121.015 10.3813 121.005 10.3392 120.998 10.2772L120.039 10.39C120.064 10.6022 120.123 10.8306 120.265 11.0155C120.425 11.2252 120.658 11.3346 120.915 11.3346V10.369ZM121.001 10.3107L120.97 9.67059L120.006 9.71652L120.036 10.3566L121.001 10.3107ZM120.97 9.66974C120.888 8.00218 120.65 6.68112 120.227 5.74559L119.347 6.14359C119.696 6.91491 119.926 8.09315 120.006 9.71736L120.97 9.66974ZM120.232 5.75816C120.014 5.23534 119.671 4.82231 119.202 4.54563C118.737 4.27226 118.182 4.15117 117.562 4.15117V5.11679C118.06 5.11679 118.434 5.21414 118.711 5.37763C118.983 5.53783 119.195 5.78011 119.342 6.13102L120.232 5.75816ZM117.562 4.15117C116.679 4.15117 115.917 4.34995 115.322 4.79636L115.901 5.56885C116.281 5.28376 116.819 5.11679 117.562 5.11679V4.15117ZM115.322 4.79636C114.766 5.21302 114.355 5.73992 114.097 6.37202L114.992 6.73634C115.181 6.27118 115.481 5.8837 115.901 5.56885L115.322 4.79636ZM114.1 6.36606C113.853 6.94874 113.727 7.5408 113.727 8.13911H114.692C114.692 7.68079 114.789 7.21624 114.989 6.7423L114.1 6.36606ZM113.727 8.13911C113.727 8.77341 113.814 9.38864 113.99 9.98311L114.916 9.70879C114.767 9.206 114.692 8.68333 114.692 8.13911H113.727ZM113.992 9.98793C114.17 10.5675 114.466 11.1757 114.868 11.8111L115.684 11.2945C115.314 10.7107 115.061 10.181 114.915 9.70396L113.992 9.98793ZM114.879 11.8269C115.295 12.4302 115.852 13.1621 116.547 14.0206L117.297 13.413C116.611 12.5647 116.07 11.8539 115.674 11.2787L114.879 11.8269ZM116.553 14.0278C117.511 15.1658 118.251 16.2437 118.779 17.2616L119.636 16.8166C119.068 15.7212 118.284 14.5843 117.291 13.4058L116.553 14.0278ZM118.779 17.2616C119.299 18.2628 119.548 19.213 119.548 20.1175H120.514C120.514 19.0306 120.214 17.9286 119.636 16.8166L118.779 17.2616ZM119.548 20.1175C119.548 21.2398 119.292 22.2205 118.792 23.0734L119.624 23.5622C120.221 22.5457 120.514 21.3929 120.514 20.1175H119.548ZM118.79 23.0763C118.304 23.9174 117.643 24.5778 116.802 25.0638L117.285 25.8999C118.273 25.3292 119.055 24.547 119.626 23.5594L118.79 23.0763ZM116.802 25.0638C115.97 25.5449 115.008 25.7915 113.905 25.7915V26.7571C115.158 26.7571 116.289 26.4754 117.285 25.8999L116.802 25.0638ZM122.712 25.2685L122.784 25.746L122.784 25.746L122.712 25.2685ZM123.322 25.1771L123.256 24.6986L123.25 24.6996L123.322 25.1771ZM124.236 24.8723L124.554 25.2356L124.557 25.2331L124.236 24.8723ZM124.632 23.9884L124.162 23.8796L124.16 23.8888L124.158 23.898L124.632 23.9884ZM128.777 6.06651L128.308 5.95468L128.307 5.95771L128.777 6.06651ZM128.777 5.21309L129.17 4.93246L129.17 4.93246L128.777 5.21309ZM127.406 4.7559L127.297 5.22634L127.304 5.22794L127.311 5.22933L127.406 4.7559ZM132.923 4.78638L132.869 4.30648L132.863 4.3073L132.923 4.78638ZM132.191 4.87782L132.131 4.39871L132.126 4.39944L132.191 4.87782ZM131.277 5.21309L131.618 5.55448L131.618 5.55448L131.277 5.21309ZM130.881 6.09699L130.411 5.98516L130.41 5.98829L130.881 6.09699ZM129.113 13.7473L128.642 13.6386L128.641 13.6461L129.113 13.7473ZM136.001 13.7473L135.531 13.6386L135.529 13.6461L136.001 13.7473ZM137.769 6.09699L137.299 5.98516L137.298 5.98829L137.769 6.09699ZM137.007 4.87782L137.079 4.40031L137.072 4.39944L137.007 4.87782ZM136.336 4.78638L136.402 4.308L136.386 4.3059L136.371 4.3048L136.336 4.78638ZM141.792 4.78638L141.721 4.30891L141.721 4.30891L141.792 4.78638ZM141.183 4.87782L141.248 5.35624L141.254 5.35528L141.183 4.87782ZM140.268 5.21309L140.586 5.57644L140.598 5.56585L140.61 5.55448L140.268 5.21309ZM139.872 6.06651L139.402 5.95468L139.402 5.95771L139.872 6.06651ZM135.727 23.9884L135.256 23.8796L135.254 23.8888L135.252 23.898L135.727 23.9884ZM135.727 24.8418L135.308 25.0813L135.32 25.1025L135.334 25.1224L135.727 24.8418ZM136.489 25.1771L136.394 25.6505L136.394 25.6505L136.489 25.1771ZM137.098 25.299L137.207 24.8285L137.2 24.8269L137.193 24.8255L137.098 25.299ZM131.582 25.2685L131.635 25.7484L131.641 25.7476L131.582 25.2685ZM132.313 25.1771L132.373 25.6562L132.378 25.6554L132.313 25.1771ZM133.227 24.8418L132.907 24.4809L132.896 24.4904L132.886 24.5004L133.227 24.8418ZM133.624 23.9579L133.153 23.8492L133.151 23.8583L133.149 23.8675L133.624 23.9579ZM135.574 15.5151L136.045 15.6238L136.046 15.6163L135.574 15.5151ZM128.686 15.5151L129.157 15.6238L129.158 15.6163L128.686 15.5151ZM126.735 23.9579L126.265 23.8492L126.263 23.8583L126.261 23.8675L126.735 23.9579ZM126.735 24.8418L126.304 25.0577L126.314 25.0782L126.326 25.0977L126.735 24.8418ZM127.497 25.1771L127.426 25.6546L127.432 25.6554L127.497 25.1771ZM128.168 25.2685L128.103 25.7469L128.118 25.749L128.133 25.7501L128.168 25.2685ZM122.529 25.5172C122.485 25.5172 122.462 25.5131 122.454 25.5113C122.447 25.5095 122.463 25.5121 122.49 25.5309C122.519 25.5519 122.548 25.5841 122.567 25.6244C122.584 25.6621 122.585 25.6899 122.585 25.6952H121.62C121.62 25.9237 121.709 26.1596 121.929 26.3167C122.119 26.4524 122.344 26.4828 122.529 26.4828V25.5172ZM122.585 25.6952C122.585 25.7156 122.58 25.7464 122.563 25.7773C122.546 25.8064 122.53 25.8177 122.532 25.8164C122.535 25.8141 122.554 25.8023 122.598 25.7875C122.642 25.7729 122.702 25.7582 122.784 25.746L122.64 24.791C122.406 24.8262 122.168 24.8921 121.978 25.0254C121.764 25.1753 121.62 25.4068 121.62 25.6952H122.585ZM122.784 25.746L123.393 25.6545L123.25 24.6996L122.64 24.791L122.784 25.746ZM123.387 25.6554C123.845 25.5929 124.276 25.4785 124.554 25.2356L123.918 24.5089C123.871 24.5505 123.692 24.6393 123.256 24.6987L123.387 25.6554ZM124.557 25.2331C124.861 24.963 125.019 24.538 125.107 24.0787L124.158 23.898C124.083 24.2921 123.977 24.4564 123.915 24.5114L124.557 25.2331ZM125.103 24.0972L129.248 6.17531L128.307 5.95771L124.162 23.8796L125.103 24.0972ZM129.247 6.17834C129.303 5.94581 129.336 5.72751 129.336 5.53312C129.336 5.34799 129.306 5.12244 129.17 4.93246L128.385 5.49371C128.351 5.44598 128.371 5.43378 128.371 5.53312C128.371 5.62321 128.354 5.7605 128.308 5.95468L129.247 6.17834ZM129.17 4.93246C129.048 4.76075 128.869 4.65287 128.705 4.58067C128.535 4.50564 128.333 4.44887 128.11 4.40438L127.921 5.35125C128.105 5.38804 128.233 5.42779 128.316 5.46451C128.406 5.50407 128.406 5.52319 128.385 5.49371L129.17 4.93246ZM128.11 4.40438L127.501 4.28247L127.311 5.22933L127.921 5.35125L128.11 4.40438ZM127.514 4.28546C127.47 4.27529 127.442 4.26526 127.425 4.25807C127.409 4.25078 127.41 4.24896 127.421 4.25779C127.432 4.26768 127.453 4.28894 127.469 4.32357C127.487 4.359 127.492 4.39377 127.492 4.42063H126.527C126.527 4.65402 126.63 4.85404 126.797 4.99493C126.946 5.12081 127.129 5.18741 127.297 5.22634L127.514 4.28546ZM127.492 4.42063C127.492 4.42031 127.492 4.44348 127.476 4.47653C127.458 4.51157 127.433 4.53551 127.415 4.54803C127.399 4.5584 127.397 4.55479 127.423 4.54904C127.449 4.54333 127.492 4.53768 127.558 4.53768V3.57207C127.337 3.57207 127.087 3.60618 126.879 3.74459C126.637 3.90604 126.527 4.15806 126.527 4.42063H127.492ZM127.558 4.53768H133.045V3.57207H127.558V4.53768ZM133.045 4.53768C133.086 4.53768 133.105 4.54188 133.109 4.54288C133.112 4.54367 133.093 4.53921 133.066 4.51833C133.037 4.49558 133.014 4.4646 133 4.43202C132.988 4.40238 132.988 4.38472 132.988 4.39015H133.954C133.954 4.16878 133.878 3.9279 133.663 3.75905C133.47 3.60762 133.237 3.57207 133.045 3.57207V4.53768ZM132.988 4.39015C132.988 4.37839 132.991 4.3514 133.008 4.31983C133.024 4.28841 133.044 4.27117 133.051 4.26544C133.057 4.26119 133.05 4.26811 133.018 4.27823C132.986 4.28824 132.938 4.29891 132.869 4.30652L132.976 5.26623C133.195 5.2419 133.428 5.18468 133.617 5.04824C133.833 4.89243 133.954 4.65863 133.954 4.39015H132.988ZM132.863 4.3073L132.131 4.39874L132.251 5.35689L132.983 5.26546L132.863 4.3073ZM132.126 4.39944C131.659 4.46305 131.216 4.59073 130.935 4.87169L131.618 5.55448C131.662 5.51034 131.829 5.4145 132.256 5.3562L132.126 4.39944ZM130.935 4.87169C130.675 5.13259 130.517 5.53776 130.411 5.98516L131.35 6.20882C131.447 5.8028 131.554 5.6187 131.618 5.55448L130.935 4.87169ZM130.41 5.98829L128.642 13.6386L129.583 13.856L131.351 6.20569L130.41 5.98829ZM128.641 13.6461C128.598 13.8443 128.584 14.128 128.771 14.3656C128.961 14.6071 129.243 14.6568 129.448 14.6568V13.6912C129.414 13.6912 129.413 13.6866 129.43 13.6929C129.452 13.7007 129.494 13.7222 129.53 13.769C129.567 13.8153 129.577 13.8589 129.579 13.8769C129.581 13.8914 129.577 13.8848 129.585 13.8485L128.641 13.6461ZM129.448 14.6568H135.483V13.6912H129.448V14.6568ZM135.483 14.6568C135.706 14.6568 135.939 14.5998 136.133 14.44C136.326 14.2812 136.427 14.065 136.473 13.8485L135.529 13.6461C135.522 13.6802 135.514 13.6969 135.511 13.7021C135.509 13.7062 135.511 13.7015 135.519 13.6946C135.527 13.6877 135.534 13.6858 135.532 13.6863C135.529 13.6872 135.514 13.6912 135.483 13.6912V14.6568ZM136.471 13.856L138.239 6.20569L137.298 5.98829L135.531 13.6386L136.471 13.856ZM138.239 6.20882C138.294 5.97479 138.328 5.75443 138.328 5.55598C138.328 5.36305 138.296 5.14599 138.178 4.9572L137.359 5.46897C137.343 5.44275 137.362 5.45428 137.362 5.55598C137.362 5.65216 137.345 5.79248 137.299 5.98516L138.239 6.20882ZM138.178 4.9572C138.058 4.76455 137.874 4.64369 137.697 4.56543C137.517 4.4862 137.306 4.43444 137.079 4.40035L136.935 5.35528C137.114 5.38215 137.234 5.41675 137.308 5.44927C137.384 5.48277 137.378 5.49907 137.359 5.46897L138.178 4.9572ZM137.072 4.39944L136.402 4.308L136.271 5.26476L136.942 5.3562L137.072 4.39944ZM136.371 4.3048C136.33 4.30186 136.309 4.2962 136.302 4.29406C136.297 4.29216 136.31 4.29569 136.331 4.31313C136.353 4.33211 136.371 4.35784 136.383 4.38538C136.393 4.41078 136.392 4.42558 136.392 4.42063H135.427C135.427 4.64339 135.503 4.87575 135.702 5.04627C135.883 5.20151 136.107 5.25406 136.302 5.26796L136.371 4.3048ZM136.392 4.42063C136.392 4.42415 136.391 4.45077 136.373 4.48596C136.354 4.52254 136.328 4.54471 136.312 4.55452C136.3 4.56227 136.303 4.55692 136.335 4.55018C136.366 4.54354 136.416 4.53768 136.489 4.53768V3.57207C136.26 3.57207 136.007 3.6053 135.797 3.7381C135.549 3.89452 135.427 4.14659 135.427 4.42063H136.392ZM136.489 4.53768H141.975V3.57207H136.489V4.53768ZM141.975 4.53768C142.019 4.53768 142.042 4.54176 142.05 4.5436C142.057 4.5454 142.041 4.54277 142.014 4.52395C141.985 4.50299 141.956 4.47079 141.938 4.43049C141.92 4.39275 141.919 4.36497 141.919 4.35967H142.885C142.885 4.13117 142.796 3.89527 142.576 3.7382C142.386 3.6025 142.16 3.57207 141.975 3.57207V4.53768ZM141.919 4.35967C141.919 4.33929 141.924 4.3085 141.942 4.27759C141.958 4.24849 141.974 4.23715 141.972 4.23845C141.969 4.24076 141.95 4.25262 141.906 4.26739C141.862 4.28195 141.802 4.29672 141.721 4.30891L141.864 5.26384C142.098 5.22868 142.336 5.16273 142.526 5.02951C142.74 4.8796 142.885 4.6481 142.885 4.35967H141.919ZM141.721 4.30891L141.111 4.40035L141.254 5.35528L141.864 5.26384L141.721 4.30891ZM141.117 4.39944C140.651 4.46305 140.208 4.59073 139.927 4.87169L140.61 5.55448C140.654 5.51034 140.82 5.4145 141.248 5.3562L141.117 4.39944ZM139.95 4.84974C139.667 5.09792 139.507 5.51342 139.402 5.95468L140.342 6.17834C140.44 5.76618 140.545 5.61273 140.586 5.57644L139.95 4.84974ZM139.402 5.95771L135.256 23.8796L136.197 24.0972L140.342 6.17531L139.402 5.95771ZM135.252 23.898C135.209 24.1274 135.183 24.3378 135.183 24.5218C135.183 24.6941 135.205 24.9016 135.308 25.0813L136.146 24.6022C136.167 24.6398 136.149 24.6338 136.149 24.5218C136.149 24.4212 136.163 24.2761 136.201 24.0787L135.252 23.898ZM135.334 25.1224C135.457 25.2941 135.635 25.402 135.799 25.4742C135.97 25.5492 136.172 25.606 136.394 25.6505L136.583 24.7036C136.399 24.6668 136.271 24.6271 136.188 24.5904C136.098 24.5508 136.099 24.5317 136.12 24.5612L135.334 25.1224ZM136.394 25.6505L137.004 25.7724L137.193 24.8255L136.583 24.7036L136.394 25.6505ZM136.99 25.7694C137.034 25.7796 137.062 25.7896 137.079 25.7968C137.095 25.8041 137.094 25.8059 137.084 25.7971C137.072 25.7872 137.051 25.7659 137.035 25.7313C137.018 25.6959 137.012 25.6611 137.012 25.6342H137.977C137.977 25.4009 137.874 25.2008 137.707 25.0599C137.559 24.9341 137.376 24.8675 137.207 24.8285L136.99 25.7694ZM137.012 25.6342C137.012 25.6346 137.012 25.6114 137.028 25.5783C137.046 25.5433 137.071 25.5194 137.09 25.5068C137.105 25.4965 137.107 25.5001 137.081 25.5058C137.056 25.5115 137.012 25.5172 136.946 25.5172V26.4828C137.167 26.4828 137.418 26.4487 137.625 26.3103C137.867 26.1488 137.977 25.8968 137.977 25.6342H137.012ZM136.946 25.5172H131.46V26.4828H136.946V25.5172ZM131.46 25.5172C131.419 25.5172 131.399 25.513 131.395 25.512C131.392 25.5112 131.411 25.5157 131.438 25.5365C131.467 25.5593 131.49 25.5903 131.504 25.6228C131.517 25.6525 131.516 25.6701 131.516 25.6647H130.55C130.55 25.8861 130.626 26.127 130.841 26.2958C131.034 26.4472 131.267 26.4828 131.46 26.4828V25.5172ZM131.516 25.6647C131.516 25.6765 131.513 25.7035 131.497 25.735C131.48 25.7665 131.461 25.7837 131.453 25.7894C131.447 25.7937 131.454 25.7868 131.487 25.7766C131.518 25.7666 131.566 25.756 131.635 25.7483L131.528 24.7886C131.309 24.813 131.076 24.8702 130.887 25.0066C130.672 25.1624 130.55 25.3962 130.55 25.6647H131.516ZM131.641 25.7476L132.373 25.6561L132.253 24.698L131.522 24.7894L131.641 25.7476ZM132.378 25.6554C132.845 25.5918 133.288 25.4641 133.569 25.1832L132.886 24.5004C132.842 24.5445 132.675 24.6404 132.248 24.6987L132.378 25.6554ZM133.548 25.2026C133.852 24.9325 134.01 24.5076 134.098 24.0482L133.149 23.8675C133.074 24.2616 132.969 24.4259 132.907 24.4809L133.548 25.2026ZM134.094 24.0666L136.045 15.6238L135.104 15.4064L133.153 23.8492L134.094 24.0666ZM136.046 15.6163C136.087 15.4259 136.106 15.1509 135.937 14.9144C135.756 14.6613 135.474 14.6056 135.27 14.6056V15.5712C135.295 15.5712 135.288 15.575 135.262 15.565C135.231 15.5531 135.187 15.5257 135.151 15.4757C135.117 15.428 135.11 15.3865 135.109 15.3742C135.108 15.3644 135.111 15.3751 135.102 15.4139L136.046 15.6163ZM135.27 14.6056H129.235V15.5712H135.27V14.6056ZM129.235 14.6056C129.009 14.6056 128.772 14.6587 128.573 14.814C128.37 14.9712 128.262 15.1898 128.214 15.4139L129.158 15.6163C129.165 15.585 129.172 15.5711 129.174 15.568C129.175 15.566 129.172 15.5707 129.165 15.5762C129.149 15.5892 129.156 15.5712 129.235 15.5712V14.6056ZM128.216 15.4064L126.265 23.8492L127.206 24.0666L129.156 15.6238L128.216 15.4064ZM126.261 23.8675C126.217 24.0981 126.192 24.3107 126.192 24.4989C126.192 24.6798 126.215 24.8803 126.304 25.0577L127.167 24.6259C127.175 24.6408 127.157 24.6126 127.157 24.4989C127.157 24.3925 127.172 24.2444 127.21 24.0482L126.261 23.8675ZM126.326 25.0977C126.446 25.2903 126.63 25.4112 126.808 25.4894C126.988 25.5687 127.198 25.6204 127.426 25.6545L127.569 24.6996C127.39 24.6727 127.27 24.6381 127.197 24.6056C127.12 24.5721 127.126 24.5558 127.145 24.5859L126.326 25.0977ZM127.432 25.6554L128.103 25.7469L128.233 24.7901L127.563 24.6987L127.432 25.6554ZM128.133 25.7501C128.175 25.753 128.195 25.7587 128.202 25.7608C128.208 25.7627 128.194 25.7592 128.174 25.7417C128.152 25.7228 128.133 25.697 128.121 25.6695C128.111 25.6441 128.112 25.6293 128.112 25.6342H129.077C129.077 25.4115 129.001 25.1791 128.802 25.0086C128.621 24.8534 128.397 24.8008 128.202 24.7869L128.133 25.7501ZM128.112 25.6342C128.112 25.6307 128.113 25.6041 128.131 25.5689C128.151 25.5323 128.176 25.5102 128.192 25.5004C128.204 25.4926 128.201 25.498 128.169 25.5047C128.138 25.5113 128.088 25.5172 128.016 25.5172V26.4828C128.244 26.4828 128.497 26.4496 128.708 26.3168C128.955 26.1604 129.077 25.9083 129.077 25.6342H128.112ZM128.016 25.5172H122.529V26.4828H128.016V25.5172ZM142.909 25.299L142.973 25.7776L142.98 25.7765L142.909 25.299ZM144.342 25.0856L144.413 25.5632L144.413 25.5631L144.342 25.0856ZM145.256 24.7808L145.533 25.1764L145.546 25.1675L145.558 25.1578L145.256 24.7808ZM145.683 23.8969L145.212 23.7892L145.21 23.7979L145.209 23.8066L145.683 23.8969ZM147.329 16.7038L146.86 16.5867L146.858 16.5961L147.329 16.7038ZM147.39 16.0333H146.907V16.0573L146.909 16.0813L147.39 16.0333ZM147.298 15.3932L146.829 15.5089L146.832 15.5202L147.298 15.3932ZM144.982 6.00555L144.512 6.11614L144.513 6.12122L144.982 6.00555ZM144.647 5.21309L144.245 5.4809L144.255 5.49558L144.265 5.5095L144.647 5.21309ZM143.976 4.81686L144.093 4.34846L144.093 4.34846L143.976 4.81686ZM143.732 4.7559L143.615 5.22429L143.615 5.22429L143.732 4.7559ZM148.731 4.7559L148.707 4.27369L148.695 4.27429L148.683 4.27549L148.731 4.7559ZM148.121 4.81686L148.15 5.29883L148.159 5.29825L148.169 5.29727L148.121 4.81686ZM147.207 6.09699L147.676 5.98532L147.676 5.98516L147.207 6.09699ZM149.127 14.174L148.657 14.2857L148.66 14.2962L148.663 14.3067L149.127 14.174ZM149.34 14.4178L149.246 14.8913L149.293 14.9007H149.34V14.4178ZM149.676 14.2045L149.284 13.9218L149.283 13.9239L149.676 14.2045ZM155.07 6.73706L154.681 6.45219L154.679 6.45432L155.07 6.73706ZM155.558 5.45692L155.079 5.51333L155.081 5.5297L155.084 5.5459L155.558 5.45692ZM154.796 4.84734L154.728 5.32533L154.734 5.32609L154.796 4.84734ZM154.156 4.7559L154.088 5.23385L154.088 5.23385L154.156 4.7559ZM158.515 4.7559L158.431 4.28043L158.428 4.28088L158.515 4.7559ZM158.179 4.81686L158.248 5.29481L158.257 5.29351L158.266 5.29188L158.179 4.81686ZM157.326 5.33501L157.667 5.6764L157.673 5.67052L157.679 5.66443L157.326 5.33501ZM156.168 6.76753L156.558 7.05221L156.558 7.05151L156.168 6.76753ZM150.316 14.7836L149.926 14.4989L149.923 14.503L150.316 14.7836ZM149.798 15.6065L149.372 15.3776L149.369 15.3841L149.366 15.3906L149.798 15.6065ZM149.493 16.46L149.024 16.3428L149.022 16.352L149.493 16.46ZM147.786 23.8969L147.315 23.7889L147.313 23.7977L147.312 23.8066L147.786 23.8969ZM147.816 24.7503L147.423 25.031L147.436 25.0483L147.45 25.0646L147.816 24.7503ZM148.578 25.0856L148.479 25.5581L148.486 25.5596L148.493 25.5608L148.578 25.0856ZM149.767 25.299L149.862 24.8255L149.852 24.8238L149.767 25.299ZM142.879 25.5172C142.835 25.5172 142.812 25.5131 142.804 25.5113C142.796 25.5095 142.813 25.5121 142.839 25.5309C142.869 25.5519 142.897 25.5841 142.916 25.6244C142.934 25.6621 142.935 25.6899 142.935 25.6952H141.969C141.969 25.9237 142.058 26.1596 142.278 26.3167C142.468 26.4524 142.694 26.4828 142.879 26.4828V25.5172ZM142.935 25.6952C142.935 25.6946 142.935 25.7106 142.924 25.7349C142.913 25.7604 142.897 25.7807 142.882 25.7934C142.87 25.8046 142.865 25.8039 142.88 25.7983C142.895 25.7925 142.924 25.784 142.973 25.7775L142.845 24.8204C142.645 24.8471 142.426 24.9114 142.25 25.0637C142.056 25.232 141.969 25.4605 141.969 25.6952H142.935ZM142.98 25.7765L144.413 25.5632L144.271 24.6081L142.838 24.8214L142.98 25.7765ZM144.413 25.5631C144.851 25.4974 145.241 25.3807 145.533 25.1764L144.979 24.3853C144.865 24.4654 144.645 24.5519 144.27 24.6082L144.413 25.5631ZM145.558 25.1578C145.894 24.8888 146.068 24.4571 146.157 23.9873L145.209 23.8066C145.135 24.1902 145.025 24.3478 144.954 24.4038L145.558 25.1578ZM146.153 24.0046L147.799 16.8115L146.858 16.5961L145.212 23.7892L146.153 24.0046ZM147.797 16.8209C147.869 16.5351 147.897 16.2548 147.87 15.9852L146.909 16.0813C146.923 16.2181 146.911 16.3848 146.86 16.5867L147.797 16.8209ZM147.872 16.0333C147.872 15.7816 147.835 15.5254 147.764 15.2662L146.832 15.5202C146.884 15.708 146.907 15.8785 146.907 16.0333H147.872ZM147.767 15.2775L145.451 5.88989L144.513 6.12122L146.829 15.5089L147.767 15.2775ZM145.452 5.89497C145.362 5.51439 145.229 5.17571 145.028 4.91667L144.265 5.5095C144.348 5.61622 144.439 5.80585 144.512 6.11613L145.452 5.89497ZM145.048 4.94527C144.832 4.62124 144.476 4.44408 144.093 4.34846L143.859 5.28525C144.127 5.35219 144.217 5.43918 144.245 5.4809L145.048 4.94527ZM144.093 4.34846L143.849 4.28751L143.615 5.22429L143.859 5.28525L144.093 4.34846ZM143.849 4.28751C143.815 4.27895 143.796 4.27092 143.788 4.26691C143.78 4.26307 143.787 4.26504 143.799 4.27734C143.813 4.29072 143.827 4.31091 143.838 4.33656C143.848 4.36165 143.849 4.38144 143.849 4.39015H142.884C142.884 4.60101 142.959 4.80272 143.116 4.96014C143.261 5.10504 143.445 5.18171 143.615 5.22429L143.849 4.28751ZM143.849 4.39015C143.849 4.40122 143.846 4.43442 143.825 4.47466C143.802 4.51581 143.773 4.53998 143.755 4.55066C143.741 4.55938 143.742 4.55494 143.771 4.54892C143.8 4.54303 143.847 4.53768 143.915 4.53768V3.57207C143.699 3.57207 143.455 3.6023 143.252 3.72672C143.009 3.87479 142.884 4.11898 142.884 4.39015H143.849ZM143.915 4.53768H148.944V3.57207H143.915V4.53768ZM148.944 4.53768C148.962 4.53768 148.975 4.53854 148.984 4.53955C148.993 4.54057 148.998 4.54162 148.998 4.5416C148.997 4.54158 148.992 4.54023 148.983 4.5361C148.974 4.53191 148.961 4.52488 148.947 4.51376C148.915 4.48939 148.889 4.4556 148.873 4.41829C148.858 4.38386 148.858 4.36052 148.858 4.35967H149.823C149.823 4.14479 149.747 3.9108 149.536 3.74839C149.349 3.60444 149.125 3.57207 148.944 3.57207V4.53768ZM148.858 4.35967C148.858 4.35191 148.86 4.32496 148.877 4.29201C148.895 4.25893 148.917 4.24177 148.925 4.23679C148.93 4.2335 148.919 4.24159 148.88 4.25131C148.842 4.2609 148.786 4.26975 148.707 4.27369L148.755 5.2381C148.992 5.22624 149.245 5.18051 149.451 5.04641C149.691 4.89065 149.823 4.64379 149.823 4.35967H148.858ZM148.683 4.27549L148.073 4.33645L148.169 5.29727L148.779 5.23631L148.683 4.27549ZM148.093 4.33488C147.656 4.36058 147.259 4.50812 146.97 4.82915L147.688 5.47511C147.764 5.38975 147.895 5.31377 148.15 5.29883L148.093 4.33488ZM146.97 4.82915C146.629 5.20806 146.621 5.72317 146.737 6.20882L147.676 5.98516C147.589 5.61739 147.663 5.5026 147.688 5.47511L146.97 4.82915ZM146.737 6.20866L148.657 14.2857L149.597 14.0623L147.676 5.98532L146.737 6.20866ZM148.663 14.3067C148.729 14.5385 148.895 14.8211 149.246 14.8913L149.435 13.9444C149.461 13.9495 149.488 13.9595 149.515 13.975C149.541 13.9905 149.561 14.0082 149.574 14.0237C149.599 14.0526 149.599 14.0679 149.591 14.0414L148.663 14.3067ZM149.34 14.9007C149.678 14.9007 149.918 14.6956 150.068 14.4851L149.283 13.9239C149.257 13.9598 149.246 13.9637 149.256 13.9572C149.262 13.9535 149.273 13.9475 149.289 13.9426C149.306 13.9377 149.323 13.935 149.34 13.935V14.9007ZM150.067 14.4872L155.462 7.01979L154.679 6.45432L149.284 13.9218L150.067 14.4872ZM155.46 7.02192C155.857 6.47869 156.133 5.90514 156.033 5.36795L155.084 5.5459C155.105 5.65893 155.056 5.93881 154.681 6.45219L155.46 7.02192ZM156.038 5.40051C156.004 5.11135 155.872 4.85523 155.639 4.66844C155.419 4.4923 155.143 4.40565 154.859 4.36859L154.734 5.32609C154.917 5.34998 155.002 5.39541 155.036 5.42246C155.056 5.43887 155.072 5.45706 155.079 5.51333L156.038 5.40051ZM154.864 4.36938L154.224 4.27794L154.088 5.23385L154.728 5.32529L154.864 4.36938ZM154.224 4.27794C154.18 4.27161 154.154 4.26381 154.141 4.259C154.129 4.25429 154.135 4.25476 154.15 4.26741C154.167 4.28153 154.185 4.30412 154.198 4.33378C154.211 4.36241 154.212 4.38396 154.212 4.39015H153.247C153.247 4.61919 153.334 4.83943 153.522 5.00055C153.691 5.14518 153.9 5.20697 154.088 5.23385L154.224 4.27794ZM154.212 4.39015C154.212 4.39284 154.212 4.41853 154.194 4.4541C154.176 4.49195 154.149 4.51997 154.125 4.53654C154.104 4.55096 154.095 4.55031 154.112 4.54644C154.128 4.54257 154.162 4.53768 154.217 4.53768V3.57207C154.014 3.57207 153.776 3.60422 153.578 3.74084C153.346 3.89988 153.247 4.144 153.247 4.39015H154.212ZM154.217 4.53768H158.606V3.57207H154.217V4.53768ZM158.606 4.53768C158.653 4.53768 158.68 4.54157 158.692 4.54411C158.704 4.54672 158.69 4.5458 158.665 4.52958C158.636 4.51126 158.602 4.47896 158.577 4.43142C158.554 4.38548 158.55 4.34666 158.55 4.32919H159.516C159.516 4.08945 159.409 3.86019 159.187 3.71733C159.001 3.59794 158.785 3.57207 158.606 3.57207V4.53768ZM158.55 4.32919C158.55 4.32135 158.552 4.30068 158.564 4.27542C158.576 4.25017 158.59 4.23566 158.596 4.23081C158.601 4.22729 158.594 4.23429 158.565 4.24546C158.537 4.25659 158.493 4.2694 158.431 4.28044L158.599 5.23136C158.811 5.19387 159.033 5.12206 159.21 4.97619C159.408 4.81347 159.516 4.58539 159.516 4.32919H158.55ZM158.428 4.28088L158.093 4.34184L158.266 5.29188L158.601 5.23092L158.428 4.28088ZM158.111 4.3389C157.678 4.4008 157.3 4.65551 156.973 5.00558L157.679 5.66443C157.921 5.40491 158.112 5.3142 158.248 5.29481L158.111 4.3389ZM156.985 4.99361C156.672 5.30618 156.268 5.80928 155.777 6.48356L156.558 7.05151C157.043 6.3847 157.411 5.93278 157.667 5.6764L156.985 4.99361ZM155.778 6.48286L149.926 14.4989L150.706 15.0683L156.558 7.05221L155.778 6.48286ZM149.923 14.503C149.71 14.8014 149.526 15.093 149.372 15.3776L150.223 15.8354C150.354 15.5918 150.515 15.3348 150.709 15.0642L149.923 14.503ZM149.366 15.3906C149.225 15.6722 149.112 15.991 149.024 16.3429L149.961 16.5771C150.036 16.2787 150.126 16.0286 150.229 15.8225L149.366 15.3906ZM149.022 16.352L147.315 23.7889L148.256 24.0049L149.963 16.568L149.022 16.352ZM147.312 23.8066C147.267 24.0389 147.243 24.2557 147.25 24.4475C147.257 24.6305 147.293 24.8482 147.423 25.031L148.209 24.4697C148.238 24.5103 148.219 24.5146 148.215 24.4131C148.212 24.3205 148.223 24.1816 148.26 23.9873L147.312 23.8066ZM147.45 25.0646C147.685 25.3385 148.083 25.4747 148.479 25.5581L148.678 24.6132C148.505 24.5768 148.379 24.5371 148.293 24.4989C148.203 24.4593 148.18 24.4324 148.183 24.4361L147.45 25.0646ZM148.493 25.5608L149.682 25.7742L149.852 24.8238L148.664 24.6104L148.493 25.5608ZM149.672 25.7724C149.729 25.7838 149.77 25.7957 149.796 25.8059C149.824 25.8163 149.83 25.8221 149.824 25.8179C149.818 25.8129 149.795 25.7941 149.774 25.7563C149.751 25.7162 149.741 25.6726 149.741 25.6342H150.707C150.707 25.3727 150.573 25.1691 150.395 25.0392C150.237 24.9233 150.044 24.862 149.862 24.8255L149.672 25.7724ZM149.741 25.6342C149.741 25.6346 149.742 25.6114 149.758 25.5783C149.776 25.5433 149.8 25.5194 149.819 25.5068C149.835 25.4965 149.837 25.5001 149.811 25.5058C149.785 25.5115 149.742 25.5172 149.676 25.5172V26.4828C149.897 26.4828 150.147 26.4487 150.355 26.3103C150.597 26.1488 150.707 25.8968 150.707 25.6342H149.741ZM149.676 25.5172H142.879V26.4828H149.676V25.5172ZM155.569 25.2685L155.641 25.746L155.641 25.746L155.569 25.2685ZM156.179 25.1771L156.113 24.6986L156.107 24.6996L156.179 25.1771ZM157.093 24.8723L157.411 25.2356L157.414 25.2331L157.093 24.8723ZM157.489 23.9884L157.019 23.8796L157.017 23.8888L157.015 23.898L157.489 23.9884ZM161.634 6.06651L161.165 5.95468L161.164 5.95771L161.634 6.06651ZM161.634 5.21309L162.027 4.93246L162.027 4.93246L161.634 5.21309ZM160.263 4.7559L160.154 5.22634L160.161 5.22794L160.168 5.22933L160.263 4.7559ZM170.839 4.7559L170.367 4.65334L170.366 4.66166L170.364 4.67003L170.839 4.7559ZM169.925 9.81547L169.45 9.72961L169.449 9.73156L169.925 9.81547ZM169.071 9.93739L169.549 10.0108L169.552 9.98798L169.553 9.96493L169.071 9.93739ZM169.132 8.87061L168.651 8.83571L168.65 8.84306L169.132 8.87061ZM168.462 5.7922L168.093 6.10354L168.093 6.10354L168.462 5.7922ZM164.439 5.24357L164.162 4.84804L164.162 4.84804L164.439 5.24357ZM163.616 6.55418L163.146 6.44089L163.145 6.44649L163.616 6.55418ZM161.97 13.7473L161.499 13.6396L161.498 13.6461L161.97 13.7473ZM165.383 12.7415L164.946 12.5363L164.943 12.5445L165.383 12.7415ZM166.084 11.248L165.652 11.032L165.647 11.0428L166.084 11.248ZM166.267 10.9737L166.609 11.3151L166.633 11.2908L166.654 11.2634L166.267 10.9737ZM166.816 11.0042L166.439 11.3058L166.456 11.3267L166.475 11.3456L166.816 11.0042ZM166.877 11.3699L166.408 11.2528L166.407 11.2603L166.877 11.3699ZM165.292 18.1668L165.755 18.303L165.759 18.2898L165.762 18.2765L165.292 18.1668ZM164.164 15.4237L163.791 15.7294L163.791 15.7294L164.164 15.4237ZM161.543 15.5151L162.013 15.6253L162.015 15.6163L161.543 15.5151ZM159.592 23.836L160.062 23.9478L160.062 23.9462L159.592 23.836ZM159.592 24.7503L159.17 24.9848L159.176 24.9957L159.183 25.0062L159.592 24.7503ZM160.354 25.0856L160.283 25.5632L160.291 25.5643L160.354 25.0856ZM161.97 25.299L161.907 25.7776L161.918 25.7791L161.93 25.7801L161.97 25.299ZM155.386 25.5172C155.342 25.5172 155.319 25.5131 155.311 25.5113C155.304 25.5095 155.32 25.5121 155.347 25.5309C155.376 25.5519 155.405 25.5841 155.424 25.6244C155.441 25.6621 155.442 25.6899 155.442 25.6952H154.477C154.477 25.9237 154.566 26.1596 154.786 26.3167C154.976 26.4524 155.201 26.4828 155.386 26.4828V25.5172ZM155.442 25.6952C155.442 25.7156 155.437 25.7464 155.42 25.7773C155.403 25.8064 155.387 25.8177 155.389 25.8164C155.392 25.8141 155.411 25.8023 155.455 25.7875C155.499 25.7729 155.559 25.7582 155.641 25.746L155.497 24.791C155.263 24.8262 155.025 24.8921 154.835 25.0254C154.621 25.1753 154.477 25.4068 154.477 25.6952H155.442ZM155.641 25.746L156.25 25.6545L156.107 24.6996L155.497 24.791L155.641 25.746ZM156.244 25.6554C156.702 25.5929 157.133 25.4785 157.411 25.2356L156.775 24.5089C156.728 24.5505 156.549 24.6393 156.113 24.6987L156.244 25.6554ZM157.414 25.2331C157.718 24.963 157.876 24.538 157.964 24.0787L157.015 23.898C156.94 24.2921 156.834 24.4564 156.772 24.5114L157.414 25.2331ZM157.96 24.0972L162.105 6.17531L161.164 5.95771L157.019 23.8796L157.96 24.0972ZM162.104 6.17834C162.159 5.94581 162.193 5.72751 162.193 5.53312C162.193 5.34799 162.163 5.12244 162.027 4.93246L161.242 5.49371C161.207 5.44598 161.228 5.43378 161.228 5.53312C161.228 5.62321 161.211 5.7605 161.165 5.95468L162.104 6.17834ZM162.027 4.93246C161.905 4.76075 161.726 4.65287 161.562 4.58067C161.392 4.50564 161.19 4.44887 160.967 4.40438L160.778 5.35125C160.962 5.38804 161.09 5.42779 161.173 5.46451C161.263 5.50407 161.263 5.52319 161.242 5.49371L162.027 4.93246ZM160.967 4.40438L160.358 4.28247L160.168 5.22933L160.778 5.35125L160.967 4.40438ZM160.371 4.28546C160.327 4.27529 160.299 4.26526 160.282 4.25807C160.266 4.25078 160.267 4.24896 160.278 4.25779C160.289 4.26768 160.31 4.28894 160.326 4.32357C160.343 4.359 160.349 4.39377 160.349 4.42063H159.384C159.384 4.65402 159.487 4.85404 159.654 4.99493C159.803 5.12081 159.986 5.18741 160.154 5.22634L160.371 4.28546ZM160.349 4.42063C160.349 4.42031 160.349 4.44348 160.333 4.47653C160.315 4.51157 160.29 4.53551 160.272 4.54803C160.256 4.5584 160.254 4.55479 160.28 4.54904C160.306 4.54333 160.349 4.53768 160.415 4.53768V3.57207C160.194 3.57207 159.944 3.60618 159.736 3.74459C159.494 3.90604 159.384 4.15806 159.384 4.42063H160.349ZM160.415 4.53768H170.23V3.57207H160.415V4.53768ZM170.23 4.53768C170.322 4.53768 170.376 4.5487 170.403 4.55737C170.426 4.56509 170.416 4.56669 170.399 4.54694C170.38 4.52579 170.379 4.509 170.38 4.51845C170.383 4.53275 170.385 4.57443 170.367 4.65334L171.311 4.85846C171.376 4.55898 171.374 4.19696 171.127 3.91332C170.889 3.63949 170.536 3.57207 170.23 3.57207V4.53768ZM170.364 4.67003L169.45 9.72961L170.4 9.90133L171.314 4.84176L170.364 4.67003ZM169.449 9.73156C169.439 9.78954 169.427 9.82769 169.417 9.85092C169.407 9.87368 169.401 9.8778 169.406 9.87318C169.411 9.86723 169.422 9.85905 169.435 9.8537C169.447 9.84881 169.45 9.85081 169.437 9.85081V10.8164C169.686 10.8164 169.925 10.7298 170.109 10.535C170.278 10.3547 170.361 10.1229 170.4 9.89937L169.449 9.73156ZM169.437 9.85081C169.401 9.85081 169.393 9.84632 169.404 9.84969C169.417 9.85391 169.452 9.86879 169.487 9.90708C169.524 9.9465 169.539 9.98815 169.544 10.0137C169.549 10.0351 169.545 10.0374 169.549 10.0108L168.594 9.86397C168.563 10.0685 168.576 10.3435 168.778 10.562C168.972 10.7721 169.237 10.8164 169.437 10.8164V9.85081ZM169.553 9.96493L169.614 8.89815L168.65 8.84306L168.589 9.90984L169.553 9.96493ZM169.614 8.9055C169.719 7.45531 169.5 6.27381 168.831 5.48085L168.093 6.10354C168.521 6.61103 168.749 7.48181 168.651 8.83571L169.614 8.9055ZM168.831 5.48085C168.19 4.7215 167.354 4.33405 166.359 4.33405V5.29966C167.07 5.29966 167.636 5.56244 168.093 6.10354L168.831 5.48085ZM166.359 4.33405C165.452 4.33405 164.691 4.47785 164.162 4.84804L164.715 5.6391C164.999 5.44033 165.518 5.29966 166.359 5.29966V4.33405ZM164.162 4.84804C163.639 5.21415 163.31 5.76376 163.146 6.44089L164.085 6.66747C164.206 6.16606 164.426 5.84193 164.715 5.6391L164.162 4.84804ZM163.145 6.44649L161.499 13.6396L162.44 13.855L164.086 6.66187L163.145 6.44649ZM161.498 13.6461C161.455 13.8443 161.441 14.128 161.628 14.3656C161.818 14.6071 162.1 14.6568 162.305 14.6568V13.6912C162.271 13.6912 162.27 13.6866 162.287 13.6929C162.309 13.7007 162.351 13.7222 162.387 13.769C162.424 13.8153 162.434 13.8589 162.436 13.8769C162.438 13.8914 162.434 13.8848 162.442 13.8485L161.498 13.6461ZM162.305 14.6568H163.433V13.6912H162.305V14.6568ZM163.433 14.6568C163.963 14.6568 164.447 14.5098 164.861 14.205C165.271 13.9041 165.587 13.4703 165.824 12.9384L164.943 12.5445C164.754 12.9677 164.53 13.2501 164.29 13.4267C164.055 13.5995 163.776 13.6912 163.433 13.6912V14.6568ZM165.82 12.9466L166.521 11.4531L165.647 11.0428L164.946 12.5363L165.82 12.9466ZM166.516 11.4639C166.566 11.3647 166.599 11.3244 166.609 11.3151L165.926 10.6323C165.813 10.7449 165.725 10.8874 165.653 11.0321L166.516 11.4639ZM166.654 11.2634C166.635 11.2876 166.608 11.3098 166.578 11.3234C166.55 11.3359 166.534 11.3346 166.542 11.3346V10.369C166.302 10.369 166.052 10.4562 165.881 10.684L166.654 11.2634ZM166.542 11.3346C166.508 11.3346 166.476 11.3251 166.452 11.3119C166.431 11.3004 166.428 11.2924 166.439 11.3058L167.193 10.7026C167.048 10.5214 166.829 10.369 166.542 10.369V11.3346ZM166.475 11.3456C166.459 11.3296 166.444 11.3102 166.434 11.2887C166.423 11.2674 166.418 11.2488 166.416 11.2359C166.412 11.2127 166.418 11.2143 166.409 11.2528L167.345 11.487C167.406 11.2422 167.408 10.9137 167.157 10.6628L166.475 11.3456ZM166.407 11.2603L164.822 18.0572L165.762 18.2765L167.347 11.4796L166.407 11.2603ZM164.829 18.0306C164.81 18.0948 164.791 18.1414 164.774 18.1742C164.757 18.2071 164.745 18.2212 164.742 18.2245C164.74 18.2269 164.747 18.2193 164.763 18.2119C164.781 18.2041 164.796 18.2022 164.804 18.2022V19.1678C165.058 19.1678 165.279 19.063 165.445 18.8863C165.599 18.7235 165.693 18.5141 165.755 18.303L164.829 18.0306ZM164.804 18.2022C164.786 18.2022 164.79 18.1995 164.808 18.2061C164.829 18.2137 164.858 18.23 164.885 18.2584C164.938 18.3156 164.921 18.3555 164.921 18.2887H163.956C163.956 18.4861 164 18.7241 164.175 18.9134C164.357 19.11 164.598 19.1678 164.804 19.1678V18.2022ZM164.921 18.2887V16.8257H163.956V18.2887H164.921ZM164.921 16.8257C164.921 16.4526 164.898 16.1243 164.844 15.8491C164.792 15.5822 164.702 15.3191 164.538 15.1179L163.791 15.7294C163.809 15.7518 163.857 15.8341 163.896 16.0345C163.934 16.2267 163.956 16.4876 163.956 16.8257H164.921ZM164.538 15.1179C164.219 14.7282 163.713 14.6056 163.189 14.6056V15.5712C163.6 15.5712 163.744 15.6721 163.791 15.7294L164.538 15.1179ZM163.189 14.6056H162.092V15.5712H163.189V14.6056ZM162.092 14.6056C161.866 14.6056 161.629 14.6587 161.429 14.814C161.227 14.9712 161.119 15.1898 161.071 15.4139L162.015 15.6163C162.022 15.585 162.029 15.5711 162.031 15.568C162.032 15.566 162.029 15.5707 162.022 15.5762C162.006 15.5892 162.013 15.5712 162.092 15.5712V14.6056ZM161.073 15.4049L159.122 23.7258L160.062 23.9462L162.013 15.6253L161.073 15.4049ZM159.123 23.7241C159.067 23.9596 159.033 24.1821 159.033 24.3846C159.033 24.5841 159.066 24.7963 159.17 24.9848L160.014 24.5159C160.018 24.5215 159.999 24.4899 159.999 24.3846C159.999 24.2823 160.016 24.139 160.062 23.9478L159.123 23.7241ZM159.183 25.0062C159.303 25.1989 159.487 25.3197 159.665 25.398C159.845 25.4772 160.055 25.529 160.283 25.5631L160.426 24.6082C160.247 24.5813 160.127 24.5467 160.053 24.5142C159.977 24.4807 159.983 24.4644 160.002 24.4945L159.183 25.0062ZM160.291 25.5643L161.907 25.7776L162.033 24.8203L160.418 24.607L160.291 25.5643ZM161.93 25.7801C161.994 25.7855 161.966 25.7977 161.918 25.7539C161.892 25.7306 161.873 25.7017 161.862 25.6733C161.852 25.647 161.853 25.6313 161.853 25.6342H162.818C162.818 25.4306 162.753 25.2098 162.57 25.0421C162.401 24.8866 162.189 24.8328 162.01 24.8178L161.93 25.7801ZM161.853 25.6342C161.853 25.6383 161.852 25.6187 161.867 25.5881C161.882 25.555 161.906 25.5294 161.928 25.5141C161.946 25.501 161.953 25.5026 161.933 25.5072C161.914 25.5118 161.877 25.5172 161.817 25.5172V26.4828C162.032 26.4828 162.28 26.4476 162.484 26.303C162.72 26.1367 162.818 25.8854 162.818 25.6342H161.853ZM161.817 25.5172H155.386V26.4828H161.817V25.5172ZM172.459 25.299L172.379 24.8226L172.37 24.8244L172.459 25.299ZM173.739 25.0856L173.667 24.6081L173.659 24.6094L173.739 25.0856ZM174.653 24.7808L174.93 25.1764L174.943 25.1675L174.955 25.1578L174.653 24.7808ZM175.08 23.8969L174.61 23.788L174.607 23.7972L174.606 23.8066L175.08 23.8969ZM179.317 5.60932L179.787 5.7183L179.789 5.71048L179.317 5.60932ZM179.225 4.99973L178.854 5.30882L178.868 5.32564L178.884 5.34113L179.225 4.99973ZM176.208 5.67028L176.478 6.07046L176.48 6.06898L176.208 5.67028ZM174.013 8.77917L173.569 8.5897L173.568 8.59182L174.013 8.77917ZM173.525 9.93739L173.08 9.75003L173.078 9.75701L173.075 9.76407L173.525 9.93739ZM172.733 9.81547L173.196 9.95172L173.198 9.94403L172.733 9.81547ZM174.257 4.29871L174.722 4.42728L174.724 4.42058L174.257 4.29871ZM175.354 3.7196L175.053 4.09661L175.093 4.12856L175.138 4.15144L175.354 3.7196ZM185.534 3.93296L185.417 3.46451L185.41 3.46645L185.534 3.93296ZM186.235 3.7196L186.426 4.16337L186.439 4.15778L186.451 4.15144L186.235 3.7196ZM187.028 4.29871L186.556 4.19615L186.554 4.20536L186.552 4.21465L187.028 4.29871ZM186.052 9.81547L185.577 9.73141L185.577 9.73157L186.052 9.81547ZM185.199 9.93739L185.676 10.0108L185.679 9.99342L185.68 9.97589L185.199 9.93739ZM185.26 9.1754L184.779 9.13638L184.779 9.1369L185.26 9.1754ZM184.681 5.88363L184.288 6.16429L184.292 6.16964L184.681 5.88363ZM181.724 4.99973L181.435 4.61349L181.422 4.62292L181.41 4.63316L181.724 4.99973ZM181.42 5.60932L181.89 5.7183L181.892 5.71048L181.42 5.60932ZM177.183 23.8969L177.653 24.0088L177.653 24.0059L177.183 23.8969ZM177.213 24.7808L176.827 25.0705L176.848 25.098L176.872 25.1222L177.213 24.7808ZM178.006 25.0856L177.931 25.5625L177.935 25.5632L178.006 25.0856ZM179.438 25.299L179.367 25.7765L179.381 25.7785L179.395 25.7798L179.438 25.299ZM172.398 25.5172C172.354 25.5172 172.331 25.5131 172.323 25.5113C172.315 25.5095 172.332 25.5121 172.358 25.5309C172.388 25.5519 172.416 25.5841 172.435 25.6244C172.453 25.6621 172.454 25.6899 172.454 25.6952H171.488C171.488 25.9237 171.577 26.1596 171.797 26.3167C171.987 26.4524 172.213 26.4828 172.398 26.4828V25.5172ZM172.454 25.6952C172.454 25.7107 172.45 25.7372 172.436 25.7668C172.422 25.7959 172.405 25.8125 172.397 25.8185C172.392 25.8232 172.397 25.8173 172.423 25.8069C172.449 25.7967 172.489 25.7845 172.548 25.7735L172.37 24.8244C172.169 24.862 171.958 24.9312 171.788 25.069C171.598 25.2235 171.488 25.4431 171.488 25.6952H172.454ZM172.538 25.7752L173.818 25.5619L173.659 24.6094L172.379 24.8227L172.538 25.7752ZM173.81 25.5631C174.248 25.4974 174.638 25.3807 174.93 25.1764L174.376 24.3853C174.262 24.4654 174.042 24.5519 173.667 24.6082L173.81 25.5631ZM174.955 25.1578C175.291 24.8888 175.465 24.4571 175.554 23.9873L174.606 23.8066C174.533 24.1902 174.422 24.3478 174.352 24.4038L174.955 25.1578ZM175.55 24.0059L179.787 5.71828L178.846 5.50036L174.61 23.788L175.55 24.0059ZM179.789 5.71048C179.86 5.3772 179.867 4.95839 179.566 4.65834L178.884 5.34113C178.858 5.31584 178.859 5.29561 178.862 5.31519C178.866 5.34082 178.867 5.40097 178.844 5.50816L179.789 5.71048ZM179.596 4.69065C179.451 4.51707 179.251 4.43606 179.083 4.39418C178.908 4.35047 178.707 4.33405 178.494 4.33405V5.29966C178.666 5.29966 178.78 5.31372 178.849 5.33097C178.925 5.35005 178.897 5.36048 178.854 5.30882L179.596 4.69065ZM178.494 4.33405C177.67 4.33405 176.814 4.6718 175.935 5.27158L176.48 6.06898C177.268 5.53086 177.935 5.29966 178.494 5.29966V4.33405ZM175.938 5.2701C175.011 5.89545 174.233 7.03274 173.569 8.5897L174.457 8.96864C175.093 7.47767 175.779 6.54236 176.478 6.07045L175.938 5.2701ZM173.568 8.59182L173.08 9.75003L173.97 10.1247L174.458 8.96653L173.568 8.59182ZM173.075 9.76407C173.047 9.83751 173.024 9.85324 173.026 9.85104C173.027 9.85081 173.028 9.8502 173.029 9.84954C173.03 9.84889 173.031 9.84862 173.031 9.84863C173.031 9.84865 173.029 9.84916 173.026 9.84969C173.022 9.85023 173.016 9.85081 173.007 9.85081V10.8164C173.222 10.8164 173.432 10.7563 173.613 10.6181C173.789 10.4838 173.903 10.3014 173.976 10.1107L173.075 9.76407ZM173.007 9.85081C172.981 9.85081 172.996 9.84631 173.032 9.86252C173.075 9.88245 173.122 9.92193 173.152 9.97818C173.178 10.0272 173.176 10.0602 173.176 10.0516C173.176 10.0428 173.179 10.0116 173.196 9.9517L172.27 9.67924C172.21 9.88117 172.161 10.1696 172.299 10.43C172.463 10.7413 172.777 10.8164 173.007 10.8164V9.85081ZM173.198 9.94403L174.722 4.42727L173.792 4.17015L172.268 9.68691L173.198 9.94403ZM174.724 4.42058C174.774 4.23014 174.831 4.14188 174.865 4.10667C174.879 4.09147 174.888 4.08717 174.892 4.08569C174.895 4.08418 174.905 4.08049 174.927 4.08049V3.11488C174.634 3.11488 174.371 3.22657 174.167 3.43921C173.977 3.63768 173.862 3.89992 173.79 4.17684L174.724 4.42058ZM174.927 4.08049C175.044 4.08049 175.065 4.10686 175.053 4.09661L175.656 3.34259C175.44 3.16979 175.176 3.11488 174.927 3.11488V4.08049ZM175.138 4.15144C175.297 4.23102 175.522 4.31155 175.791 4.39441L176.075 3.4715C175.816 3.3918 175.655 3.3301 175.57 3.28776L175.138 4.15144ZM175.791 4.39441C176.132 4.4991 176.654 4.53768 177.305 4.53768V3.57207C176.655 3.57207 176.263 3.52937 176.075 3.4715L175.791 4.39441ZM177.305 4.53768H184.102V3.57207H177.305V4.53768ZM184.102 4.53768C184.759 4.53768 185.29 4.49784 185.659 4.39946L185.41 3.46645C185.169 3.53063 184.745 3.57207 184.102 3.57207V4.53768ZM185.651 4.40135C185.98 4.31929 186.245 4.24059 186.426 4.16337L186.045 3.27583C185.941 3.32052 185.739 3.38406 185.417 3.46456L185.651 4.40135ZM186.451 4.15144C186.577 4.08858 186.643 4.08049 186.662 4.08049V3.11488C186.437 3.11488 186.219 3.18806 186.019 3.28777L186.451 4.15144ZM186.662 4.08049C186.697 4.08049 186.69 4.08666 186.663 4.07333C186.649 4.06631 186.633 4.05544 186.617 4.04011C186.602 4.02481 186.591 4.00913 186.585 3.99627C186.572 3.97221 186.578 3.96834 186.579 4.006C186.581 4.04323 186.576 4.10475 186.556 4.19615L187.5 4.40127C187.557 4.137 187.582 3.82076 187.441 3.54961C187.27 3.22273 186.949 3.11488 186.662 3.11488V4.08049ZM186.552 4.21465L185.577 9.73141L186.528 9.89952L187.503 4.38276L186.552 4.21465ZM185.577 9.73157C185.557 9.84753 185.528 9.87086 185.536 9.86269C185.541 9.85739 185.549 9.8522 185.556 9.84958C185.562 9.84749 185.557 9.85081 185.534 9.85081V10.8164C185.782 10.8164 186.027 10.7373 186.219 10.5455C186.399 10.3646 186.487 10.1288 186.528 9.89937L185.577 9.73157ZM185.534 9.85081C185.469 9.85081 185.546 9.83361 185.621 9.9227C185.695 10.0101 185.666 10.0799 185.676 10.0108L184.722 9.86397C184.692 10.059 184.698 10.3269 184.884 10.5464C185.071 10.7676 185.336 10.8164 185.534 10.8164V9.85081ZM185.68 9.97589L185.741 9.2139L184.779 9.1369L184.718 9.89889L185.68 9.97589ZM185.741 9.21442C185.866 7.67449 185.683 6.43102 185.07 5.59762L184.292 6.16964C184.695 6.71798 184.898 7.66902 184.779 9.13638L185.741 9.21442ZM185.074 5.60301C184.47 4.75817 183.609 4.33405 182.547 4.33405V5.29966C183.314 5.29966 183.875 5.58673 184.288 6.16426L185.074 5.60301ZM182.547 4.33405C182.137 4.33405 181.728 4.39348 181.435 4.61349L182.014 5.38598C182.046 5.36215 182.185 5.29966 182.547 5.29966V4.33405ZM181.41 4.63316C181.154 4.85263 181.019 5.174 180.948 5.50816L181.892 5.71048C181.942 5.47569 182.01 5.39067 182.039 5.36631L181.41 4.63316ZM180.949 5.50036L176.713 23.788L177.653 24.0059L181.89 5.71828L180.949 5.50036ZM176.713 23.7851C176.657 24.0222 176.625 24.2486 176.632 24.4546C176.639 24.6581 176.686 24.8819 176.827 25.0705L177.6 24.4911C177.619 24.5172 177.6 24.5124 177.597 24.4213C177.594 24.3327 177.607 24.1984 177.653 24.0088L176.713 23.7851ZM176.872 25.1222C177.128 25.3783 177.524 25.4983 177.931 25.5625L178.081 24.6087C177.716 24.551 177.583 24.4678 177.555 24.4394L176.872 25.1222ZM177.935 25.5632L179.367 25.7765L179.51 24.8214L178.077 24.6081L177.935 25.5632ZM179.395 25.7798C179.44 25.784 179.4 25.7911 179.348 25.7394C179.323 25.7137 179.306 25.6848 179.298 25.6605C179.29 25.6382 179.291 25.627 179.291 25.6342H180.257C180.257 25.4429 180.202 25.2269 180.031 25.0566C179.868 24.8932 179.66 24.8343 179.482 24.8182L179.395 25.7798ZM179.291 25.6342C179.291 25.6421 179.29 25.6261 179.302 25.5982C179.316 25.5674 179.338 25.5405 179.362 25.5223C179.384 25.5062 179.395 25.5055 179.382 25.5087C179.369 25.5121 179.339 25.5172 179.286 25.5172V26.4828C179.495 26.4828 179.74 26.4461 179.941 26.2948C180.169 26.124 180.257 25.874 180.257 25.6342H179.291ZM179.286 25.5172H172.398V26.4828H179.286V25.5172Z" fill="black" mask="url(#path-2-outside-1_265_1679)"/>
</svg>
