<svg width="64" height="51" viewBox="0 0 64 51" fill="none" xmlns="http://www.w3.org/2000/svg">
<path d="M17.4126 5.72092C17.7757 5.39634 18.0865 4.99748 18.3451 4.52436C18.6037 4.04574 18.733 3.59462 18.733 3.17101C18.733 2.7474 18.6504 2.40356 18.4854 2.13949C18.3259 1.87543 18.1361 1.74339 17.916 1.74339C17.6959 1.74339 17.4209 1.91394 17.0908 2.25502C16.7607 2.59611 16.4636 3.04448 16.1996 3.60012C15.9355 4.15026 15.8035 4.6784 15.8035 5.18453C15.8035 5.48711 15.8695 5.73467 16.0015 5.92722C16.1335 6.11427 16.2876 6.2078 16.4636 6.2078C16.7387 6.2078 17.055 6.0455 17.4126 5.72092ZM16.4141 6.85971C16.051 6.85971 15.7319 6.68092 15.4569 6.32333C15.1873 5.96573 15.0525 5.60264 15.0525 5.23404C15.0525 4.73341 15.1433 4.22453 15.3248 3.7074C15.5119 3.19027 15.7429 2.73915 16.018 2.35405C16.2986 1.96895 16.6067 1.65537 16.9423 1.41331C17.2778 1.16574 17.5887 1.04196 17.8747 1.04196C18.3369 1.04196 18.722 1.25377 19.03 1.67738C19.3381 2.09548 19.4922 2.56861 19.4922 3.09674C19.4922 3.62488 19.3464 4.18052 19.0548 4.76367C18.7632 5.34132 18.3726 5.83645 17.883 6.24906C17.3989 6.65616 16.9092 6.85971 16.4141 6.85971ZM22.3497 3.01422C22.3717 2.9262 22.3937 2.86568 22.4157 2.83267C22.4377 2.79967 22.4845 2.78316 22.556 2.78316C22.633 2.78316 22.7238 2.85468 22.8283 2.99772C22.9384 3.14075 22.9934 3.27829 22.9934 3.41032C22.9934 3.48184 22.8724 3.90545 22.6303 4.68115C22.3882 5.45685 22.2012 6.07301 22.0691 6.52963C22.0031 6.76069 21.9096 6.87622 21.7886 6.87622C21.7171 6.87622 21.6565 6.84596 21.607 6.78544C21.5575 6.72493 21.5328 6.6149 21.5328 6.45536C21.5328 6.29582 21.596 6.00699 21.7226 5.58889C21.4915 5.96298 21.2412 6.27106 20.9716 6.51312C20.702 6.75519 20.4545 6.87622 20.2289 6.87622C20.0089 6.87622 19.7998 6.77169 19.6018 6.56264C19.4037 6.35358 19.3047 6.13903 19.3047 5.91897C19.3047 5.39634 19.456 4.74442 19.7586 3.96322C20.0666 3.17651 20.3224 2.78316 20.526 2.78316C20.625 2.78316 20.7103 2.82992 20.7818 2.92345C20.8588 3.01147 20.8973 3.11325 20.8973 3.22878C20.8973 3.27829 20.8231 3.45709 20.6745 3.76516C20.526 4.06774 20.3775 4.42534 20.2289 4.83794C20.0804 5.24505 20.0061 5.60264 20.0061 5.91072C20.0061 5.99874 20.0336 6.07301 20.0886 6.13353C20.1437 6.18854 20.2097 6.21605 20.2867 6.21605C20.4957 6.21605 20.7433 6.03175 21.0294 5.66315C21.321 5.29456 21.585 4.86545 21.8216 4.37582C22.0581 3.8862 22.2342 3.43233 22.3497 3.01422ZM23.4014 3.78992L23.3767 3.17101C23.3767 2.91244 23.4372 2.78316 23.5582 2.78316C23.6627 2.78316 23.7618 2.85193 23.8553 2.98946C23.9543 3.1215 24.0038 3.28104 24.0038 3.46809C24.0038 3.64963 23.9983 3.78717 23.9873 3.88069C24.4659 3.15451 24.9198 2.79141 25.3489 2.79141C25.6185 2.79141 25.7533 2.85743 25.7533 2.98946C25.7533 3.05548 25.723 3.116 25.6625 3.17101C25.602 3.22603 25.5057 3.28929 25.3737 3.36081C25.0821 3.48734 24.8345 3.68264 24.631 3.94671C24.4329 4.20528 24.2706 4.4996 24.1441 4.82969C24.0176 5.15977 23.9158 5.4376 23.8388 5.66315C23.7673 5.88871 23.7122 6.06476 23.6737 6.19129C23.6352 6.31782 23.5912 6.44161 23.5417 6.56264C23.4537 6.78269 23.3519 6.89272 23.2364 6.89272C23.1428 6.89272 23.0658 6.84046 23.0053 6.73593C22.9503 6.6259 22.9228 6.52138 22.9228 6.42235C22.9228 6.31782 22.9696 6.11427 23.0631 5.81169C23.2886 5.11851 23.4014 4.44459 23.4014 3.78992ZM29.2887 6.87622C28.9696 6.87622 28.6698 6.75244 28.3892 6.50487C28.1086 6.25181 27.9683 5.95473 27.9683 5.61364C27.9683 5.26705 28.0839 4.8682 28.3149 4.41708C28.546 3.96597 28.843 3.58087 29.2061 3.26178C29.5747 2.9427 29.9323 2.78316 30.2789 2.78316C30.5045 2.78316 30.7025 2.88494 30.8731 3.08849C31.0436 3.29204 31.1289 3.47084 31.1289 3.62488C31.1289 3.66889 31.1151 3.7074 31.0876 3.74041C31.0601 3.76792 31.0189 3.78167 30.9638 3.78167C30.9143 3.78167 30.8236 3.73216 30.6915 3.63313C30.5595 3.5341 30.4412 3.48459 30.3367 3.48459C30.0396 3.48459 29.693 3.74591 29.2969 4.26854C28.9008 4.79118 28.7028 5.2478 28.7028 5.6384C28.7028 5.80894 28.755 5.94373 28.8596 6.04275C28.9696 6.14178 29.1429 6.19129 29.3794 6.19129C29.6215 6.19129 29.8416 6.16378 30.0396 6.10877C30.2432 6.04825 30.4 5.99049 30.51 5.93548C30.62 5.87496 30.7053 5.8447 30.7658 5.8447C30.8703 5.8447 30.9226 5.89697 30.9226 6.00149C30.9226 6.16103 30.73 6.34808 30.3449 6.56264C29.9653 6.77169 29.6132 6.87622 29.2887 6.87622ZM32.7654 1.16574C32.7654 2.20001 32.5508 3.54236 32.1217 5.19278C31.8467 6.31507 31.6541 6.87622 31.5441 6.87622C31.4671 6.87622 31.3763 6.8157 31.2718 6.69467C31.1727 6.57364 31.1232 6.48012 31.1232 6.4141C31.1232 6.34808 31.203 6.00699 31.3625 5.39083C31.5221 4.77468 31.6816 4.01823 31.8412 3.1215C32.0007 2.21927 32.0805 1.40781 32.0805 0.68712C32.0805 0.6101 32.0915 0.555086 32.1135 0.522077C32.1355 0.489069 32.1822 0.472565 32.2538 0.472565C32.3253 0.472565 32.4271 0.552335 32.5591 0.711876C32.6966 0.865916 32.7654 1.01721 32.7654 1.16574ZM33.7236 1.61136C33.7236 1.50133 33.7676 1.3968 33.8556 1.29778C33.9437 1.19875 34.0317 1.14924 34.1197 1.14924C34.2132 1.14924 34.3233 1.26202 34.4498 1.48758C34.5763 1.70763 34.6396 1.89193 34.6396 2.04047C34.6396 2.09548 34.6148 2.145 34.5653 2.18901C34.5158 2.23302 34.4635 2.25502 34.4085 2.25502C34.2765 2.25502 34.128 2.17525 33.9629 2.01571C33.8034 1.85617 33.7236 1.72139 33.7236 1.61136ZM33.6823 2.78316C33.7869 2.78316 33.8859 2.84643 33.9794 2.97296C34.0729 3.09949 34.1197 3.22327 34.1197 3.34431C34.1197 3.46534 34.0399 3.82843 33.8804 4.43359C33.7209 5.03324 33.5201 5.70717 33.278 6.45536C33.1845 6.73043 33.0662 6.86797 32.9231 6.86797C32.8461 6.86797 32.7801 6.83771 32.7251 6.77719C32.6701 6.71118 32.6426 6.63966 32.6426 6.56264C32.6426 6.48012 32.6618 6.35358 32.7003 6.18304C32.7444 6.00699 32.8049 5.77593 32.8819 5.48986C32.9644 5.19828 33.0277 4.96172 33.0717 4.78018C33.1212 4.59863 33.1707 4.39508 33.2202 4.16952C33.2697 3.93846 33.3082 3.75416 33.3358 3.61663C33.3688 3.47359 33.4045 3.33055 33.443 3.18752C33.5201 2.91795 33.5998 2.78316 33.6823 2.78316ZM37.4311 4.15301C37.4311 4.44459 37.2716 4.6839 36.9525 4.87095C36.6389 5.0525 36.2813 5.14327 35.8797 5.14327C35.4836 5.14327 35.1233 5.09926 34.7987 5.01124C34.7217 5.2533 34.6832 5.47061 34.6832 5.66315C34.6832 5.8502 34.7409 5.99599 34.8565 6.10052C34.9775 6.20504 35.1728 6.25731 35.4424 6.25731C35.7174 6.25731 35.998 6.21055 36.2841 6.11702C36.5757 6.018 36.7352 5.96848 36.7627 5.96848C36.9057 5.96848 36.9773 6.0235 36.9773 6.13353C36.9773 6.28206 36.8095 6.44436 36.4739 6.6204C36.1383 6.79095 35.811 6.87622 35.4919 6.87622C35.0628 6.87622 34.7134 6.74969 34.4439 6.49662C34.1743 6.23805 34.0395 5.91347 34.0395 5.52287C34.0395 5.13227 34.144 4.72516 34.3531 4.30155C34.5621 3.87244 34.8317 3.5121 35.1618 3.22052C35.4919 2.92895 35.8192 2.78316 36.1438 2.78316C36.4684 2.78316 36.7627 2.9372 37.0268 3.24528C37.2963 3.55336 37.4311 3.85594 37.4311 4.15301ZM36.1851 3.43508C35.9815 3.43508 35.7697 3.54236 35.5496 3.75691C35.3296 3.96597 35.1425 4.22728 34.9885 4.54087C35.2086 4.59038 35.4589 4.61513 35.7394 4.61513C36.02 4.61513 36.2648 4.57112 36.4739 4.4831C36.6829 4.38958 36.7875 4.26854 36.7875 4.12001C36.7875 3.97147 36.7187 3.82018 36.5812 3.66614C36.4491 3.5121 36.3171 3.43508 36.1851 3.43508ZM38.1672 5.44035C38.6953 4.54362 39.1244 3.87794 39.4545 3.44333C39.7901 3.00322 40.0624 2.78316 40.2715 2.78316C40.486 2.78316 40.6868 2.89594 40.8739 3.1215C41.0664 3.34706 41.1627 3.58637 41.1627 3.83943C41.1627 4.23554 41.0719 4.71966 40.8904 5.29181C40.5603 6.34808 40.2632 6.87622 39.9992 6.87622C39.8781 6.87622 39.8176 6.7937 39.8176 6.62865C39.8176 6.51312 39.8754 6.27931 39.9909 5.92722C40.1119 5.56963 40.222 5.22029 40.321 4.8792C40.4255 4.53261 40.4778 4.27405 40.4778 4.1035C40.4778 3.92746 40.4503 3.79817 40.3953 3.71565C40.3457 3.63313 40.2935 3.59187 40.2385 3.59187C40.189 3.59187 40.1367 3.60837 40.0817 3.64138C40.0267 3.67439 39.9634 3.72941 39.8919 3.80643C39.8259 3.88345 39.7626 3.96047 39.7021 4.03748C39.6416 4.109 39.5645 4.21353 39.471 4.35107C39.383 4.4886 39.3087 4.60688 39.2482 4.70591C39.1877 4.79943 39.0997 4.93697 38.9841 5.11851C38.8686 5.30006 38.7806 5.4376 38.7201 5.53112C38.6596 5.62464 38.5798 5.75118 38.4808 5.91072C38.3817 6.07026 38.302 6.19404 38.2415 6.28206C38.1864 6.37009 38.1232 6.46636 38.0517 6.57089C37.9141 6.77444 37.8041 6.87622 37.7216 6.87622C37.6445 6.87622 37.5538 6.8157 37.4492 6.69467C37.3447 6.56814 37.2925 6.45811 37.2925 6.36459C37.2925 6.33708 37.3117 6.26281 37.3502 6.14178C37.4547 5.8227 37.5703 5.42934 37.6968 4.96172C37.8233 4.4886 37.8921 3.95221 37.9031 3.35256C37.9196 2.95095 37.9774 2.75015 38.0764 2.75015C38.1974 2.75015 38.3185 2.81342 38.4395 2.93995C38.5605 3.06648 38.621 3.20677 38.621 3.36081C38.621 3.50935 38.5743 3.80092 38.4808 4.23554C38.3927 4.66465 38.2882 5.06625 38.1672 5.44035ZM42.1876 6.051C42.1876 6.15553 42.2482 6.2078 42.3692 6.2078C42.5782 6.2078 42.8313 6.15003 43.1284 6.0345C43.431 5.91347 43.5988 5.85295 43.6318 5.85295C43.7308 5.85295 43.7803 5.90522 43.7803 6.00974C43.7803 6.16929 43.6153 6.35358 43.2852 6.56264C42.9606 6.77169 42.6635 6.87622 42.3939 6.87622C42.1299 6.87622 41.9098 6.8047 41.7338 6.66166C41.5577 6.51312 41.4697 6.36184 41.4697 6.2078C41.4697 6.05376 41.5027 5.85846 41.5687 5.62189C41.6348 5.37983 41.7283 5.0635 41.8493 4.6729C41.9758 4.2768 42.0749 3.94946 42.1464 3.6909C41.8878 3.75141 41.7145 3.78167 41.6265 3.78167C41.5385 3.78167 41.4505 3.73766 41.3624 3.64963C41.2799 3.55611 41.2387 3.46809 41.2387 3.38557C41.2387 3.25353 41.5962 3.127 42.3114 3.00597C42.4105 2.54935 42.46 2.145 42.46 1.79291C42.46 1.62786 42.515 1.54534 42.625 1.54534C42.7185 1.54534 42.8341 1.60586 42.9716 1.72689C43.1091 1.84242 43.1779 1.97445 43.1779 2.12299C43.1779 2.27153 43.1311 2.53285 43.0376 2.90694C43.3512 2.87944 43.6015 2.86568 43.7886 2.86568C44.1186 2.86568 44.2837 2.9372 44.2837 3.08024C44.2837 3.16276 44.1929 3.23153 44.0114 3.28654C43.8353 3.34156 43.4612 3.42683 42.8891 3.54236C42.7735 3.97697 42.6278 4.47485 42.4517 5.03599C42.2757 5.59164 42.1876 5.92997 42.1876 6.051ZM46.3196 2.78316C46.5067 2.78316 46.6827 2.88769 46.8478 3.09674C47.0128 3.30029 47.0953 3.47909 47.0953 3.63313C47.0953 3.72665 47.0513 3.77342 46.9633 3.77342C46.9028 3.77342 46.8093 3.72665 46.6827 3.63313C46.5562 3.5341 46.4269 3.48459 46.2949 3.48459C46.1629 3.48459 45.9538 3.56161 45.6677 3.71565C45.3872 3.86969 45.2469 4.03198 45.2469 4.20253C45.2469 4.32906 45.4999 4.54637 46.0061 4.85445C46.1986 4.97548 46.3719 5.13227 46.5259 5.32482C46.6855 5.51187 46.7653 5.71542 46.7653 5.93548C46.7653 6.15003 46.614 6.36184 46.3114 6.57089C46.0143 6.77444 45.665 6.87622 45.2634 6.87622C44.8673 6.87622 44.5152 6.77994 44.2071 6.58739C43.9045 6.39484 43.7532 6.2133 43.7532 6.04275C43.7532 5.97123 43.7697 5.91622 43.8027 5.87771C43.8413 5.8337 43.888 5.81169 43.943 5.81169C43.998 5.81169 44.0751 5.84745 44.1741 5.91897C44.4712 6.13353 44.7792 6.2408 45.0983 6.2408C45.4229 6.2408 45.6567 6.20504 45.7998 6.13353C45.9428 6.05651 46.0143 5.95748 46.0143 5.83645C46.0143 5.70992 45.9345 5.57788 45.775 5.44035C45.6155 5.29731 45.4394 5.17078 45.2469 5.06075C45.0598 4.95072 44.8865 4.81594 44.727 4.65639C44.5674 4.49685 44.4877 4.33456 44.4877 4.16952C44.4877 3.87794 44.716 3.57537 45.1726 3.26178C45.6347 2.9427 46.0171 2.78316 46.3196 2.78316ZM50.7688 0.794398C50.7688 0.579842 50.8348 0.472565 50.9668 0.472565C51.0713 0.472565 51.1814 0.555086 51.2969 0.720128C51.4179 0.885171 51.4785 1.04471 51.4785 1.19875C51.4785 1.55634 51.3877 2.167 51.2061 3.03072C51.0301 3.88895 50.799 4.74717 50.513 5.60539C51.0631 4.60963 51.5225 3.8917 51.8911 3.45158C52.2652 3.00597 52.5842 2.78316 52.8483 2.78316C52.9913 2.78316 53.1564 2.90694 53.3434 3.15451C53.536 3.40207 53.6323 3.64963 53.6323 3.8972C53.6323 4.14476 53.5635 4.51611 53.426 5.01124C53.0849 6.25456 52.763 6.87622 52.4605 6.87622C52.3394 6.87622 52.2789 6.7937 52.2789 6.62865C52.2789 6.46361 52.3449 6.18579 52.477 5.79519C52.7685 4.94247 52.9143 4.36757 52.9143 4.07049C52.9143 3.97147 52.8896 3.88895 52.8401 3.82293C52.7905 3.75691 52.73 3.7239 52.6585 3.7239C52.587 3.7239 52.499 3.76241 52.3944 3.83943C52.2899 3.91645 52.1634 4.05124 52.0148 4.24379C51.8278 4.49135 51.6325 4.76917 51.4289 5.07725C51.2309 5.38533 51.1099 5.57238 51.0658 5.6384C51.0273 5.69891 50.9558 5.81169 50.8513 5.97674C50.7523 6.14178 50.678 6.26556 50.6285 6.34808C50.579 6.4251 50.5185 6.51037 50.4469 6.6039C50.3204 6.78544 50.2241 6.87622 50.1581 6.87622C50.0921 6.87622 50.0041 6.8157 49.894 6.69467C49.784 6.56814 49.729 6.46361 49.729 6.38109C49.729 6.29307 49.7593 6.13078 49.8198 5.89421C50.0948 4.83794 50.2681 4.1145 50.3397 3.7239C50.6257 2.29353 50.7688 1.31703 50.7688 0.794398ZM55.9192 2.78316C56.1668 2.78316 56.3951 2.90969 56.6041 3.16276C56.8132 3.41032 56.9177 3.63588 56.9177 3.83943C56.9177 4.03749 56.8489 4.24104 56.7114 4.45009C56.7774 4.53261 56.8104 4.60413 56.8104 4.66465C56.8104 4.81869 56.7747 5.08275 56.7031 5.45685C56.6371 5.83095 56.5959 6.07576 56.5794 6.19129C56.5684 6.30682 56.5574 6.40035 56.5464 6.47186C56.5353 6.53788 56.5216 6.6039 56.5051 6.66991C56.4831 6.80745 56.4336 6.87622 56.3566 6.87622C56.2575 6.87622 56.175 6.79095 56.109 6.6204C56.0485 6.44436 56.0127 6.2188 56.0017 5.94373C55.5121 6.56539 55.0582 6.87622 54.6401 6.87622C54.387 6.87622 54.1367 6.76894 53.8892 6.55438C53.6471 6.33433 53.5261 6.10877 53.5261 5.87771C53.5261 5.54762 53.6471 5.14052 53.8892 4.65639C54.1312 4.16677 54.4448 3.73216 54.8299 3.35256C55.215 2.97296 55.5781 2.78316 55.9192 2.78316ZM56.2988 4.23554C56.2988 3.7239 56.197 3.46809 55.9935 3.46809C55.7789 3.46809 55.5286 3.62213 55.2425 3.93021C54.9564 4.23279 54.7144 4.57662 54.5163 4.96172C54.3183 5.34682 54.2193 5.65215 54.2193 5.87771C54.2193 5.97123 54.2578 6.04825 54.3348 6.10877C54.4118 6.16378 54.5026 6.19129 54.6071 6.19129C54.8657 6.19129 55.1572 6.018 55.4818 5.67141C55.8064 5.31932 56.032 4.89296 56.1585 4.39233C56.175 4.30981 56.2218 4.26029 56.2988 4.24379V4.23554ZM59.9442 2.78316C60.0377 2.78316 60.1285 2.81892 60.2165 2.89044C60.3045 2.95646 60.3485 3.03073 60.3485 3.11325C60.3485 3.26178 60.1477 3.77617 59.7461 4.65639C59.35 5.53662 59.0667 6.13078 58.8961 6.43886C58.7311 6.74143 58.5853 6.89272 58.4588 6.89272C58.3873 6.89272 58.2992 6.84046 58.1947 6.73593C58.0902 6.6314 58.0132 6.51863 57.9637 6.39759C57.8151 6.051 57.6556 5.49261 57.485 4.72241C57.3145 3.95221 57.2292 3.38832 57.2292 3.03072C57.2292 2.86568 57.2787 2.78316 57.3778 2.78316C57.4988 2.78316 57.6226 2.83542 57.7491 2.93995C57.8756 3.03898 57.9637 3.16551 58.0132 3.31955C58.0297 3.40757 58.0517 3.62763 58.0792 3.97972C58.1562 4.84894 58.2882 5.51737 58.4753 5.98499C58.6238 5.66591 58.8136 5.21479 59.0447 4.63164C59.2757 4.04299 59.4628 3.58912 59.6058 3.27004C59.7544 2.94545 59.8671 2.78316 59.9442 2.78316ZM63.376 4.15301C63.376 4.44459 63.2165 4.6839 62.8974 4.87095C62.5838 5.0525 62.2262 5.14327 61.8246 5.14327C61.4285 5.14327 61.0682 5.09926 60.7436 5.01124C60.6666 5.2533 60.6281 5.47061 60.6281 5.66315C60.6281 5.8502 60.6858 5.99599 60.8014 6.10052C60.9224 6.20504 61.1177 6.25731 61.3873 6.25731C61.6623 6.25731 61.9429 6.21055 62.229 6.11702C62.5206 6.018 62.6801 5.96848 62.7076 5.96848C62.8506 5.96848 62.9222 6.0235 62.9222 6.13353C62.9222 6.28206 62.7544 6.44436 62.4188 6.6204C62.0832 6.79095 61.7559 6.87622 61.4368 6.87622C61.0077 6.87622 60.6583 6.74969 60.3888 6.49662C60.1192 6.23805 59.9844 5.91347 59.9844 5.52287C59.9844 5.13227 60.0889 4.72516 60.298 4.30155C60.507 3.87244 60.7766 3.5121 61.1067 3.22052C61.4368 2.92895 61.7641 2.78316 62.0887 2.78316C62.4133 2.78316 62.7076 2.9372 62.9717 3.24528C63.2412 3.55336 63.376 3.85594 63.376 4.15301ZM62.13 3.43508C61.9264 3.43508 61.7146 3.54236 61.4945 3.75691C61.2745 3.96597 61.0874 4.22728 60.9334 4.54087C61.1534 4.59038 61.4038 4.61513 61.6843 4.61513C61.9649 4.61513 62.2097 4.57112 62.4188 4.4831C62.6278 4.38958 62.7324 4.26854 62.7324 4.12001C62.7324 3.97147 62.6636 3.82018 62.5261 3.66614C62.394 3.5121 62.262 3.43508 62.13 3.43508ZM6.28398 14.8762C6.20696 14.8762 6.11619 14.8185 6.01166 14.7029C5.90713 14.5819 5.85487 14.4691 5.85487 14.3646C5.85487 14.2601 5.94014 13.9025 6.11069 13.2918C6.28673 12.6812 6.46003 11.9467 6.63057 11.0885C6.80662 10.2248 6.89464 9.43531 6.89464 8.72013C6.89464 8.55509 6.95516 8.47256 7.07619 8.47256C7.16421 8.47256 7.27149 8.55509 7.39802 8.72013C7.52455 8.87967 7.58782 9.03646 7.58782 9.1905C7.58782 9.86717 7.43928 10.8327 7.1422 12.087C7.79687 11.2013 8.39103 10.7584 8.92466 10.7584C9.18323 10.7584 9.40054 10.8849 9.57658 11.138C9.75813 11.3911 9.8489 11.6936 9.8489 12.0457C9.8489 12.3923 9.74713 12.7912 9.54357 13.2423C9.34552 13.6934 9.07595 14.0813 8.73487 14.4058C8.39378 14.7249 8.03618 14.8845 7.66209 14.8845C7.28799 14.8845 6.9194 14.6947 6.5563 14.3151L6.54805 14.3233C6.42702 14.6919 6.339 14.8762 6.28398 14.8762ZM7.59607 14.2408C7.95366 14.2408 8.303 13.9987 8.64409 13.5146C8.99068 13.025 9.16398 12.5106 9.16398 11.9715C9.16398 11.6469 9.06495 11.4846 8.8669 11.4846C8.54782 11.4846 8.19022 11.7074 7.79412 12.153C7.40352 12.5986 7.06518 13.1295 6.77911 13.7457C7.03768 14.0758 7.31 14.2408 7.59607 14.2408ZM13.0622 12.153C13.0622 12.4446 12.9027 12.6839 12.5836 12.871C12.27 13.0525 11.9124 13.1433 11.5108 13.1433C11.1147 13.1433 10.7544 13.0993 10.4298 13.0112C10.3528 13.2533 10.3142 13.4706 10.3142 13.6632C10.3142 13.8502 10.372 13.996 10.4875 14.1005C10.6086 14.205 10.8039 14.2573 11.0734 14.2573C11.3485 14.2573 11.6291 14.2105 11.9152 14.117C12.2067 14.018 12.3663 13.9685 12.3938 13.9685C12.5368 13.9685 12.6083 14.0235 12.6083 14.1335C12.6083 14.2821 12.4405 14.4444 12.105 14.6204C11.7694 14.7909 11.442 14.8762 11.123 14.8762C10.6938 14.8762 10.3445 14.7497 10.0749 14.4966C9.80536 14.2381 9.67058 13.9135 9.67058 13.5229C9.67058 13.1323 9.77511 12.7252 9.98416 12.3016C10.1932 11.8724 10.4628 11.5121 10.7929 11.2205C11.123 10.9289 11.4503 10.7832 11.7749 10.7832C12.0995 10.7832 12.3938 10.9372 12.6579 11.2453C12.9274 11.5534 13.0622 11.8559 13.0622 12.153ZM11.8161 11.4351C11.6126 11.4351 11.4008 11.5424 11.1807 11.7569C10.9607 11.966 10.7736 12.2273 10.6196 12.5409C10.8396 12.5904 11.0899 12.6151 11.3705 12.6151C11.6511 12.6151 11.8959 12.5711 12.105 12.4831C12.314 12.3896 12.4185 12.2685 12.4185 12.12C12.4185 11.9715 12.3498 11.8202 12.2122 11.6661C12.0802 11.5121 11.9482 11.4351 11.8161 11.4351ZM16.2821 12.153C16.2821 12.4446 16.1226 12.6839 15.8035 12.871C15.4899 13.0525 15.1324 13.1433 14.7307 13.1433C14.3346 13.1433 13.9743 13.0993 13.6497 13.0112C13.5727 13.2533 13.5342 13.4706 13.5342 13.6632C13.5342 13.8502 13.592 13.996 13.7075 14.1005C13.8285 14.205 14.0238 14.2573 14.2934 14.2573C14.5685 14.2573 14.849 14.2105 15.1351 14.117C15.4267 14.018 15.5862 13.9685 15.6137 13.9685C15.7568 13.9685 15.8283 14.0235 15.8283 14.1335C15.8283 14.2821 15.6605 14.4444 15.3249 14.6204C14.9893 14.7909 14.662 14.8762 14.3429 14.8762C13.9138 14.8762 13.5644 14.7497 13.2949 14.4966C13.0253 14.2381 12.8905 13.9135 12.8905 13.5229C12.8905 13.1323 12.995 12.7252 13.2041 12.3016C13.4132 11.8724 13.6827 11.5121 14.0128 11.2205C14.3429 10.9289 14.6702 10.7832 14.9948 10.7832C15.3194 10.7832 15.6137 10.9372 15.8778 11.2453C16.1474 11.5534 16.2821 11.8559 16.2821 12.153ZM15.0361 11.4351C14.8325 11.4351 14.6207 11.5424 14.4007 11.7569C14.1806 11.966 13.9936 12.2273 13.8395 12.5409C14.0596 12.5904 14.3099 12.6151 14.5905 12.6151C14.871 12.6151 15.1158 12.5711 15.3249 12.4831C15.534 12.3896 15.6385 12.2685 15.6385 12.12C15.6385 11.9715 15.5697 11.8202 15.4322 11.6661C15.3001 11.5121 15.1681 11.4351 15.0361 11.4351ZM17.0182 13.4403C17.5463 12.5436 17.9754 11.8779 18.3055 11.4433C18.6411 11.0032 18.9134 10.7832 19.1225 10.7832C19.337 10.7832 19.5378 10.8959 19.7249 11.1215C19.9174 11.3471 20.0137 11.5864 20.0137 11.8394C20.0137 12.2355 19.9229 12.7197 19.7414 13.2918C19.4113 14.3481 19.1142 14.8762 18.8502 14.8762C18.7291 14.8762 18.6686 14.7937 18.6686 14.6287C18.6686 14.5131 18.7264 14.2793 18.8419 13.9272C18.963 13.5696 19.073 13.2203 19.172 12.8792C19.2765 12.5326 19.3288 12.274 19.3288 12.1035C19.3288 11.9275 19.3013 11.7982 19.2463 11.7157C19.1968 11.6331 19.1445 11.5919 19.0895 11.5919C19.04 11.5919 18.9877 11.6084 18.9327 11.6414C18.8777 11.6744 18.8144 11.7294 18.7429 11.8064C18.6769 11.8834 18.6136 11.9605 18.5531 12.0375C18.4926 12.109 18.4156 12.2135 18.322 12.3511C18.234 12.4886 18.1597 12.6069 18.0992 12.7059C18.0387 12.7994 17.9507 12.937 17.8352 13.1185C17.7196 13.3001 17.6316 13.4376 17.5711 13.5311C17.5106 13.6246 17.4308 13.7512 17.3318 13.9107C17.2328 14.0703 17.153 14.194 17.0925 14.2821C17.0375 14.3701 16.9742 14.4664 16.9027 14.5709C16.7651 14.7744 16.6551 14.8762 16.5726 14.8762C16.4956 14.8762 16.4048 14.8157 16.3003 14.6947C16.1957 14.5681 16.1435 14.4581 16.1435 14.3646C16.1435 14.3371 16.1627 14.2628 16.2012 14.1418C16.3058 13.8227 16.4213 13.4293 16.5478 12.9617C16.6744 12.4886 16.7431 11.9522 16.7541 11.3526C16.7706 10.951 16.8284 10.7502 16.9274 10.7502C17.0485 10.7502 17.1695 10.8134 17.2905 10.94C17.4116 11.0665 17.4721 11.2068 17.4721 11.3608C17.4721 11.5093 17.4253 11.8009 17.3318 12.2355C17.2438 12.6646 17.1392 13.0663 17.0182 13.4403ZM23.5256 14.8927C23.4541 14.8927 23.377 14.8405 23.2945 14.7359C23.212 14.6314 23.1707 14.5461 23.1707 14.4801C23.1707 14.4141 23.1982 14.2848 23.2533 14.0923C23.5283 13.102 23.7154 12.3951 23.8144 11.9715C23.5778 12.0265 23.4156 12.054 23.3275 12.054C23.2395 12.054 23.1515 12.0155 23.0635 11.9385C22.9754 11.8614 22.9314 11.7762 22.9314 11.6826C22.9314 11.5891 23.0552 11.5066 23.3028 11.4351C23.6219 11.3581 23.8419 11.3085 23.9629 11.2865C24.018 11.0225 24.0592 10.8189 24.0867 10.6759C24.2188 9.91669 24.3976 9.3693 24.6231 9.03371C24.8487 8.69812 25.154 8.53033 25.5391 8.53033C25.8142 8.53033 26.0397 8.64036 26.2158 8.86041C26.3918 9.07497 26.4798 9.33079 26.4798 9.62786C26.4798 9.91944 26.4028 10.0652 26.2488 10.0652C26.1168 10.0652 26.0095 9.91669 25.927 9.61961C25.8994 9.50958 25.8527 9.40781 25.7867 9.31428C25.7206 9.22076 25.6409 9.174 25.5474 9.174C25.4538 9.174 25.3686 9.21801 25.2915 9.30603C25.2145 9.38855 25.1458 9.50958 25.0852 9.66912C24.9257 10.1147 24.8157 10.5218 24.7552 10.8904L24.6891 11.1793C24.8927 11.1518 25.0935 11.138 25.2915 11.138C25.4951 11.138 25.6409 11.16 25.7289 11.204C25.8224 11.248 25.8692 11.303 25.8692 11.3691C25.8692 11.4736 25.7784 11.5534 25.5969 11.6084C25.4153 11.6634 25.0605 11.7349 24.5323 11.8229C24.1417 13.4073 23.8749 14.3508 23.7319 14.6534C23.6549 14.813 23.5861 14.8927 23.5256 14.8927ZM28.8315 12.153C28.8315 12.4446 28.672 12.6839 28.3529 12.871C28.0393 13.0525 27.6817 13.1433 27.2801 13.1433C26.884 13.1433 26.5237 13.0993 26.1991 13.0112C26.1221 13.2533 26.0836 13.4706 26.0836 13.6632C26.0836 13.8502 26.1413 13.996 26.2568 14.1005C26.3779 14.205 26.5732 14.2573 26.8427 14.2573C27.1178 14.2573 27.3984 14.2105 27.6845 14.117C27.976 14.018 28.1356 13.9685 28.1631 13.9685C28.3061 13.9685 28.3776 14.0235 28.3776 14.1335C28.3776 14.2821 28.2099 14.4444 27.8743 14.6204C27.5387 14.7909 27.2113 14.8762 26.8923 14.8762C26.4631 14.8762 26.1138 14.7497 25.8442 14.4966C25.5747 14.2381 25.4399 13.9135 25.4399 13.5229C25.4399 13.1323 25.5444 12.7252 25.7535 12.3016C25.9625 11.8724 26.2321 11.5121 26.5622 11.2205C26.8923 10.9289 27.2196 10.7832 27.5442 10.7832C27.8688 10.7832 28.1631 10.9372 28.4272 11.2453C28.6967 11.5534 28.8315 11.8559 28.8315 12.153ZM27.5854 11.4351C27.3819 11.4351 27.1701 11.5424 26.95 11.7569C26.73 11.966 26.5429 12.2273 26.3889 12.5409C26.6089 12.5904 26.8593 12.6151 27.1398 12.6151C27.4204 12.6151 27.6652 12.5711 27.8743 12.4831C28.0833 12.3896 28.1878 12.2685 28.1878 12.12C28.1878 11.9715 28.1191 11.8202 27.9815 11.6661C27.8495 11.5121 27.7175 11.4351 27.5854 11.4351ZM30.9539 10.7832C31.2015 10.7832 31.4298 10.9097 31.6388 11.1628C31.8479 11.4103 31.9524 11.6359 31.9524 11.8394C31.9524 12.0375 31.8837 12.241 31.7461 12.4501C31.8121 12.5326 31.8451 12.6041 31.8451 12.6646C31.8451 12.8187 31.8094 13.0828 31.7379 13.4569C31.6719 13.8309 31.6306 14.0758 31.6141 14.1913C31.6031 14.3068 31.5921 14.4003 31.5811 14.4719C31.5701 14.5379 31.5563 14.6039 31.5398 14.6699C31.5178 14.8075 31.4683 14.8762 31.3913 14.8762C31.2923 14.8762 31.2097 14.7909 31.1437 14.6204C31.0832 14.4444 31.0474 14.2188 31.0364 13.9437C30.5468 14.5654 30.0929 14.8762 29.6748 14.8762C29.4218 14.8762 29.1715 14.7689 28.9239 14.5544C28.6818 14.3343 28.5608 14.1088 28.5608 13.8777C28.5608 13.5476 28.6818 13.1405 28.9239 12.6564C29.166 12.1668 29.4795 11.7322 29.8646 11.3526C30.2497 10.973 30.6128 10.7832 30.9539 10.7832ZM31.3335 12.2355C31.3335 11.7239 31.2317 11.4681 31.0282 11.4681C30.8136 11.4681 30.5633 11.6221 30.2772 11.9302C29.9912 12.2328 29.7491 12.5766 29.5511 12.9617C29.353 13.3468 29.254 13.6522 29.254 13.8777C29.254 13.9712 29.2925 14.0483 29.3695 14.1088C29.4465 14.1638 29.5373 14.1913 29.6418 14.1913C29.9004 14.1913 30.192 14.018 30.5166 13.6714C30.8411 13.3193 31.0667 12.893 31.1932 12.3923C31.2097 12.3098 31.2565 12.2603 31.3335 12.2438V12.2355ZM33.0561 14.051C33.0561 14.1555 33.1167 14.2078 33.2377 14.2078C33.4468 14.2078 33.6998 14.15 33.9969 14.0345C34.2995 13.9135 34.4673 13.853 34.5003 13.853C34.5993 13.853 34.6488 13.9052 34.6488 14.0097C34.6488 14.1693 34.4838 14.3536 34.1537 14.5626C33.8291 14.7717 33.532 14.8762 33.2625 14.8762C32.9984 14.8762 32.7783 14.8047 32.6023 14.6617C32.4262 14.5131 32.3382 14.3618 32.3382 14.2078C32.3382 14.0538 32.3712 13.8585 32.4372 13.6219C32.5033 13.3798 32.5968 13.0635 32.7178 12.6729C32.8443 12.2768 32.9434 11.9495 33.0149 11.6909C32.7563 11.7514 32.583 11.7817 32.495 11.7817C32.407 11.7817 32.319 11.7377 32.2309 11.6496C32.1484 11.5561 32.1072 11.4681 32.1072 11.3856C32.1072 11.2535 32.4647 11.127 33.1799 11.006C33.279 10.5494 33.3285 10.145 33.3285 9.79291C33.3285 9.62786 33.3835 9.54534 33.4935 9.54534C33.587 9.54534 33.7026 9.60586 33.8401 9.72689C33.9776 9.84242 34.0464 9.97445 34.0464 10.123C34.0464 10.2715 33.9996 10.5328 33.9061 10.9069C34.2197 10.8794 34.47 10.8657 34.6571 10.8657C34.9871 10.8657 35.1522 10.9372 35.1522 11.0802C35.1522 11.1628 35.0614 11.2315 34.8799 11.2865C34.7038 11.3416 34.3297 11.4268 33.7576 11.5424C33.6421 11.977 33.4963 12.4748 33.3202 13.036C33.1442 13.5916 33.0561 13.93 33.0561 14.051ZM37.7493 11.0142C37.7713 10.9262 37.7933 10.8657 37.8153 10.8327C37.8373 10.7997 37.8841 10.7832 37.9556 10.7832C38.0326 10.7832 38.1234 10.8547 38.2279 10.9977C38.3379 11.1408 38.393 11.2783 38.393 11.4103C38.393 11.4818 38.2719 11.9055 38.0299 12.6812C37.7878 13.4569 37.6008 14.073 37.4687 14.5296C37.4027 14.7607 37.3092 14.8762 37.1881 14.8762C37.1166 14.8762 37.0561 14.846 37.0066 14.7854C36.9571 14.7249 36.9323 14.6149 36.9323 14.4554C36.9323 14.2958 36.9956 14.007 37.1221 13.5889C36.8911 13.963 36.6408 14.2711 36.3712 14.5131C36.1016 14.7552 35.8541 14.8762 35.6285 14.8762C35.4084 14.8762 35.1994 14.7717 35.0013 14.5626C34.8033 14.3536 34.7043 14.139 34.7043 13.919C34.7043 13.3963 34.8555 12.7444 35.1581 11.9632C35.4662 11.1765 35.722 10.7832 35.9256 10.7832C36.0246 10.7832 36.1099 10.8299 36.1814 10.9234C36.2584 11.0115 36.2969 11.1132 36.2969 11.2288C36.2969 11.2783 36.2226 11.4571 36.0741 11.7652C35.9256 12.0677 35.777 12.4253 35.6285 12.8379C35.48 13.245 35.4057 13.6026 35.4057 13.9107C35.4057 13.9987 35.4332 14.073 35.4882 14.1335C35.5432 14.1885 35.6092 14.216 35.6863 14.216C35.8953 14.216 36.1429 14.0317 36.4289 13.6632C36.7205 13.2946 36.9846 12.8654 37.2212 12.3758C37.4577 11.8862 37.6338 11.4323 37.7493 11.0142ZM38.801 11.7899L38.7762 11.171C38.7762 10.9124 38.8367 10.7832 38.9578 10.7832C39.0623 10.7832 39.1613 10.8519 39.2549 10.9895C39.3539 11.1215 39.4034 11.281 39.4034 11.4681C39.4034 11.6496 39.3979 11.7872 39.3869 11.8807C39.8655 11.1545 40.3194 10.7914 40.7485 10.7914C41.0181 10.7914 41.1528 10.8574 41.1528 10.9895C41.1528 11.0555 41.1226 11.116 41.0621 11.171C41.0016 11.226 40.9053 11.2893 40.7732 11.3608C40.4817 11.4873 40.2341 11.6826 40.0306 11.9467C39.8325 12.2053 39.6702 12.4996 39.5437 12.8297C39.4171 13.1598 39.3154 13.4376 39.2383 13.6632C39.1668 13.8887 39.1118 14.0648 39.0733 14.1913C39.0348 14.3178 38.9908 14.4416 38.9413 14.5626C38.8532 14.7827 38.7515 14.8927 38.6359 14.8927C38.5424 14.8927 38.4654 14.8405 38.4049 14.7359C38.3499 14.6259 38.3224 14.5214 38.3224 14.4224C38.3224 14.3178 38.3691 14.1143 38.4626 13.8117C38.6882 13.1185 38.801 12.4446 38.801 11.7899ZM43.8352 12.153C43.8352 12.4446 43.6757 12.6839 43.3566 12.871C43.043 13.0525 42.6854 13.1433 42.2838 13.1433C41.8877 13.1433 41.5274 13.0993 41.2028 13.0112C41.1258 13.2533 41.0873 13.4706 41.0873 13.6632C41.0873 13.8502 41.145 13.996 41.2606 14.1005C41.3816 14.205 41.5769 14.2573 41.8465 14.2573C42.1215 14.2573 42.4021 14.2105 42.6882 14.117C42.9798 14.018 43.1393 13.9685 43.1668 13.9685C43.3099 13.9685 43.3814 14.0235 43.3814 14.1335C43.3814 14.2821 43.2136 14.4444 42.878 14.6204C42.5424 14.7909 42.2151 14.8762 41.896 14.8762C41.4669 14.8762 41.1175 14.7497 40.848 14.4966C40.5784 14.2381 40.4436 13.9135 40.4436 13.5229C40.4436 13.1323 40.5481 12.7252 40.7572 12.3016C40.9662 11.8724 41.2358 11.5121 41.5659 11.2205C41.896 10.9289 42.2233 10.7832 42.5479 10.7832C42.8725 10.7832 43.1668 10.9372 43.4309 11.2453C43.7005 11.5534 43.8352 11.8559 43.8352 12.153ZM42.5892 11.4351C42.3856 11.4351 42.1738 11.5424 41.9538 11.7569C41.7337 11.966 41.5466 12.2273 41.3926 12.5409C41.6127 12.5904 41.863 12.6151 42.1436 12.6151C42.4241 12.6151 42.6689 12.5711 42.878 12.4831C43.087 12.3896 43.1916 12.2685 43.1916 12.12C43.1916 11.9715 43.1228 11.8202 42.9853 11.6661C42.8532 11.5121 42.7212 11.4351 42.5892 11.4351ZM47.2945 8.47256C47.3825 8.47256 47.4898 8.55509 47.6163 8.72013C47.7484 8.87967 47.8144 9.03096 47.8144 9.174C47.8144 9.31703 47.7456 9.72414 47.6081 10.3953C47.4705 11.061 47.311 11.7514 47.1294 12.4666C46.7333 14.073 46.472 14.8762 46.3455 14.8762C46.2685 14.8762 46.1832 14.8295 46.0897 14.7359C46.0017 14.6369 45.9576 14.5516 45.9576 14.4801C45.9576 14.4086 45.9769 14.2656 46.0154 14.051C45.4763 14.6011 45.0059 14.8762 44.6043 14.8762C44.3622 14.8762 44.1422 14.7662 43.9441 14.5461C43.7516 14.3261 43.6553 14.0978 43.6553 13.8612C43.6553 13.5201 43.7461 13.1158 43.9276 12.6481C44.1147 12.175 44.3815 11.7459 44.7281 11.3608C45.0747 10.9757 45.4433 10.7832 45.8339 10.7832C46.2245 10.7832 46.4968 11.017 46.6508 11.4846C46.9314 10.3183 47.0854 9.3968 47.1129 8.72013C47.1129 8.55509 47.1735 8.47256 47.2945 8.47256ZM46.3868 12.5244C46.3868 12.2273 46.3345 11.977 46.23 11.7734C46.1309 11.5699 46.0099 11.4681 45.8669 11.4681C45.6303 11.4681 45.3882 11.6139 45.1407 11.9055C44.8931 12.197 44.6951 12.5326 44.5465 12.9122C44.4035 13.2863 44.332 13.6109 44.332 13.886C44.332 13.985 44.3677 14.0648 44.4393 14.1253C44.5108 14.1858 44.596 14.216 44.6951 14.216C44.9096 14.216 45.1985 14.062 45.5615 13.7539C45.9301 13.4458 46.197 13.0828 46.362 12.6646L46.3868 12.5656V12.5244ZM51.1762 8.7944C51.1762 8.57984 51.2422 8.47256 51.3743 8.47256C51.4788 8.47256 51.5888 8.55509 51.7044 8.72013C51.8254 8.88517 51.8859 9.04471 51.8859 9.19875C51.8859 9.55634 51.7951 10.167 51.6136 11.0307C51.4375 11.8889 51.2065 12.7472 50.9204 13.6054C51.4705 12.6096 51.9299 11.8917 52.2985 11.4516C52.6726 11.006 52.9917 10.7832 53.2558 10.7832C53.3988 10.7832 53.5638 10.9069 53.7509 11.1545C53.9434 11.4021 54.0397 11.6496 54.0397 11.8972C54.0397 12.1448 53.9709 12.5161 53.8334 13.0112C53.4923 14.2546 53.1705 14.8762 52.8679 14.8762C52.7469 14.8762 52.6864 14.7937 52.6864 14.6287C52.6864 14.4636 52.7524 14.1858 52.8844 13.7952C53.176 12.9425 53.3218 12.3676 53.3218 12.0705C53.3218 11.9715 53.297 11.8889 53.2475 11.8229C53.198 11.7569 53.1375 11.7239 53.066 11.7239C52.9944 11.7239 52.9064 11.7624 52.8019 11.8394C52.6974 11.9165 52.5708 12.0512 52.4223 12.2438C52.2352 12.4914 52.0399 12.7692 51.8364 13.0773C51.6383 13.3853 51.5173 13.5724 51.4733 13.6384C51.4348 13.6989 51.3633 13.8117 51.2587 13.9767C51.1597 14.1418 51.0854 14.2656 51.0359 14.3481C50.9864 14.4251 50.9259 14.5104 50.8544 14.6039C50.7279 14.7854 50.6316 14.8762 50.5656 14.8762C50.4995 14.8762 50.4115 14.8157 50.3015 14.6947C50.1915 14.5681 50.1365 14.4636 50.1365 14.3811C50.1365 14.2931 50.1667 14.1308 50.2272 13.8942C50.5023 12.8379 50.6756 12.1145 50.7471 11.7239C51.0332 10.2935 51.1762 9.31703 51.1762 8.7944ZM57.4242 12.153C57.4242 12.4446 57.2646 12.6839 56.9456 12.871C56.632 13.0525 56.2744 13.1433 55.8728 13.1433C55.4767 13.1433 55.1163 13.0993 54.7917 13.0112C54.7147 13.2533 54.6762 13.4706 54.6762 13.6632C54.6762 13.8502 54.734 13.996 54.8495 14.1005C54.9705 14.205 55.1658 14.2573 55.4354 14.2573C55.7105 14.2573 55.9911 14.2105 56.2771 14.117C56.5687 14.018 56.7282 13.9685 56.7558 13.9685C56.8988 13.9685 56.9703 14.0235 56.9703 14.1335C56.9703 14.2821 56.8025 14.4444 56.4669 14.6204C56.1313 14.7909 55.804 14.8762 55.4849 14.8762C55.0558 14.8762 54.7065 14.7497 54.4369 14.4966C54.1673 14.2381 54.0325 13.9135 54.0325 13.5229C54.0325 13.1323 54.1371 12.7252 54.3461 12.3016C54.5552 11.8724 54.8248 11.5121 55.1548 11.2205C55.4849 10.9289 55.8123 10.7832 56.1368 10.7832C56.4614 10.7832 56.7558 10.9372 57.0198 11.2453C57.2894 11.5534 57.4242 11.8559 57.4242 12.153ZM56.1781 11.4351C55.9746 11.4351 55.7627 11.5424 55.5427 11.7569C55.3226 11.966 55.1356 12.2273 54.9815 12.5409C55.2016 12.5904 55.4519 12.6151 55.7325 12.6151C56.0131 12.6151 56.2579 12.5711 56.4669 12.4831C56.676 12.3896 56.7805 12.2685 56.7805 12.12C56.7805 11.9715 56.7117 11.8202 56.5742 11.6661C56.4422 11.5121 56.3101 11.4351 56.1781 11.4351ZM57.8466 11.7899L57.8219 11.171C57.8219 10.9124 57.8824 10.7832 58.0034 10.7832C58.108 10.7832 58.207 10.8519 58.3005 10.9895C58.3995 11.1215 58.4491 11.281 58.4491 11.4681C58.4491 11.6496 58.4436 11.7872 58.4325 11.8807C58.9112 11.1545 59.365 10.7914 59.7941 10.7914C60.0637 10.7914 60.1985 10.8574 60.1985 10.9895C60.1985 11.0555 60.1682 11.116 60.1077 11.171C60.0472 11.226 59.9509 11.2893 59.8189 11.3608C59.5273 11.4873 59.2798 11.6826 59.0762 11.9467C58.8782 12.2053 58.7159 12.4996 58.5893 12.8297C58.4628 13.1598 58.361 13.4376 58.284 13.6632C58.2125 13.8887 58.1575 14.0648 58.119 14.1913C58.0805 14.3178 58.0364 14.4416 57.9869 14.5626C57.8989 14.7827 57.7971 14.8927 57.6816 14.8927C57.5881 14.8927 57.5111 14.8405 57.4505 14.7359C57.3955 14.6259 57.368 14.5214 57.368 14.4224C57.368 14.3178 57.4148 14.1143 57.5083 13.8117C57.7339 13.1185 57.8466 12.4446 57.8466 11.7899ZM62.8809 12.153C62.8809 12.4446 62.7214 12.6839 62.4023 12.871C62.0887 13.0525 61.7311 13.1433 61.3295 13.1433C60.9334 13.1433 60.5731 13.0993 60.2485 13.0112C60.1714 13.2533 60.1329 13.4706 60.1329 13.6632C60.1329 13.8502 60.1907 13.996 60.3062 14.1005C60.4273 14.205 60.6226 14.2573 60.8921 14.2573C61.1672 14.2573 61.4478 14.2105 61.7339 14.117C62.0254 14.018 62.185 13.9685 62.2125 13.9685C62.3555 13.9685 62.427 14.0235 62.427 14.1335C62.427 14.2821 62.2592 14.4444 61.9237 14.6204C61.5881 14.7909 61.2607 14.8762 60.9416 14.8762C60.5125 14.8762 60.1632 14.7497 59.8936 14.4966C59.6241 14.2381 59.4893 13.9135 59.4893 13.5229C59.4893 13.1323 59.5938 12.7252 59.8029 12.3016C60.0119 11.8724 60.2815 11.5121 60.6116 11.2205C60.9416 10.9289 61.269 10.7832 61.5936 10.7832C61.9181 10.7832 62.2125 10.9372 62.4765 11.2453C62.7461 11.5534 62.8809 11.8559 62.8809 12.153ZM61.6348 11.4351C61.4313 11.4351 61.2195 11.5424 60.9994 11.7569C60.7794 11.966 60.5923 12.2273 60.4383 12.5409C60.6583 12.5904 60.9086 12.6151 61.1892 12.6151C61.4698 12.6151 61.7146 12.5711 61.9237 12.4831C62.1327 12.3896 62.2372 12.2685 62.2372 12.12C62.2372 11.9715 62.1685 11.8202 62.0309 11.6661C61.8989 11.5121 61.7669 11.4351 61.6348 11.4351Z" fill="black"/>
<path d="M23.2176 29.0878C22.7972 29.5363 22.5228 30.0093 22.3048 30.6723C21.6758 32.5864 21.9166 34.8636 22.9653 36.9C23.0922 37.1435 23.3303 37.5245 23.6025 37.9041C24.4799 39.1345 25.4076 39.8927 26.776 40.4955C27.1152 40.6456 27.4165 40.7837 27.4415 40.7988C27.4679 40.8236 27.432 40.8897 27.3428 40.9807C27.2675 41.0625 26.967 41.3837 26.678 41.692C25.5872 42.8661 24.6555 43.7389 23.6217 44.5633C23.163 44.9315 21.4608 46.0413 21.3159 46.0635C21.1222 46.1024 21.0851 45.979 21.1283 45.4058C21.2742 43.3051 21.3717 41.5222 21.3418 41.357C21.3262 41.251 21.2721 41.1019 21.2209 41.0249C21.1234 40.8782 20.8647 40.7065 20.6818 40.6641C20.5049 40.623 20.3105 40.7734 20.2386 40.9956C20.2084 41.1003 20.1287 41.9039 20.0617 42.7943C19.9958 43.6787 19.8808 45.135 19.8069 46.0299C19.7324 46.9465 19.6915 47.7561 19.7148 47.8886C19.7877 48.3213 20.0143 48.5197 20.4547 48.5443C20.5698 48.5523 21.8232 48.3963 23.2407 48.1947C26.0841 47.7963 26.055 47.8051 26.2312 47.4395C26.4088 47.0836 26.2893 46.8511 25.8921 46.7714C25.7554 46.7459 25.0891 46.7868 24.0995 46.8892C23.2326 46.9735 22.515 47.0273 22.5028 47.009C22.4516 46.932 22.6205 46.7881 23.5151 46.1673C24.0408 45.8021 24.5027 45.4688 24.5439 45.4256C24.5875 45.386 24.7379 45.2596 24.8805 45.1438C25.7935 44.4155 27.0813 43.1476 28.0789 41.9984C28.4653 41.5513 28.6496 41.3707 28.8469 41.2396L29.1099 41.0649L29.7811 41.0313C31.148 40.9637 31.8297 40.8333 33.1006 40.3959C34.2635 39.9987 35.1233 39.5807 36.1772 38.9069C36.983 38.3927 37.3847 38.0888 37.9879 37.54C39.5914 36.0939 40.9309 34.1678 41.4619 32.5567C41.91 31.1963 41.9819 29.9379 41.6837 28.6557C41.5757 28.1777 41.3497 27.9578 41.0343 28.0087C40.6548 28.0758 40.5753 28.2714 40.6775 28.8908C40.8894 30.1933 40.7359 31.2839 40.1597 32.5866C39.5035 34.0694 38.4238 35.5004 37.0464 36.7011C36.4231 37.2421 34.8795 38.2677 34.109 38.6474C33.0502 39.1712 31.9988 39.5261 31.034 39.6808C30.6077 39.7525 30.128 39.7963 29.9119 39.7866C29.8017 39.7858 29.7841 39.8345 30.1137 39.1291C30.9317 37.3644 31.2611 35.66 31.0921 34.0541C30.8895 32.0898 29.9834 30.2229 28.7471 29.2257C27.5431 28.2545 25.8525 27.8499 24.5942 28.2313C24.1414 28.3682 23.5409 28.7408 23.2176 29.0878ZM25.0269 29.4082C25.8532 29.15 27.0199 29.4269 27.9006 30.0841C28.3106 30.3933 28.5335 30.6311 28.8551 31.1153C29.2266 31.6668 29.441 32.1323 29.6363 32.8167C30.2523 34.9451 29.8675 37.2943 28.5637 39.3342L28.3289 39.7017L27.8272 39.5698C26.3943 39.2001 25.3468 38.3894 24.3535 36.887C23.6806 35.8591 23.408 35.1785 23.242 34.0728C23.0278 32.6767 23.3122 31.0022 23.8992 30.2262C24.2046 29.8224 24.587 29.5419 25.0269 29.4082Z" fill="black"/>
</svg>
