<svg width="79" height="58" viewBox="0 0 79 58" fill="none" xmlns="http://www.w3.org/2000/svg">
<path d="M55.463 22.3516C55.4346 22.4049 55.4589 22.5108 55.4508 22.5844C55.4508 22.7299 55.4508 22.8755 55.4508 23.021C55.6205 23.0284 55.7952 23.0037 55.9614 23.0389C56.1054 23.0906 56.0937 23.2684 56.0959 23.3942C56.095 26.9404 56.0976 30.4867 56.0946 34.0328C56.0947 34.1365 56.0831 34.2804 55.9539 34.2949C55.8625 34.3042 55.7699 34.2964 55.678 34.299C55.678 34.5221 55.678 34.7452 55.678 34.9683C56.6773 34.9683 57.6767 34.9683 58.676 34.9683C58.676 34.7452 58.676 34.5221 58.676 34.299C58.5008 34.29 58.3208 34.3181 58.1486 34.2827C58.0077 34.2459 57.9941 34.0709 57.9985 33.9484C57.9985 30.0193 57.9985 26.0901 57.9985 22.1609C57.1533 22.2226 56.3082 22.2883 55.463 22.3516ZM62.6111 22.3516C62.5828 22.4049 62.607 22.5108 62.599 22.5844C62.599 22.7299 62.599 22.8755 62.599 23.021C62.7576 23.0325 62.9245 22.9945 63.0771 23.047C63.2219 23.1024 63.2403 23.3087 63.2399 23.4591C63.239 26.9915 63.2419 30.524 63.2385 34.0563C63.2328 34.172 63.1736 34.2803 63.0533 34.2908C62.9768 34.3034 62.8992 34.2978 62.8221 34.299C62.8221 34.5221 62.8221 34.7452 62.8221 34.9683C63.7362 34.9683 64.6504 34.9683 65.5645 34.9683C65.5645 34.7452 65.5645 34.5221 65.5645 34.299C65.4421 34.2892 65.3085 34.3245 65.1953 34.2665C65.1171 34.1663 65.1579 34.0226 65.1467 33.903C65.1481 31.8806 65.1438 29.858 65.1488 27.8356C65.1575 27.5034 65.1686 27.149 65.3355 26.8533C65.382 26.777 65.4349 26.7037 65.5037 26.6599C65.7153 26.5106 66.0082 26.4854 66.2461 26.5829C66.3515 26.6333 66.405 26.7385 66.4402 26.8553C66.5199 27.2391 66.479 27.6353 66.4895 28.0247C66.4884 30.0433 66.4916 32.0622 66.4879 34.0806C66.4848 34.1909 66.4082 34.2977 66.29 34.2967C66.2013 34.302 66.1119 34.2974 66.0229 34.299C66.0229 34.5221 66.0229 34.7452 66.0229 34.9683C66.9587 34.9683 67.8945 34.9683 68.8303 34.9683C68.8303 34.7452 68.8303 34.5221 68.8303 34.299C68.6993 34.288 68.532 34.338 68.4367 34.2219C68.3661 34.0606 68.4079 33.8762 68.3962 33.705C68.3948 31.4584 68.3989 29.2116 68.3941 26.9651C68.3755 26.5554 68.3068 26.1201 68.0432 25.7918C67.8722 25.5773 67.6129 25.4403 67.3436 25.3822C66.9249 25.2947 66.4695 25.3002 66.0807 25.4958C65.753 25.6487 65.4981 25.9207 65.277 26.1999C65.2345 26.2493 65.1739 26.3629 65.1467 26.3751C65.1467 24.9704 65.1467 23.5657 65.1467 22.1609C64.3014 22.2226 63.4563 22.2883 62.6111 22.3516ZM10.0589 22.3638C10.0589 22.5828 10.0589 22.8019 10.0589 23.021C10.2184 23.0326 10.4025 22.9815 10.5376 23.0899C10.592 23.1207 10.6367 23.1846 10.6733 23.2456C10.8282 23.5063 10.8343 23.8245 10.8338 24.1204C10.8328 27.1989 10.8357 30.2776 10.8323 33.3561C10.829 33.6264 10.7797 33.9247 10.6269 34.1407C10.5487 34.2435 10.4289 34.312 10.2918 34.299C10.2182 34.307 10.1122 34.2828 10.0589 34.3111C10.0589 34.5302 10.0589 34.7493 10.0589 34.9683C10.9041 34.9683 11.7492 34.9683 12.5944 34.9683C12.5944 34.7452 12.5944 34.5221 12.5944 34.299C12.4219 34.2902 12.2446 34.3178 12.0751 34.2827C11.9394 34.2313 11.8595 34.1254 11.803 33.9919C11.6471 33.6003 11.7053 33.1703 11.6938 32.759C11.6938 30.3 11.6938 27.841 11.6938 25.382C12.3599 28.5721 13.0305 31.7617 13.6938 34.9521C14.0238 34.9521 14.3537 34.9521 14.6837 34.9521C15.347 31.7509 16.0176 28.5505 16.6837 25.3496C16.6826 28.1063 16.6859 30.8631 16.6821 33.6198C16.6737 33.8354 16.665 34.088 16.493 34.2422C16.4213 34.2894 16.3119 34.3082 16.2172 34.299C16.0833 34.299 15.9494 34.299 15.8155 34.299C15.8155 34.5221 15.8155 34.7452 15.8155 34.9683C17.0299 34.9683 18.2442 34.9683 19.4586 34.9683C19.4586 34.7452 19.4586 34.5221 19.4586 34.299C19.2964 34.2844 19.1125 34.3397 18.9695 34.2425C18.8542 34.1733 18.8147 34.0043 18.7923 33.8705C18.7477 33.4941 18.7776 33.1137 18.7689 32.7355C18.77 29.7237 18.7668 26.7118 18.7705 23.7001C18.7868 23.4852 18.7882 23.2301 18.9636 23.0778C19.0436 23.0228 19.1733 23.0159 19.2785 23.021C19.3437 23.0048 19.4878 23.0675 19.4586 22.9569C19.4586 22.7551 19.4586 22.5533 19.4586 22.3516C18.443 22.3516 17.4275 22.3516 16.4119 22.3516C15.8944 24.9821 15.3701 27.6119 14.85 30.2421C14.2975 27.6119 13.7405 24.9821 13.1908 22.3516C12.1468 22.3516 11.1029 22.3516 10.0589 22.3516V22.3638ZM35.978 22.3638C35.978 22.5828 35.978 22.8019 35.978 23.021C36.1665 23.0327 36.363 22.9931 36.5457 23.0506C36.7161 23.1107 36.7296 23.3152 36.7441 23.4752C36.755 24.2321 36.7457 24.9893 36.7488 25.7463C36.748 28.5041 36.7504 31.2621 36.7476 34.0198C36.7469 34.1503 36.6679 34.2718 36.5338 34.2827C36.3506 34.3138 36.1631 34.2928 35.978 34.299C35.978 34.5221 35.978 34.7452 35.978 34.9683C37.2032 34.9683 38.4283 34.9683 39.6535 34.9683C39.6535 34.7452 39.6535 34.5221 39.6535 34.299C39.4579 34.2884 39.2568 34.3232 39.0653 34.2746C38.9032 34.2233 38.869 34.0221 38.8563 33.8666C38.8425 33.2496 38.8541 32.6321 38.8503 32.015C38.8503 31.0048 38.8503 29.9947 38.8503 28.9845C39.6562 28.9845 40.4622 28.9845 41.2681 28.9845C41.2665 30.5866 41.2713 32.1889 41.2658 33.791C41.2544 33.9569 41.2413 34.1677 41.0815 34.2584C40.9051 34.3325 40.7074 34.2857 40.5217 34.299C40.4183 34.2749 40.4826 34.4184 40.4649 34.4799C40.4649 34.6427 40.4649 34.8055 40.4649 34.9683C41.6846 34.9683 42.9044 34.9683 44.1241 34.9683C44.1241 34.7452 44.1241 34.5221 44.1241 34.299C43.9372 34.2862 43.7402 34.33 43.5609 34.2641C43.387 34.1818 43.3778 33.9588 43.3719 33.7895C43.3575 33.1506 43.3694 32.5112 43.3655 31.8722C43.3665 29.1292 43.3634 26.3862 43.3671 23.6433C43.3781 23.4546 43.3579 23.2069 43.5116 23.0818C43.6796 22.9805 43.8869 23.0351 44.073 23.021C44.1713 23.0375 44.1048 22.8893 44.1241 22.827C44.1241 22.6686 44.1241 22.5101 44.1241 22.3516C42.9044 22.3516 41.6846 22.3516 40.4649 22.3516C40.4649 22.5747 40.4649 22.7978 40.4649 23.021C40.6578 23.0313 40.8561 22.997 41.045 23.0453C41.2102 23.0939 41.2505 23.3 41.2611 23.458C41.2772 23.9304 41.2637 24.4038 41.2681 24.8766C41.2681 25.9862 41.2681 27.0959 41.2681 28.2056C40.4622 28.2056 39.6562 28.2056 38.8503 28.2056C38.8518 26.6467 38.8472 25.0877 38.8525 23.5289C38.8588 23.385 38.8711 23.2104 38.9638 23.1062C39.1166 22.9746 39.3347 23.0352 39.5188 23.021C39.609 23.0319 39.686 23.0296 39.6535 22.9179C39.6535 22.7291 39.6535 22.5404 39.6535 22.3516C38.4283 22.3516 37.2032 22.3516 35.978 22.3516V22.3638ZM31.0692 22.3597C30.8324 22.38 30.6204 22.5147 30.4769 22.6964C30.3872 22.8001 30.3106 22.9564 30.2927 23.1068C30.2413 23.4318 30.4062 23.7534 30.6406 23.9669C30.8157 24.1387 31.0291 24.2688 31.2559 24.3638C30.9363 24.7223 30.589 25.0546 30.2457 25.3901C30.3857 25.5395 30.5235 25.6911 30.6636 25.8405C31.0708 25.5296 31.4695 25.1982 31.7989 24.8008C32.0541 24.5082 32.2622 24.1476 32.305 23.7537C32.3452 23.3104 32.1378 22.8567 31.7914 22.5869C31.6905 22.507 31.5487 22.4263 31.4096 22.3931C31.2996 22.3625 31.1832 22.3486 31.0692 22.3597ZM60.4204 23.0047C60.2108 23.6205 60.0073 24.2455 59.6969 24.8186C59.5886 25.0107 59.4682 25.2025 59.2967 25.3293C59.1119 25.4765 58.869 25.4986 58.6411 25.4875C58.5251 25.4532 58.5297 25.5395 58.5381 25.6295C58.5381 25.8215 58.5381 26.0135 58.5381 26.2056C58.7531 26.2056 58.9681 26.2056 59.1831 26.2056C59.1845 28.5869 59.1804 30.9683 59.1851 33.3496C59.2003 33.7448 59.2205 34.1572 59.4001 34.5173C59.5138 34.741 59.7167 34.9185 59.9582 34.9974C60.3617 35.1404 60.7996 35.1417 61.2219 35.1146C61.5738 35.0771 61.9393 34.9548 62.1697 34.6748C62.349 34.4879 62.4465 34.2302 62.5001 33.9779C62.6043 33.5173 62.5548 33.0419 62.5665 32.574C62.5665 32.3565 62.5665 32.1391 62.5665 31.9217C62.3285 31.9217 62.0905 31.9217 61.8525 31.9217C61.8484 32.5079 61.8614 33.0947 61.8448 33.6805C61.8278 33.8557 61.8178 34.0782 61.6497 34.1773C61.4891 34.2618 61.2391 34.2328 61.1588 34.0515C61.051 33.7766 61.0965 33.4722 61.0858 33.1833C61.0858 30.8628 61.0858 28.5423 61.0858 26.2218C61.5685 26.2218 62.0513 26.2218 62.534 26.2218C62.534 25.977 62.534 25.7323 62.534 25.4875C62.0567 25.4875 61.5793 25.4875 61.102 25.4875C61.102 24.6572 61.102 23.8269 61.102 22.9966C60.8762 22.9966 60.6503 22.9966 60.4245 22.9966L60.4204 23.0047ZM21.9414 25.3334C21.4167 25.3643 20.9131 25.6113 20.5559 25.9927C20.2871 26.262 20.0754 26.584 19.918 26.9308C19.5478 27.7265 19.3969 28.6052 19.3372 29.4753C19.2759 30.483 19.3103 31.5007 19.4906 32.4953C19.6086 33.0807 19.7936 33.6644 20.1314 34.1615C20.3335 34.4381 20.5802 34.6877 20.8866 34.8507C21.3264 35.0932 21.8419 35.1529 22.3373 35.1236C22.769 35.0961 23.2218 35.017 23.5763 34.7533C23.7808 34.591 23.9558 34.3853 24.0602 34.1424C24.2828 33.6397 24.3204 33.079 24.3125 32.5359C24.3105 32.3525 24.2993 32.1694 24.2862 31.9866C24.0536 31.9866 23.821 31.9866 23.5884 31.9866C23.5897 32.4996 23.6037 33.0191 23.4992 33.5241C23.4445 33.7399 23.3648 33.9666 23.1787 34.1042C23.0488 34.1848 22.8689 34.233 22.705 34.2332C22.4254 34.246 22.1049 34.2355 21.8765 34.0758C21.7445 33.9712 21.6667 33.8434 21.6067 33.6866C21.4302 33.1705 21.4185 32.6174 21.3963 32.0775C21.3731 31.3794 21.3782 30.6808 21.3775 29.9825C22.4011 29.9825 23.4248 29.9825 24.4485 29.9825C24.4416 29.1429 24.4183 28.2978 24.2618 27.4709C24.1575 26.9488 24.0032 26.4122 23.6696 25.9906C23.4797 25.7606 23.242 25.5716 22.96 25.469C22.6357 25.348 22.2849 25.3183 21.9414 25.3334ZM28.485 25.3334C28.0626 25.3615 27.6556 25.5547 27.3592 25.8532C27.1866 26.0121 27.04 26.1921 26.911 26.3881C26.911 26.0514 26.911 25.7147 26.911 25.378C26.0725 25.4341 25.2342 25.4963 24.3957 25.5524C24.3957 25.7755 24.3957 25.9987 24.3957 26.2218C24.5464 26.2294 24.702 26.2056 24.8496 26.2357C24.9952 26.2767 25.0352 26.4539 25.0367 26.595C25.0462 27.4083 25.0381 28.2221 25.0408 29.0356C25.0391 30.6927 25.0442 32.3499 25.0382 34.0068C25.0385 34.126 24.999 34.2682 24.8701 34.2863C24.7194 34.3124 24.5644 34.293 24.412 34.299C24.412 34.5221 24.412 34.7452 24.412 34.9683C25.3951 34.9683 26.3782 34.9683 27.3613 34.9683C27.3613 34.7452 27.3613 34.5221 27.3613 34.299C27.2389 34.2892 27.1053 34.3245 26.9921 34.2665C26.9106 34.1529 26.956 33.9963 26.9434 33.8641C26.9449 31.8546 26.9406 29.8451 26.9456 27.8356C26.9537 27.5034 26.9659 27.149 27.1338 26.8545C27.1733 26.7788 27.2305 26.7156 27.3004 26.6559C27.3941 26.5985 27.5195 26.5404 27.6419 26.5325C27.8181 26.5114 28.0543 26.5357 28.1524 26.6762C28.3014 26.8928 28.2739 27.1721 28.2863 27.4226C28.2852 29.6419 28.2884 31.8615 28.2846 34.0806C28.2777 34.1897 28.2126 34.292 28.0996 34.2949C28.0069 34.3042 27.9129 34.2964 27.8197 34.299C27.8197 34.5221 27.8197 34.7452 27.8197 34.9683C28.7555 34.9683 29.6913 34.9683 30.627 34.9683C30.627 34.7452 30.627 34.5221 30.627 34.299C30.4961 34.288 30.3287 34.338 30.2335 34.2219C30.1629 34.0606 30.2047 33.8762 30.193 33.705C30.1916 31.4584 30.1957 29.2116 30.1909 26.9651C30.1722 26.5554 30.1036 26.1201 29.84 25.7918C29.6866 25.6 29.4621 25.4667 29.2225 25.4029C28.9845 25.3363 28.7311 25.3211 28.485 25.3334ZM32.9881 25.3374C32.456 25.3743 31.9249 25.6045 31.5847 26.0218C31.3929 26.2335 31.2693 26.502 31.1858 26.7754C31.0426 27.2513 31.0596 27.758 31.1116 28.2468C31.1819 28.8175 31.416 29.3604 31.7649 29.8157C32.1287 30.3084 32.5567 30.7534 32.9536 31.2219C33.1389 31.4346 33.3319 31.6431 33.4934 31.8642C33.7325 32.1727 33.9524 32.5115 34.0166 32.904C34.0696 33.2187 34.0654 33.5509 33.9687 33.8569C33.9188 33.9947 33.8486 34.1074 33.7219 34.1888C33.4874 34.3486 33.1826 34.3447 32.9107 34.3158C32.7524 34.2882 32.5934 34.2248 32.482 34.1219C32.3409 34.0125 32.2628 33.8549 32.1826 33.695C31.9564 33.1656 31.9238 32.583 31.8273 32.0217C31.8141 31.9469 31.6814 32.0048 31.6169 31.9866C31.4411 31.9866 31.2653 31.9866 31.0895 31.9866C31.0895 32.9805 31.0895 33.9744 31.0895 34.9683C31.2964 34.9683 31.5033 34.9683 31.7102 34.9683C31.7487 34.7906 31.8042 34.5954 31.9482 34.4743C32.034 34.4016 32.1033 34.5195 32.1616 34.5718C32.5109 34.9311 33.0136 35.1246 33.5138 35.1287C34.0129 35.1362 34.5323 35.0125 34.9273 34.6965C35.1714 34.4912 35.3765 34.234 35.4962 33.9341C35.7395 33.3693 35.745 32.7357 35.674 32.1345C35.6161 31.5719 35.3898 31.0374 35.0652 30.578C34.5702 29.8932 33.9573 29.3015 33.4133 28.6546C33.239 28.4282 33.04 28.1882 32.9185 27.9163C32.7501 27.5522 32.7057 27.1356 32.7635 26.7405C32.7883 26.5699 32.872 26.3948 33.0044 26.307C33.2499 26.1373 33.5722 26.1594 33.8535 26.2058C34.0127 26.241 34.1613 26.3273 34.266 26.4409C34.2949 26.4843 34.3389 26.5281 34.3637 26.5854C34.5515 26.9032 34.569 27.2844 34.6174 27.6425C34.6417 27.8437 34.6702 28.0447 34.692 28.2462C34.9354 28.2462 35.1788 28.2462 35.4222 28.2462C35.4222 27.3266 35.4222 26.4071 35.4222 25.4875C35.2221 25.4875 35.022 25.4875 34.8218 25.4875C34.7988 25.6487 34.8196 25.8273 34.7447 25.9743C34.6841 25.9864 34.6493 25.8979 34.5981 25.8737C34.4923 25.7827 34.3537 25.6856 34.2209 25.6107C33.8465 25.4022 33.4182 25.2912 32.9881 25.3374ZM46.6069 25.3334C46.101 25.3642 45.6127 25.5941 45.2598 25.9543C44.7877 26.4112 44.5022 27.0245 44.3122 27.6472C44.0428 28.5531 43.9699 29.5052 43.9759 30.4466C43.9865 31.1864 44.0329 31.9303 44.1917 32.6544C44.3074 33.1745 44.4826 33.6915 44.7816 34.1354C45.0522 34.531 45.4412 34.8569 45.9051 35.0018C46.373 35.158 46.8801 35.1533 47.3641 35.0858C47.7372 35.0295 48.1201 34.9017 48.3869 34.6264C48.6496 34.3817 48.7946 34.041 48.8754 33.6949C49.0088 33.1365 48.9915 32.5554 48.9518 31.9866C48.7192 31.9866 48.4866 31.9866 48.254 31.9866C48.2618 32.484 48.2676 32.987 48.1744 33.4776C48.1318 33.6944 48.05 33.923 47.8889 34.0677C47.6442 34.2646 47.3076 34.2422 47.0119 34.2282C46.7871 34.2089 46.5573 34.1336 46.4194 33.9549C46.2906 33.7835 46.216 33.549 46.1759 33.3294C46.0816 32.8581 46.0771 32.3745 46.0553 31.8958C46.0415 31.2581 46.0426 30.6203 46.043 29.9825C47.0667 29.9825 48.0904 29.9825 49.114 29.9825C49.1072 29.1429 49.0838 28.2978 48.9273 27.4709C48.8227 26.949 48.6692 26.4115 48.3351 25.9906C48.1452 25.7606 47.9075 25.5716 47.6255 25.469C47.3016 25.3471 46.9503 25.3188 46.6069 25.3334ZM51.9538 25.3334C51.4206 25.3534 50.8782 25.5063 50.4528 25.8364C50.2703 26.0018 50.0937 26.1853 49.9949 26.4154C49.7945 26.8395 49.861 27.3513 50.0879 27.7497C50.1717 27.8957 50.294 28.0244 50.4366 28.1163C50.6639 28.2456 50.9528 28.2563 51.1865 28.1349C51.3599 28.0555 51.5007 27.915 51.5968 27.7512C51.7444 27.4592 51.6569 27.0877 51.4329 26.8622C51.2407 26.6342 50.9895 26.4677 50.7246 26.3354C50.958 26.169 51.2525 26.113 51.5327 26.0831C51.785 26.0686 52.0562 26.071 52.2847 26.189C52.3859 26.2487 52.462 26.3301 52.499 26.4488C52.6029 26.7893 52.5549 27.1514 52.5664 27.5021C52.5664 27.9692 52.5664 28.4363 52.5664 28.9034C52.0063 29.0917 51.4448 29.2862 50.9181 29.5565C50.4896 29.7744 50.0972 30.0871 49.8503 30.5051C49.5597 31.0261 49.4824 31.6324 49.4574 32.2202C49.4315 32.8423 49.4499 33.4806 49.6503 34.0757C49.7449 34.3451 49.8865 34.5986 50.1022 34.7881C50.3842 35.0572 50.7973 35.1518 51.1806 35.1253C51.5611 35.105 51.9379 34.9548 52.2128 34.6917C52.4261 34.4909 52.6023 34.2559 52.7368 33.9947C52.7964 34.256 52.8647 34.5285 53.0289 34.7452C53.1766 34.9279 53.3916 35.0486 53.6259 35.0882C54.0151 35.1529 54.433 35.1557 54.8009 34.9985C55.086 34.8667 55.2721 34.595 55.3571 34.2983C55.4725 33.9143 55.481 33.5084 55.4873 33.1103C55.2858 33.1103 55.0844 33.1103 54.8829 33.1103C54.8774 33.4157 54.8983 33.7275 54.8334 34.0272C54.8086 34.1566 54.649 34.1841 54.5461 34.1367C54.4564 34.0461 54.4858 33.9027 54.4746 33.7862C54.4697 31.7281 54.477 29.6698 54.471 27.6117C54.4634 27.0612 54.363 26.4804 54.0188 26.0352C53.8476 25.831 53.636 25.658 53.3882 25.5528C52.9407 25.3558 52.4373 25.3159 51.9538 25.3334ZM22.0874 26.1407C22.2556 26.1355 22.4415 26.1749 22.5131 26.3404C22.621 26.5557 22.6217 26.8066 22.6383 27.0428C22.6685 27.7898 22.6505 28.5374 22.6554 29.2847C22.2294 29.2847 21.8034 29.2847 21.3775 29.2847C21.3931 28.563 21.395 27.8394 21.4637 27.1203C21.5001 26.8506 21.5188 26.5609 21.6648 26.3248C21.7498 26.1746 21.9204 26.1334 22.0874 26.1407ZM46.753 26.1407C46.9212 26.1355 47.1071 26.1749 47.1787 26.3404C47.3145 26.6244 47.2921 26.9525 47.314 27.2601C47.3286 27.9348 47.3174 28.6099 47.3209 29.2847C46.895 29.2847 46.469 29.2847 46.043 29.2847C46.0598 28.4757 46.0618 27.6635 46.1628 26.8595C46.2055 26.6236 46.2477 26.3502 46.4446 26.2015C46.5401 26.1508 46.6464 26.1386 46.753 26.1407ZM52.5664 32.8344C52.5649 33.1235 52.5594 33.4317 52.4228 33.6922C52.3461 33.8455 52.2102 33.9419 52.0419 33.9791C51.8894 34.009 51.7045 34.0031 51.5765 33.9298C51.4742 33.8552 51.4218 33.7426 51.3897 33.6121C51.3142 33.26 51.3279 32.8958 51.321 32.5375C51.3329 31.9201 51.302 31.2931 51.4395 30.6868C51.4873 30.4794 51.5691 30.2809 51.6942 30.1082C51.754 30.0208 51.8579 29.9154 51.9442 29.8533C52.065 29.7465 52.2069 29.6624 52.3511 29.5733C52.4236 29.5324 52.4946 29.489 52.5664 29.447C52.5664 30.5761 52.5664 31.7053 52.5664 32.8344ZM46.6515 26.1001C46.437 26.0969 46.2723 26.2604 46.2134 26.453C46.0718 26.8797 46.0728 27.3332 46.039 27.7715C46.0129 28.2831 46.0062 28.7974 45.9984 29.3091V29.3293H46.0187C46.4609 29.3293 46.9031 29.3293 47.3453 29.3293H47.3655V29.3091C47.3607 28.608 47.3776 27.9055 47.3574 27.2036C47.3369 26.8989 47.353 26.5668 47.1992 26.2827V26.2786C47.141 26.1835 47.0506 26.135 46.9517 26.1123C46.8529 26.0896 46.7477 26.0932 46.6515 26.1001ZM46.6515 26.1407C46.7462 26.1339 46.8519 26.1318 46.9436 26.1528C47.0354 26.1739 47.1152 26.2187 47.1668 26.3029C47.3113 26.5731 47.2962 26.9006 47.3169 27.2076C47.3368 27.9014 47.3206 28.5937 47.325 29.2888C46.8963 29.2888 46.4676 29.2888 46.039 29.2888C46.0467 28.7839 46.0539 28.2794 46.0795 27.7756C46.1135 27.3349 46.1111 26.8874 46.2499 26.4693L46.254 26.4652C46.3084 26.2869 46.4588 26.1378 46.6515 26.1407ZM31.0692 22.3394C30.8256 22.3603 30.6073 22.4986 30.4607 22.6842C30.3673 22.7923 30.2873 22.9529 30.27 23.1102C30.2157 23.4617 30.4063 23.7994 30.6636 24.0189C30.8228 24.1716 31.0189 24.283 31.2193 24.3719C30.9057 24.7215 30.566 25.045 30.2295 25.3739L30.2173 25.3901L30.2295 25.4023C30.3694 25.5515 30.5072 25.7031 30.6473 25.8526L30.6595 25.8689L30.6757 25.8567C31.0835 25.5455 31.4847 25.2134 31.8157 24.8141C32.0728 24.5193 32.2834 24.1549 32.3269 23.7552C32.3678 23.3042 32.1557 22.8449 31.8035 22.5706C31.7006 22.4891 31.5574 22.4061 31.4141 22.3719C31.302 22.3407 31.1862 22.328 31.0692 22.3394ZM31.0692 22.38C31.1802 22.3692 31.2981 22.3824 31.406 22.4124C31.5407 22.4446 31.6804 22.5249 31.7792 22.6031C32.1199 22.8684 32.3258 23.3155 32.2863 23.7512C32.2441 24.1392 32.0366 24.4952 31.7832 24.7857C31.4591 25.1767 31.0656 25.5046 30.6636 25.8121C30.5336 25.6732 30.4043 25.5334 30.2741 25.3942C30.6133 25.0628 30.9556 24.731 31.2721 24.3759L31.2924 24.3557L31.264 24.3435C31.0564 24.2538 30.8534 24.1413 30.692 23.9865C30.4431 23.7741 30.2632 23.4473 30.3147 23.1143C30.3307 22.9676 30.4056 22.8099 30.4932 22.7086C30.6336 22.5307 30.8391 22.3997 31.0692 22.38ZM65.1467 22.1406C64.3013 22.2037 63.4563 22.2708 62.6111 22.3354H62.599L62.5908 22.3475C62.5729 22.3814 62.5771 22.422 62.5787 22.4652C62.5802 22.5083 62.5823 22.5534 62.5787 22.5869C62.5787 22.731 62.5787 22.8768 62.5787 23.021V23.0412H62.599C62.762 23.0535 62.9245 23.015 63.0696 23.0656C63.1283 23.0875 63.1643 23.1415 63.1872 23.2076C63.2101 23.2737 63.2194 23.3497 63.2197 23.4185C63.2187 26.9639 63.223 30.5104 63.2197 34.0555C63.2169 34.1102 63.1986 34.1629 63.171 34.2016C63.1434 34.2403 63.1076 34.2658 63.0533 34.2706H63.0493C62.9761 34.2829 62.9006 34.2773 62.8221 34.2787H62.8018V34.299C62.8018 34.5221 62.8018 34.7452 62.8018 34.9683V34.9886H62.8221C63.7362 34.9886 64.6504 34.9886 65.5645 34.9886H65.5848V34.9683C65.5848 34.7452 65.5848 34.5221 65.5848 34.299V34.2787H65.5645C65.4398 34.2687 65.3146 34.2947 65.2116 34.2462C65.1804 34.2024 65.1678 34.1508 65.1669 34.0921C65.166 34.0305 65.1729 33.9643 65.1669 33.9014C65.1684 31.8789 65.1659 29.8588 65.171 27.8364C65.1797 27.5043 65.19 27.1526 65.3535 26.8628C65.4041 26.7853 65.4426 26.7274 65.5158 26.6721C65.5963 26.6262 65.6974 26.573 65.7957 26.5626C65.9526 26.5373 66.1409 26.5432 66.2663 26.6194C66.3545 26.6865 66.4027 26.7834 66.4286 26.8912C66.4545 26.9989 66.4602 27.1155 66.4651 27.2238C66.4767 27.9963 66.4659 28.7712 66.4692 29.5443C66.4681 31.0567 66.4689 32.5678 66.4651 34.0799C66.4637 34.1304 66.4474 34.1814 66.4164 34.2178C66.3855 34.2542 66.3435 34.2751 66.2907 34.2746C66.2035 34.2798 66.1128 34.2771 66.0229 34.2787H66.0026V34.299C66.0026 34.5221 66.0026 34.7452 66.0026 34.9683V34.9886H66.0229C66.9587 34.9886 67.8945 34.9886 68.8303 34.9886H68.8505V34.9683C68.8505 34.7452 68.8505 34.5221 68.8505 34.299V34.2787H68.8303C68.7614 34.2729 68.6868 34.2819 68.6193 34.2787C68.5538 34.2755 68.4995 34.2624 68.457 34.2138C68.4565 34.2125 68.4576 34.2109 68.457 34.2097C68.3927 34.0584 68.4275 33.8795 68.4165 33.7067C68.4165 33.7053 68.4165 33.704 68.4165 33.7026C68.4151 31.4573 68.4213 29.2095 68.4165 26.9642C68.3976 26.553 68.3273 26.1135 68.0595 25.7796C67.8875 25.5639 67.63 25.4266 67.3617 25.3658C66.9406 25.2762 66.4793 25.2753 66.0838 25.4713C65.7458 25.6256 65.4844 25.9015 65.2602 26.1853C65.237 26.2123 65.2109 26.2549 65.1872 26.2908C65.1797 26.3021 65.1737 26.3096 65.1669 26.3192C65.1669 24.9333 65.1669 23.5467 65.1669 22.1609V22.1406H65.1467ZM65.1264 22.1812C65.1264 23.5792 65.1264 24.978 65.1264 26.376V26.4084L65.1548 26.3922C65.1699 26.3854 65.1764 26.3778 65.1872 26.3638C65.198 26.3498 65.2117 26.3292 65.2237 26.3111C65.2478 26.2747 65.2734 26.2361 65.2927 26.2137C65.5153 25.9319 65.7717 25.6576 66.1 25.5078C66.4841 25.3174 66.9386 25.3181 67.3536 25.4064C67.6143 25.4655 67.8623 25.5973 68.027 25.8039C68.2859 26.1267 68.3531 26.5563 68.3718 26.9642C68.3767 29.2107 68.3745 31.46 68.3759 33.7067C68.3873 33.8735 68.3423 34.0606 68.4165 34.23L68.4205 34.2341C68.4728 34.2978 68.5466 34.3157 68.6193 34.3192C68.685 34.3224 68.7518 34.3169 68.81 34.3192C68.81 34.5288 68.81 34.7385 68.81 34.9481C67.8877 34.9481 66.9655 34.9481 66.0432 34.9481C66.0432 34.7385 66.0432 34.5288 66.0432 34.3192C66.1248 34.3186 66.2073 34.3242 66.2907 34.3192C66.356 34.3198 66.4112 34.2865 66.4489 34.2422C66.4866 34.1978 66.5081 34.1396 66.5098 34.0799C66.5135 32.5677 66.5087 31.0566 66.5098 29.5443C66.5065 28.7716 66.5172 27.997 66.5057 27.2238C66.5008 27.1157 66.4964 26.9964 66.4692 26.8831C66.442 26.7697 66.3925 26.6614 66.2947 26.5869H66.2907C66.1518 26.5006 65.9553 26.4922 65.7917 26.518C65.7904 26.5181 65.7889 26.5177 65.7876 26.518C65.6783 26.5307 65.5711 26.5942 65.4915 26.6397C65.4124 26.6993 65.3677 26.7649 65.317 26.8425C65.1469 27.144 65.1351 27.5041 65.1264 27.8364C65.1213 29.8589 65.1278 31.879 65.1264 33.9014V33.9054C65.1317 33.9621 65.1254 34.0268 65.1264 34.0921C65.1274 34.1573 65.1359 34.2234 65.1791 34.2787L65.1832 34.2827L65.1872 34.2868C65.3027 34.3459 65.4313 34.3148 65.5442 34.3192C65.5442 34.5288 65.5442 34.7385 65.5442 34.9481C64.6436 34.9481 63.743 34.9481 62.8424 34.9481C62.8424 34.7385 62.8424 34.5288 62.8424 34.3192C62.9108 34.319 62.9818 34.3226 63.0533 34.3111C63.0547 34.311 63.0561 34.3113 63.0574 34.3111C63.1215 34.3044 63.1747 34.272 63.2075 34.2259C63.241 34.179 63.2572 34.1166 63.2602 34.0555C63.2636 30.5103 63.2593 26.9639 63.2602 23.4185C63.2599 23.3468 63.2531 23.2643 63.2278 23.1913C63.2025 23.1184 63.1593 23.0565 63.0858 23.0291C62.9327 22.9757 62.768 23.0079 62.6192 23.0007C62.6192 22.8646 62.6192 22.727 62.6192 22.5909C62.6192 22.5896 62.6192 22.5882 62.6192 22.5869C62.623 22.5477 62.6207 22.5054 62.6192 22.4652C62.6179 22.4285 62.6239 22.3967 62.6314 22.3759C63.4632 22.3123 64.2946 22.2433 65.1264 22.1812ZM57.9985 22.1406C57.1532 22.2037 56.3081 22.2708 55.463 22.3354H55.4508L55.4427 22.3475C55.4247 22.3814 55.429 22.422 55.4305 22.4652C55.4321 22.5083 55.4342 22.5534 55.4305 22.5869C55.4305 22.731 55.4305 22.8768 55.4305 23.021V23.0412H55.4508C55.6349 23.0527 55.8206 23.0176 55.9863 23.0737C55.9876 23.0741 55.9891 23.0733 55.9904 23.0737C56.0461 23.1197 56.065 23.1838 56.0715 23.2563C56.0781 23.3294 56.0712 23.4096 56.0756 23.4834C56.0756 23.4848 56.0755 23.4862 56.0756 23.4875C56.0747 27.0021 56.0786 30.5167 56.0756 34.0312V34.0353C56.0776 34.0859 56.0732 34.1434 56.0553 34.1894C56.0374 34.2355 56.0063 34.2682 55.9498 34.2746C55.8613 34.287 55.7711 34.2812 55.678 34.2827H55.6577V34.303C55.6577 34.5248 55.6577 34.7466 55.6577 34.9683V34.9886H55.678C56.6773 34.9886 57.6767 34.9886 58.676 34.9886H58.6963V34.9683C58.6963 34.7452 58.6963 34.5221 58.6963 34.299V34.2787H58.676C58.4978 34.2695 58.3199 34.2968 58.1527 34.2624C58.0868 34.2431 58.0571 34.1943 58.0391 34.1326C58.021 34.071 58.0187 33.9968 58.0188 33.9338C58.0188 30.009 58.0188 26.0858 58.0188 22.1609V22.1406H57.9985ZM57.9782 22.1812C57.9782 26.0993 57.9782 30.0158 57.9782 33.9338C57.9781 33.9973 57.9781 34.0752 57.9985 34.1448C58.0189 34.2144 58.0639 34.2793 58.1446 34.303C58.3149 34.338 58.4893 34.3133 58.6557 34.3192C58.6557 34.5288 58.6557 34.7385 58.6557 34.9481C57.6699 34.9481 56.6841 34.9481 55.6983 34.9481C55.6983 34.7398 55.6983 34.5316 55.6983 34.3233C55.7828 34.3229 55.8706 34.3274 55.9579 34.3152C56.0294 34.307 56.0703 34.2609 56.0918 34.2057C56.1133 34.1504 56.1182 34.0848 56.1161 34.0312C56.1192 30.5153 56.1153 26.9993 56.1161 23.4834C56.1116 23.4137 56.1192 23.3321 56.1121 23.2522C56.1049 23.1723 56.0813 23.0923 56.0107 23.0372L56.0066 23.0331C55.8324 22.9725 55.6435 23.0079 55.4711 23.0007C55.4711 22.8646 55.4711 22.727 55.4711 22.5909C55.4711 22.5896 55.4711 22.5882 55.4711 22.5869C55.4748 22.5477 55.4725 22.5054 55.4711 22.4652C55.4698 22.4285 55.4757 22.3967 55.4833 22.3759C56.315 22.3123 57.1465 22.2433 57.9782 22.1812ZM35.9577 22.3354V22.3556V22.3678C35.9577 22.5855 35.9577 22.8032 35.9577 23.021V23.0412H35.978C36.1703 23.0532 36.3618 23.0143 36.5379 23.0696C36.6047 23.0901 36.6486 23.1411 36.6758 23.2076C36.7025 23.2728 36.7129 23.3533 36.7204 23.4226C36.7205 23.4239 36.7204 23.4253 36.7204 23.4266C36.7442 23.9731 36.7269 24.5212 36.7326 25.0697C36.7319 28.0363 36.7351 31.0039 36.7326 33.9704C36.7345 34.0328 36.7219 34.1062 36.692 34.161C36.6622 34.2158 36.6149 34.2527 36.546 34.2584C36.3634 34.2965 36.1708 34.2699 35.978 34.2787H35.9577V34.299C35.9577 34.5221 35.9577 34.7452 35.9577 34.9683V34.9886H35.978C37.2032 34.9886 38.4283 34.9886 39.6535 34.9886H39.6738V34.9683C39.6738 34.7452 39.6738 34.5221 39.6738 34.299V34.2787H39.6535C39.4561 34.268 39.2582 34.3001 39.0734 34.2543C38.9977 34.2299 38.9523 34.1713 38.9233 34.0961C38.8942 34.0209 38.8797 33.9314 38.8746 33.8527C38.8622 33.1756 38.874 32.4983 38.8705 31.8202C38.8705 30.8818 38.8705 29.9433 38.8705 29.0048C39.663 29.0048 40.4554 29.0048 41.2478 29.0048C41.2463 30.5989 41.2492 32.1939 41.2438 33.7878C41.2438 33.7892 41.2438 33.7905 41.2438 33.7919C41.2384 33.8739 41.2348 33.967 41.2113 34.0474C41.188 34.1272 41.1442 34.1957 41.0734 34.2381C40.9122 34.3079 40.7254 34.2667 40.542 34.2787C40.5392 34.2789 40.5366 34.2785 40.5338 34.2787C40.5068 34.2724 40.481 34.2734 40.4649 34.2868C40.4468 34.3018 40.4415 34.3223 40.4405 34.3436C40.4385 34.3861 40.4494 34.4359 40.4446 34.4612V34.4653C40.4446 34.6324 40.4446 34.8012 40.4446 34.9683V34.9886H40.4649C41.6846 34.9886 42.9044 34.9886 44.1241 34.9886H44.1444V34.9683C44.1444 34.7452 44.1444 34.5221 44.1444 34.299V34.2787H44.1241C43.933 34.2657 43.7403 34.3094 43.5683 34.2462C43.4879 34.2081 43.4462 34.1394 43.4223 34.0555C43.3984 33.9717 43.3966 33.8723 43.3939 33.7878C43.3795 33.1495 43.3897 32.5124 43.3858 31.873C43.3868 29.1314 43.3822 26.3872 43.3858 23.6457C43.3858 23.6444 43.3858 23.643 43.3858 23.6417C43.3908 23.5469 43.3909 23.4386 43.4061 23.3414C43.4214 23.243 43.4528 23.1566 43.5237 23.098C43.6814 23.0029 43.8813 23.0548 44.0714 23.0412C44.0727 23.0411 44.0741 23.0413 44.0755 23.0412C44.0882 23.0429 44.0973 23.0448 44.1079 23.0412C44.1198 23.0372 44.1302 23.0266 44.1363 23.0169C44.1486 22.9974 44.1495 22.9749 44.1485 22.952C44.1474 22.9291 44.1463 22.9046 44.1444 22.883C44.1425 22.8614 44.1413 22.8445 44.1444 22.8343V22.8303V22.8262C44.1444 22.6691 44.1444 22.5128 44.1444 22.3556V22.3354H44.1241C42.9044 22.3354 41.6846 22.3354 40.4649 22.3354H40.4446V22.3556C40.4446 22.5774 40.4446 22.7992 40.4446 23.021V23.0412H40.4649C40.6599 23.0522 40.855 23.0195 41.0369 23.0656C41.113 23.0871 41.1598 23.1415 41.191 23.2157C41.2223 23.2898 41.2346 23.381 41.2397 23.4591C41.2557 23.9306 41.2434 24.4016 41.2478 24.8749C41.2478 25.9779 41.2478 27.0824 41.2478 28.1853C40.4554 28.1853 39.663 28.1853 38.8705 28.1853C38.872 26.6345 38.8694 25.0827 38.8746 23.5321C38.8746 23.5308 38.8746 23.5294 38.8746 23.5281C38.8835 23.373 38.8917 23.1895 39.0044 23.098C39.1623 23.0031 39.3618 23.054 39.5521 23.0412C39.5548 23.0411 39.5575 23.0414 39.5602 23.0412C39.5868 23.0484 39.6104 23.0518 39.6292 23.0453C39.6502 23.038 39.6633 23.0194 39.6697 23.0007C39.6826 22.9633 39.676 22.9201 39.6738 22.879C39.6738 22.7045 39.6738 22.5301 39.6738 22.3556V22.3354H39.6535C38.4283 22.3354 37.2032 22.3354 35.978 22.3354H35.9577ZM35.9983 22.3759C37.2099 22.3759 38.4216 22.3759 39.6332 22.3759C39.6332 22.5436 39.6332 22.7113 39.6332 22.879C39.6355 22.9216 39.6366 22.967 39.6292 22.9885C39.6255 22.9993 39.6213 23.0018 39.6129 23.0047C39.6045 23.0077 39.5906 23.0088 39.5643 23.0007H39.5602H39.5561C39.3739 23.0147 39.1587 22.9582 38.9801 23.0656C38.847 23.1736 38.8389 23.3728 38.83 23.5281C38.8247 25.0869 38.8315 26.6468 38.83 28.2056V28.2259H38.8503C39.6562 28.2259 40.4622 28.2259 41.2681 28.2259H41.2884V28.2056C41.2884 27.0959 41.2884 25.9846 41.2884 24.8749C41.284 24.4027 41.2964 23.9323 41.2803 23.4591V23.455C41.275 23.3744 41.2617 23.2807 41.2276 23.1995C41.1934 23.1182 41.1396 23.0506 41.0491 23.025H41.045C40.8584 22.9778 40.6677 23.0079 40.4852 23.0007C40.4852 22.7924 40.4852 22.5842 40.4852 22.3759C41.6914 22.3759 42.8976 22.3759 44.1039 22.3759C44.1039 22.5249 44.1039 22.6732 44.1039 22.8222C44.1039 22.8235 44.1039 22.8249 44.1039 22.8262C44.0986 22.8461 44.0979 22.8653 44.0998 22.8871C44.1018 22.9103 44.107 22.9362 44.1079 22.956C44.1088 22.9759 44.1074 22.991 44.1039 22.9966C44.1021 22.9994 44.0991 22.9995 44.0957 23.0007C44.0924 23.0018 44.0854 23.0024 44.0755 23.0007H44.0714C43.8904 23.0145 43.6767 22.9586 43.4994 23.0656C43.4176 23.1331 43.3816 23.2339 43.3655 23.3374C43.3494 23.4409 43.3504 23.5483 43.3452 23.6417C43.3416 26.3846 43.3463 29.1301 43.3452 31.873C43.3491 32.5117 43.3349 33.1524 43.3493 33.7919C43.352 33.8766 43.3559 33.9731 43.3817 34.0637C43.4076 34.1543 43.4589 34.2386 43.5521 34.2827C43.7322 34.3489 43.9265 34.311 44.1039 34.3192C44.1039 34.5288 44.1039 34.7385 44.1039 34.9481C42.8976 34.9481 41.6914 34.9481 40.4852 34.9481C40.4852 34.789 40.4852 34.6284 40.4852 34.4693C40.4854 34.468 40.4849 34.4667 40.4852 34.4653C40.4915 34.4249 40.4796 34.3796 40.4811 34.3476C40.4819 34.3311 40.4897 34.3222 40.4933 34.3192C40.4969 34.3163 40.5049 34.3119 40.5298 34.3192H40.5338H40.5379C40.7146 34.3061 40.9097 34.3566 41.0896 34.2787L41.0937 34.2746C41.1793 34.2259 41.2222 34.1474 41.2478 34.0596C41.2735 33.9718 41.283 33.8749 41.2884 33.7919C41.2939 32.1897 41.2868 30.5866 41.2884 28.9845V28.9642H41.2681C40.4622 28.9642 39.6562 28.9642 38.8503 28.9642H38.83V28.9845C38.83 29.9297 38.83 30.875 38.83 31.8202C38.8334 32.4977 38.8216 33.1747 38.834 33.8527V33.8568C38.8393 33.9372 38.851 34.0302 38.8827 34.1123C38.9145 34.1945 38.9672 34.2659 39.0571 34.2949H39.0612C39.2516 34.3432 39.4468 34.3121 39.6332 34.3192C39.6332 34.5288 39.6332 34.7385 39.6332 34.9481C38.4216 34.9481 37.2099 34.9481 35.9983 34.9481C35.9983 34.7385 35.9983 34.5288 35.9983 34.3192C36.1782 34.3134 36.366 34.3364 36.55 34.299C36.5522 34.2988 36.5519 34.2951 36.5541 34.2949C36.6339 34.286 36.6948 34.2432 36.7285 34.1813C36.7631 34.1178 36.7753 34.0391 36.7732 33.9704C36.7757 31.0038 36.7724 28.0362 36.7732 25.0697C36.7674 24.521 36.7851 23.9725 36.761 23.4226C36.7534 23.3511 36.7422 23.2645 36.7123 23.1913C36.6824 23.1181 36.6312 23.0539 36.55 23.0291C36.3674 22.9716 36.1774 23.0084 35.9983 23.0007C35.9983 22.7924 35.9983 22.5842 35.9983 22.3759ZM10.0508 22.3435V22.3678V23.0088V23.0291H10.0751H10.3307C10.4833 23.0291 10.6056 23.1183 10.6918 23.2847C10.7779 23.451 10.8256 23.6954 10.8256 23.9905V33.3172C10.8256 33.6046 10.7781 33.8504 10.6918 34.0231C10.6055 34.1958 10.4826 34.2908 10.3307 34.2908H10.0751H10.0508V34.3111V34.9562V34.9765H10.0751H12.5822H12.6025V34.9562V34.3111V34.2908H12.5822H12.1968C12.0281 34.2908 11.9059 34.1955 11.8236 34.0231C11.7414 33.8507 11.7019 33.605 11.7019 33.3172V25.4591L13.6857 34.944L13.6898 34.9602H13.706H14.6715H14.6877L14.6918 34.944L16.6756 25.4469V33.4754C16.6756 33.764 16.652 33.973 16.5904 34.1042C16.5288 34.2354 16.4374 34.2908 16.2821 34.2908H15.8318H15.8074V34.3111V34.9562V34.9765H15.8318H19.4464H19.4667V34.9562V34.3111V34.2908H19.4464H19.1746C19.0193 34.2908 18.9239 34.2354 18.8622 34.1042C18.8005 33.973 18.777 33.764 18.777 33.4754V23.8445C18.777 23.5562 18.8005 23.3508 18.8622 23.2197C18.9239 23.0887 19.0193 23.0291 19.1746 23.0291H19.4464H19.4667V23.0088V22.3678V22.3435H19.4464H16.4241H16.4078L16.4038 22.3638L14.85 30.2056L13.1989 22.3597L13.1948 22.3435H13.1786H10.0751H10.0508ZM10.0954 22.3881H13.1624L14.8297 30.3151L14.8703 30.3111V30.303L16.4403 22.3881H19.4261V22.9885H19.1746C19.0082 22.9885 18.8927 23.0573 18.8257 23.1995C18.7588 23.3416 18.7365 23.5539 18.7365 23.8445V33.4754C18.7365 33.7663 18.7588 33.9782 18.8257 34.1205C18.8927 34.2628 19.0082 34.3355 19.1746 34.3355H19.4261V34.9359H15.8521V34.3355H16.2821C16.4484 34.3355 16.5601 34.2628 16.6269 34.1205C16.6937 33.9782 16.7202 33.7663 16.7202 33.4754V25.2319V25.2279H16.6999L16.6796 25.2238V25.2279H16.6756V25.2441L14.6553 34.9197H13.7222L11.7019 25.2603V25.2563L11.6816 25.2603H11.6613V25.2644V33.3172C11.6613 33.6088 11.7005 33.8578 11.7871 34.0393C11.8737 34.2208 12.0117 34.3355 12.1968 34.3355H12.562V34.9359H10.0954V34.3355H10.3307C10.5005 34.3355 10.6377 34.2205 10.7283 34.0393C10.8188 33.8581 10.8662 33.6092 10.8662 33.3172V23.9905C10.8662 23.691 10.819 23.4437 10.7283 23.2684C10.6375 23.0931 10.4998 22.9885 10.3307 22.9885H10.0954V22.3881ZM60.4123 22.9763L60.4042 22.9885L60.4002 22.9966C60.1854 23.6283 59.9787 24.2711 59.6578 24.8546C59.5531 25.0283 59.4395 25.2001 59.2845 25.3131C59.0985 25.4656 58.8441 25.4756 58.607 25.4672C58.6057 25.4672 58.6043 25.4673 58.603 25.4672C58.5738 25.4607 58.5495 25.4631 58.534 25.4794C58.5177 25.4967 58.5138 25.5219 58.5137 25.5443C58.5137 25.5667 58.5159 25.5875 58.5178 25.6092C58.5196 25.631 58.5207 25.6504 58.5178 25.662V25.666V25.6701C58.5178 25.8491 58.5178 26.0265 58.5178 26.2056V26.2259H58.5381C58.7463 26.2259 58.9546 26.2259 59.1628 26.2259C59.1641 28.6004 59.1581 30.9751 59.1628 33.3497C59.1821 33.7704 59.2002 34.22 59.4184 34.5992H59.4225C59.5687 34.817 59.7883 34.9857 60.0472 35.0495C60.4429 35.1643 60.8593 35.163 61.2643 35.1306H61.2683C61.6231 35.086 61.9842 34.9489 62.2136 34.66C62.4188 34.4156 62.5156 34.0949 62.5584 33.7837C62.6101 33.3336 62.578 32.881 62.5868 32.4328C62.5868 32.263 62.5868 32.0915 62.5868 31.9217V31.9014H62.5665C62.3285 31.9014 62.0905 31.9014 61.8525 31.9014H61.8322V31.9217C61.8281 32.5083 61.8407 33.0932 61.8241 33.6783C61.8156 33.7663 61.8083 33.8631 61.7835 33.9501C61.7593 34.0351 61.7167 34.1106 61.6415 34.157C61.566 34.1967 61.4655 34.2118 61.3779 34.1935C61.2902 34.1752 61.2162 34.1271 61.1791 34.0434C61.0739 33.7752 61.1168 33.4749 61.106 33.1833C61.106 30.8696 61.106 28.5558 61.106 26.2421C61.582 26.2421 62.058 26.2421 62.534 26.2421H62.5543V26.2218C62.5543 25.977 62.5543 25.7323 62.5543 25.4875V25.4672H62.534C62.0635 25.4672 61.5929 25.4672 61.1223 25.4672C61.1223 24.6437 61.1223 23.8202 61.1223 22.9966V22.9763H61.102C60.8762 22.9763 60.6503 22.9763 60.4245 22.9763H60.4123ZM60.4407 23.0169C60.6544 23.0169 60.868 23.0169 61.0817 23.0169C61.0817 23.8404 61.0817 24.664 61.0817 25.4875V25.5078H61.102C61.5726 25.5078 62.0432 25.5078 62.5138 25.5078C62.5138 25.739 62.5138 25.9703 62.5138 26.2015C62.0378 26.2015 61.5618 26.2015 61.0858 26.2015H61.0655V26.2218C61.0655 28.5423 61.0655 30.8628 61.0655 33.1833C61.0761 33.4695 61.0281 33.778 61.1385 34.0596C61.1817 34.1571 61.2722 34.2137 61.3697 34.2341C61.4673 34.2544 61.5727 34.2423 61.6578 34.1975V34.1935H61.6618C61.7516 34.1406 61.7976 34.0551 61.8241 33.9622C61.8506 33.8694 61.8562 33.7695 61.8647 33.6823C61.8812 33.1026 61.8691 32.521 61.8728 31.9419C62.0973 31.9419 62.3217 31.9419 62.5462 31.9419C62.5462 32.105 62.5462 32.2697 62.5462 32.4328C62.5374 32.8835 62.5689 33.3306 62.5178 33.7756C62.4756 34.0822 62.3789 34.4001 62.1811 34.6357C61.9619 34.9118 61.6108 35.0458 61.2643 35.09C61.263 35.0902 61.2615 35.0899 61.2602 35.09C60.8588 35.1219 60.4463 35.1212 60.0594 35.0089H60.0553C59.8072 34.9478 59.5958 34.7887 59.4549 34.5789C59.2433 34.2111 59.2267 33.7705 59.2074 33.3497C59.2027 30.9684 59.2047 28.5869 59.2034 26.2056V26.1853H59.1831C58.9749 26.1853 58.7666 26.1853 58.5584 26.1853C58.5584 26.0144 58.5584 25.845 58.5584 25.6741C58.5584 25.6728 58.5584 25.6714 58.5584 25.6701C58.5626 25.65 58.5602 25.6267 58.5584 25.6052C58.5564 25.5823 58.5542 25.5627 58.5543 25.5443C58.5544 25.526 58.5589 25.5115 58.5624 25.5078C58.5659 25.5041 58.5748 25.5015 58.5989 25.5078H58.603C58.8432 25.5164 59.1082 25.51 59.3089 25.3455C59.4724 25.2263 59.5852 25.0493 59.6902 24.8749V24.8709C60.013 24.284 60.2265 23.6471 60.4407 23.0169ZM28.485 25.3131C28.062 25.3422 27.6512 25.5302 27.3532 25.8283C27.1949 25.98 27.0551 26.146 26.9353 26.3313C26.9353 26.0135 26.9353 25.6958 26.9353 25.378V25.3577H26.915C26.0751 25.4139 25.2355 25.476 24.3957 25.5321H24.3755V25.5524C24.3755 25.7755 24.3755 25.9987 24.3755 26.2218V26.2421H24.3957C24.5601 26.254 24.7237 26.2163 24.8704 26.2664C24.9304 26.2907 24.966 26.3424 24.988 26.4084C25.0101 26.4744 25.0159 26.5522 25.0164 26.6194C25.0221 28.5232 25.0189 30.4273 25.0205 32.3314C25.017 32.9061 25.029 33.482 25.0164 34.0555C25.0136 34.11 24.9953 34.1627 24.9678 34.2016C24.9402 34.2405 24.9045 34.2661 24.8501 34.2706H24.8461C24.7037 34.2874 24.5596 34.2745 24.412 34.2787H24.3917V34.299C24.3917 34.5221 24.3917 34.7452 24.3917 34.9683V34.9886H24.412C25.3964 34.9886 26.3809 34.9886 27.3654 34.9886H27.3856V34.9683C27.3856 34.7452 27.3856 34.5221 27.3856 34.299V34.2787H27.3654C27.2393 34.2686 27.1127 34.295 27.0084 34.2462C26.9754 34.1932 26.9645 34.1311 26.9637 34.0637C26.963 33.9947 26.969 33.9225 26.9637 33.8527C26.9636 33.8514 26.9638 33.85 26.9637 33.8487C26.9652 31.8448 26.9627 29.8401 26.9678 27.8364C26.9796 27.5044 26.9844 27.151 27.1503 26.8628C27.1898 26.7945 27.2525 26.7163 27.3126 26.6762C27.5107 26.5378 27.7792 26.5121 28.0063 26.591C28.0798 26.6185 28.1337 26.6788 28.1727 26.7532C28.2116 26.8277 28.2361 26.9151 28.2457 26.9967C28.2848 27.3794 28.2581 27.769 28.266 28.1569C28.2649 30.1323 28.2657 32.1048 28.2619 34.0799H28.266C28.2622 34.1352 28.2421 34.1833 28.2132 34.2178C28.1844 34.2523 28.147 34.2721 28.0915 34.2746C28.003 34.2798 27.911 34.2771 27.8197 34.2787H27.7994V34.299C27.7994 34.5221 27.7994 34.7452 27.7994 34.9683V34.9886H27.8197C28.7555 34.9886 29.6913 34.9886 30.627 34.9886H30.6473V34.9683C30.6473 34.7452 30.6473 34.5221 30.6473 34.299V34.2787H30.627C30.5583 34.2731 30.4838 34.2821 30.4161 34.2787C30.3504 34.2754 30.2956 34.262 30.2538 34.2138C30.2533 34.2125 30.2543 34.2109 30.2538 34.2097C30.1895 34.0584 30.2243 33.8795 30.2132 33.7067C30.2132 33.7053 30.2133 33.704 30.2132 33.7026C30.2119 31.4573 30.2181 29.2095 30.2132 26.9642C30.1938 26.5723 30.1344 26.1519 29.8928 25.8242C29.6581 25.4898 29.241 25.3396 28.8461 25.3171C28.7249 25.3042 28.6059 25.3061 28.485 25.3131ZM28.485 25.3536C28.6043 25.3467 28.7238 25.3451 28.842 25.3577L28.8461 25.3618C29.2321 25.3837 29.6356 25.5282 29.8603 25.8486V25.8526C30.0938 26.1692 30.1493 26.5749 30.1686 26.9642C30.1735 29.2107 30.1713 31.46 30.1727 33.7067C30.1841 33.8735 30.1391 34.0606 30.2132 34.23L30.2173 34.2341C30.2689 34.2975 30.3432 34.3156 30.4161 34.3192C30.482 34.3226 30.5484 34.317 30.6068 34.3192C30.6068 34.5288 30.6068 34.7385 30.6068 34.9481C29.6845 34.9481 28.7623 34.9481 27.84 34.9481C27.84 34.7385 27.84 34.5288 27.84 34.3192C27.9229 34.3186 28.0068 34.3242 28.0915 34.3192C28.1572 34.3163 28.2099 34.285 28.2457 34.2422C28.2815 34.1993 28.3023 34.1461 28.3065 34.0839V34.0799C28.3103 32.1047 28.3055 30.1282 28.3065 28.1529C28.2987 27.7674 28.3258 27.3801 28.2863 26.9926C28.2762 26.907 28.2513 26.8135 28.2092 26.733C28.1671 26.6525 28.1081 26.5825 28.0226 26.5504C27.7831 26.4672 27.4986 26.4968 27.2883 26.6437C27.2183 26.6904 27.1594 26.7706 27.1179 26.8425C26.9451 27.1428 26.9349 27.5048 26.9232 27.8364C26.9181 29.8416 26.9246 31.8476 26.9232 33.8527C26.9286 33.9181 26.9224 33.9901 26.9232 34.0637C26.924 34.1373 26.9327 34.2143 26.9759 34.2787L26.98 34.2827L26.984 34.2868C27.1009 34.3463 27.2308 34.3146 27.3451 34.3192C27.3451 34.5288 27.3451 34.7385 27.3451 34.9481C26.3741 34.9481 25.4032 34.9481 24.4323 34.9481C24.4323 34.7385 24.4323 34.5288 24.4323 34.3192C24.5702 34.3168 24.7129 34.3278 24.8542 34.3111C24.9204 34.3057 24.9709 34.2731 25.0043 34.2259C25.0377 34.1788 25.0539 34.1163 25.057 34.0555C25.0696 33.4809 25.0576 32.9054 25.0611 32.3314C25.0594 30.4274 25.0668 28.5233 25.0611 26.6194C25.0605 26.5498 25.053 26.4691 25.0286 26.3962C25.0043 26.3234 24.9608 26.2598 24.8866 26.2299C24.7321 26.1771 24.5664 26.2085 24.416 26.2015C24.416 25.9919 24.416 25.7823 24.416 25.5727C25.2425 25.5173 26.0685 25.4536 26.8948 25.3983C26.8948 25.7282 26.8948 26.0582 26.8948 26.3881V26.4612L26.9313 26.4003C27.0533 26.1983 27.2107 26.0245 27.3816 25.8607C27.6724 25.5698 28.0725 25.382 28.485 25.3536ZM51.9579 25.3131C51.4194 25.3316 50.872 25.4872 50.4406 25.8202C50.2408 26.0002 50.0434 26.206 49.9497 26.4693H49.9538C49.7636 26.93 49.865 27.4735 50.1445 27.8729C50.2707 28.0356 50.4399 28.1775 50.6516 28.2218C50.9511 28.2944 51.272 28.1693 51.4751 27.95C51.6958 27.739 51.755 27.387 51.6212 27.1102C51.5092 26.8561 51.2913 26.6719 51.0735 26.518V26.5139C50.978 26.4475 50.8764 26.389 50.7733 26.3354C50.9713 26.2001 51.2197 26.1491 51.4589 26.1082C51.4602 26.1081 51.4616 26.1083 51.4629 26.1082C51.7372 26.0887 52.03 26.0807 52.2743 26.2056C52.3723 26.2634 52.4458 26.3395 52.4812 26.453C52.5834 26.7879 52.5345 27.1506 52.5461 27.5038C52.5461 27.9654 52.5461 28.4255 52.5461 28.8871C51.9379 29.097 51.3222 29.3052 50.7571 29.6214C50.3503 29.8556 49.9852 30.1826 49.7712 30.6072C49.5372 31.089 49.4658 31.626 49.4386 32.1529C49.4098 32.7927 49.4223 33.4549 49.6252 34.0718C49.7266 34.3569 49.8808 34.6279 50.1161 34.8263C50.4024 35.0829 50.8068 35.1726 51.183 35.1468C51.6177 35.1248 52.0425 34.9292 52.3311 34.6032C52.4881 34.4361 52.6194 34.2464 52.7287 34.0434C52.803 34.3534 52.8872 34.6911 53.1546 34.8994C53.4089 35.1156 53.7641 35.143 54.0796 35.1509C54.4406 35.1492 54.8508 35.085 55.106 34.798C55.3159 34.5834 55.3971 34.2786 55.4508 33.9947C55.4972 33.7018 55.5061 33.405 55.5076 33.1103V33.09H55.4873C55.2858 33.09 55.0844 33.09 54.8829 33.09H54.8626V33.1103C54.8586 33.4072 54.8733 33.7052 54.822 33.9947C54.8086 34.0831 54.7334 34.1483 54.6435 34.1367H54.6395C54.5951 34.1438 54.5654 34.1257 54.5421 34.0961C54.5187 34.0666 54.5036 34.0235 54.5056 33.9825C54.48 33.5441 54.4996 33.1013 54.4934 32.66C54.4916 30.9684 54.4958 29.2766 54.4893 27.5849C54.4795 27.0404 54.3778 26.4663 54.035 26.023C53.8621 25.8168 53.6495 25.6389 53.3981 25.5321C52.9476 25.3332 52.4417 25.296 51.9579 25.3131ZM51.9579 25.3536C52.4385 25.3366 52.94 25.3776 53.3818 25.5727C53.626 25.6764 53.8331 25.8452 54.0025 26.0474C54.3372 26.4801 54.439 27.0452 54.4488 27.5849C54.4552 29.2764 54.451 30.9683 54.4528 32.66C54.459 33.0997 54.4393 33.5412 54.465 33.9825C54.4626 34.033 54.4748 34.0856 54.5056 34.1245C54.5345 34.1611 54.5856 34.1783 54.6395 34.1732C54.6429 34.1729 54.6441 34.1778 54.6476 34.1773C54.648 34.1773 54.6472 34.1732 54.6476 34.1732C54.7554 34.1819 54.8467 34.1077 54.8626 34.0028C54.9137 33.7139 54.9001 33.4193 54.9031 33.1306C55.0911 33.1306 55.2791 33.1306 55.467 33.1306C55.4652 33.4178 55.455 33.7037 55.4102 33.9866C55.357 34.2682 55.2774 34.5652 55.0776 34.7696H55.0735C54.831 35.0424 54.4358 35.1086 54.0796 35.1103C53.7659 35.1024 53.4241 35.0719 53.183 34.8669C52.9173 34.66 52.8341 34.3124 52.7571 33.9906L52.7449 33.9338L52.7165 33.9866C52.6052 34.2033 52.4644 34.4024 52.2987 34.5789C52.0181 34.8958 51.6028 35.0848 51.179 35.1063C50.8113 35.1314 50.4158 35.0406 50.1404 34.7939C49.9127 34.6019 49.7656 34.3362 49.6658 34.0555C49.4655 33.4465 49.4505 32.795 49.4792 32.157C49.5062 31.6324 49.5816 31.0973 49.8118 30.6235C50.0211 30.208 50.3758 29.8891 50.7773 29.6579C51.3416 29.3422 51.9621 29.135 52.5745 28.9237L52.5867 28.9196V28.9034C52.5867 28.4363 52.5867 27.9708 52.5867 27.5038V27.4997C52.5753 27.1513 52.6233 26.787 52.5177 26.4409C52.4792 26.317 52.399 26.2347 52.2946 26.1731V26.1691C52.0367 26.0372 51.7357 26.0478 51.4589 26.0676H51.4548C51.2022 26.1108 50.9302 26.1585 50.7165 26.3192L50.6881 26.3394L50.7205 26.3557C50.8352 26.4131 50.9439 26.4772 51.0492 26.5504C51.2647 26.7027 51.4777 26.8838 51.5847 27.1265C51.7103 27.3863 51.6533 27.724 51.4467 27.9216H51.4427C51.2491 28.1306 50.942 28.2497 50.6597 28.1813C50.4609 28.1396 50.2993 28.0062 50.1769 27.8486C49.9048 27.4597 49.8065 26.9307 49.9903 26.4855C50.0802 26.2329 50.2669 26.031 50.465 25.8526C50.8879 25.5262 51.4265 25.3719 51.9579 25.3536ZM46.6069 25.3131C46.0549 25.3471 45.5274 25.6159 45.1627 26.0271C44.8018 26.3981 44.5649 26.8691 44.3878 27.3496C44.0483 28.2992 43.9597 29.3152 43.9537 30.3151C43.9662 31.2477 44.0182 32.1967 44.2864 33.0981C44.4162 33.5197 44.5921 33.9306 44.8625 34.2827C45.0749 34.5439 45.3354 34.7757 45.6454 34.9197C46.1321 35.1535 46.6889 35.1821 47.2154 35.1266C47.6456 35.0802 48.1023 34.9548 48.4122 34.6316C48.5231 34.5231 48.6073 34.4182 48.684 34.2787C48.9351 33.8179 48.988 33.282 49.0005 32.7695C49.0017 32.5077 48.9921 32.2475 48.9721 31.9866V31.9663H48.9518C48.7192 31.9663 48.4866 31.9663 48.254 31.9663H48.2337V31.9866C48.2415 32.4839 48.2452 32.9876 48.1526 33.4754C48.1103 33.69 48.0323 33.9116 47.8767 34.0515C47.6398 34.2421 47.3086 34.2196 47.0126 34.2057C46.803 34.1891 46.5918 34.1214 46.4528 33.9622C46.3921 33.8849 46.3219 33.7665 46.2864 33.6539C46.1269 33.1866 46.1163 32.6865 46.0876 32.1935C46.0638 31.4639 46.0615 30.733 46.0633 30.0028C47.0802 30.0028 48.0971 30.0028 49.114 30.0028H49.1343V29.9825C49.1281 28.9789 49.0987 27.9623 48.8382 26.9845V26.9804C48.7159 26.594 48.5672 26.1982 48.2824 25.8973C48.0161 25.5879 47.629 25.4032 47.2276 25.3455C47.0224 25.3097 46.8133 25.3054 46.6069 25.3131ZM46.6069 25.3536C46.8118 25.346 47.0226 25.351 47.2236 25.3861C47.6162 25.4425 47.9911 25.625 48.2499 25.9257C48.5264 26.2178 48.676 26.6089 48.7976 26.9926C48.7979 26.9939 48.7973 26.9954 48.7976 26.9967C49.0538 27.9607 49.0873 28.9672 49.0938 29.9622C48.0768 29.9622 47.0599 29.9622 46.043 29.9622H46.0227V29.9825C46.0209 30.7196 46.023 31.4563 46.0471 32.1935C46.0757 32.6854 46.0836 33.1948 46.2459 33.6702C46.2836 33.7901 46.357 33.9059 46.4203 33.9866C46.5691 34.1568 46.7918 34.2332 47.0085 34.2503H47.0126C47.308 34.2642 47.6485 34.2871 47.901 34.0839C48.0676 33.9343 48.15 33.7026 48.1931 33.4835V33.4795C48.2855 32.9929 48.2819 32.4978 48.2743 32.0068C48.4933 32.0068 48.7124 32.0068 48.9315 32.0068C48.9504 32.26 48.9611 32.5156 48.9599 32.7695C48.9474 33.2797 48.8933 33.8073 48.6475 34.2584C48.5726 34.3947 48.4925 34.4968 48.3838 34.6032H48.3798C48.0802 34.9156 47.6368 35.0401 47.2114 35.086C46.6893 35.1411 46.1423 35.1122 45.6657 34.8831H45.6617C45.3591 34.7426 45.1044 34.516 44.8949 34.2584C44.6287 33.9117 44.4559 33.5047 44.327 33.086C44.0607 32.1907 44.0068 31.2465 43.9943 30.3151C44.0003 29.3175 44.0912 28.3087 44.4284 27.3658C44.6044 26.8882 44.8362 26.4203 45.1911 26.0555H45.1951C45.5527 25.6524 46.0667 25.387 46.6069 25.3536ZM33.268 25.309C33.1764 25.3093 33.0819 25.3064 32.9881 25.3171C32.9868 25.3173 32.9854 25.317 32.9841 25.3171C32.4483 25.3553 31.9119 25.5852 31.5682 26.0068C31.2402 26.386 31.0887 26.8955 31.0611 27.3902C31.0389 27.911 31.0743 28.4446 31.2559 28.9399C31.4241 29.4134 31.7252 29.8275 32.0429 30.2056C32.48 30.7263 32.9424 31.2225 33.3776 31.7432C33.4727 31.8788 33.5969 32.0215 33.6859 32.1691L33.69 32.1732C33.9324 32.5202 34.0514 32.9466 34.0267 33.3699C34.0161 33.6067 33.9874 33.8557 33.8482 34.0474C33.7712 34.1503 33.6277 34.2396 33.4912 34.2706C33.2819 34.3259 33.0549 34.3251 32.8421 34.2827C32.6512 34.2357 32.4942 34.1353 32.3715 33.9825C32.2883 33.861 32.2023 33.7088 32.1524 33.5606C31.9735 33.0588 31.9328 32.5216 31.8441 31.9947V31.9866L31.8319 31.9784C31.7981 31.9605 31.7574 31.9647 31.7143 31.9663C31.6711 31.9678 31.6261 31.97 31.5926 31.9663C31.4254 31.9663 31.2567 31.9663 31.0895 31.9663H31.0692V31.9866C31.0692 32.9805 31.0692 33.9744 31.0692 34.9683V34.9886H31.0895C31.2964 34.9886 31.5033 34.9886 31.7102 34.9886H31.7264L31.7305 34.9724C31.7688 34.7956 31.8241 34.6054 31.9617 34.4896C31.9803 34.4746 31.9923 34.4722 32.0064 34.4734C32.0205 34.4746 32.0392 34.4818 32.0551 34.4937C32.0867 34.5175 32.1168 34.5581 32.1484 34.587C32.4999 34.952 33.0113 35.1462 33.5155 35.1509C34.0181 35.1582 34.5399 35.0334 34.9395 34.7128C35.1624 34.5271 35.3548 34.2964 35.475 34.0272C35.7536 33.4505 35.7672 32.7904 35.7021 32.1691C35.6444 31.5985 35.4265 31.0535 35.0977 30.587C34.8665 30.2564 34.5989 29.9574 34.335 29.6539C34.0157 29.2942 33.6796 28.951 33.3776 28.5788C33.2785 28.4403 33.1547 28.2884 33.0611 28.1366C32.8433 27.7948 32.7448 27.3816 32.7609 26.9764C32.7625 26.7803 32.8048 26.5649 32.9151 26.4165C33.0787 26.2135 33.3777 26.1763 33.6372 26.1975C33.8354 26.2051 34.0354 26.2617 34.1849 26.3922C34.2347 26.4251 34.2826 26.491 34.3188 26.5504C34.5008 26.8277 34.5385 27.1746 34.5784 27.5038C34.6087 27.7525 34.644 28.0019 34.6717 28.2502V28.2664H34.692C34.9368 28.2664 35.1815 28.2664 35.4263 28.2664H35.4466V28.2462C35.4466 27.3266 35.4466 26.4071 35.4466 25.4875V25.4672H35.4263C35.2248 25.4672 35.0233 25.4672 34.8218 25.4672H34.8056L34.8015 25.4835C34.7813 25.6409 34.7914 25.8069 34.7366 25.9459C34.7301 25.959 34.7306 25.9582 34.7285 25.9581C34.7264 25.9581 34.7183 25.9543 34.7082 25.9459C34.6982 25.9375 34.6871 25.9249 34.6758 25.9135C34.6658 25.9034 34.6548 25.8923 34.6433 25.8851C34.6419 25.8839 34.6407 25.8822 34.6393 25.881C34.2626 25.5534 33.7748 25.3303 33.268 25.309ZM33.268 25.3496C33.7655 25.3705 34.244 25.5934 34.6149 25.9175H34.619C34.6238 25.9201 34.6325 25.9309 34.6433 25.9419C34.6541 25.9528 34.6669 25.9676 34.6798 25.9784C34.6928 25.9892 34.7093 25.9983 34.7285 25.9987C34.7477 25.9991 34.7667 25.983 34.7772 25.9622C34.8346 25.8165 34.8213 25.6553 34.838 25.5078C35.0274 25.5078 35.2167 25.5078 35.406 25.5078C35.406 26.4138 35.406 27.3199 35.406 28.2259C35.1734 28.2259 34.9408 28.2259 34.7082 28.2259C34.6807 27.9824 34.6486 27.7425 34.619 27.4997C34.5791 27.171 34.5445 26.8184 34.3553 26.5301C34.3179 26.4688 34.2693 26.3995 34.2092 26.3597C34.0504 26.2211 33.8419 26.1648 33.6372 26.1569C33.3714 26.1352 33.06 26.1721 32.8826 26.3922C32.764 26.5518 32.722 26.7747 32.7204 26.9764C32.704 27.3893 32.8017 27.8071 33.0246 28.1569C33.1204 28.3122 33.2473 28.4664 33.3451 28.6032C33.6487 28.9772 33.9841 29.3235 34.3025 29.6823C34.5667 29.9861 34.8318 30.2835 35.0612 30.6113C35.3863 31.0725 35.6046 31.6104 35.6616 32.1732C35.7262 32.7909 35.7119 33.4449 35.4385 34.0109C35.3215 34.2731 35.1342 34.4978 34.9151 34.6803C34.5253 34.9931 34.0109 35.1134 33.5155 35.1063C33.0217 35.1016 32.5194 34.9144 32.1768 34.5586V34.5545C32.1502 34.5302 32.1182 34.4905 32.0794 34.4612C32.06 34.4466 32.0354 34.435 32.0104 34.4328C31.9854 34.4307 31.9582 34.437 31.9333 34.4572C31.7874 34.5799 31.7326 34.7735 31.694 34.9481C31.4993 34.9481 31.3045 34.9481 31.1098 34.9481C31.1098 33.9677 31.1098 32.9872 31.1098 32.0068C31.2689 32.0068 31.4295 32.0068 31.5885 32.0068C31.5899 32.0068 31.5912 32.0068 31.5926 32.0068C31.6317 32.0106 31.6741 32.0083 31.7143 32.0068C31.7526 32.0055 31.7871 32.0106 31.8076 32.019C31.8939 32.5382 31.9323 33.0733 32.1118 33.5768C32.1637 33.7309 32.2545 33.8834 32.339 34.0069C32.467 34.1662 32.6308 34.2742 32.8299 34.3233H32.834C33.052 34.3667 33.2826 34.3684 33.4993 34.3111C33.6463 34.2778 33.796 34.1849 33.8806 34.0718C34.0281 33.8686 34.0565 33.6129 34.0672 33.374C34.0925 32.9412 33.9703 32.5037 33.7224 32.1488C33.6306 31.9966 33.5031 31.8516 33.41 31.7188C32.974 31.1971 32.5116 30.6969 32.0753 30.1772C31.759 29.8007 31.462 29.3897 31.2964 28.9237C31.1175 28.4357 31.0796 27.9079 31.1017 27.3902C31.1289 26.9024 31.2804 26.4054 31.6007 26.0352C31.9365 25.6232 32.461 25.3943 32.9881 25.3577H32.9922C33.0831 25.3469 33.1741 25.3499 33.268 25.3496ZM22.0874 25.3212C21.3002 25.3212 20.6028 25.74 20.1036 26.5707C19.6044 27.4014 19.3004 28.6402 19.3004 30.2908C19.3004 32.102 19.5793 33.3126 20.0671 34.0718C20.5549 34.831 21.2542 35.1387 22.0874 35.1387C22.8786 35.1387 23.4813 34.9665 23.8602 34.4856C24.2392 34.0047 24.391 33.2192 24.2943 31.9947V31.9784H24.274H23.6006H23.5763L23.5803 31.9987C23.6046 33.0267 23.53 33.5869 23.3613 33.8852C23.2769 34.0343 23.1699 34.1163 23.0367 34.1651C22.9035 34.2139 22.7419 34.2259 22.5539 34.2259C22.2784 34.2259 22.0714 34.1922 21.913 34.088C21.7545 33.9838 21.6427 33.8108 21.5641 33.5282C21.4068 32.9629 21.3856 31.9668 21.3856 30.2624C21.3856 30.2026 21.3856 30.1062 21.3856 29.9906H24.4363H24.4566V29.9703C24.4566 28.2486 24.292 27.089 23.913 26.3557C23.534 25.6223 22.9365 25.3212 22.0874 25.3212ZM22.0874 25.3618C22.9268 25.3618 23.5034 25.6541 23.8765 26.376C24.2479 27.0947 24.4146 28.2432 24.416 29.95H21.3653H21.345V29.9703C21.345 30.099 21.345 30.1981 21.345 30.2624C21.345 31.9672 21.3631 32.9639 21.5235 33.5403C21.6037 33.8285 21.7199 34.0096 21.8886 34.1205C22.0573 34.2314 22.2748 34.2706 22.5539 34.2706C22.7436 34.2706 22.9078 34.2574 23.0489 34.2057C23.19 34.1539 23.3093 34.0619 23.3978 33.9054C23.5733 33.5952 23.6435 33.0331 23.6209 32.019H24.2538C24.3464 33.2259 24.1942 33.9962 23.8278 34.4612C23.4591 34.9291 22.8726 35.0982 22.0874 35.0982C21.2643 35.0982 20.5804 34.7998 20.0996 34.0515C19.6187 33.3031 19.341 32.0978 19.3409 30.2908C19.3409 28.6453 19.6425 27.4124 20.1361 26.591C20.6297 25.7696 21.3149 25.3618 22.0874 25.3618ZM21.986 26.1001C21.7656 26.0958 21.6017 26.2725 21.5438 26.4693C21.4055 26.9013 21.4072 27.3571 21.3734 27.7999C21.349 28.3028 21.3403 28.806 21.3328 29.3091V29.3293H21.3531C21.7953 29.3293 22.2375 29.3293 22.6797 29.3293H22.7V29.3091C22.6952 28.608 22.7121 27.9055 22.6919 27.2036C22.6714 26.8989 22.6874 26.5668 22.5337 26.2827V26.2786C22.4755 26.1835 22.385 26.135 22.2862 26.1123C22.1874 26.0896 22.0822 26.0932 21.986 26.1001ZM21.986 26.1407C22.0806 26.1339 22.1863 26.1318 22.2781 26.1528C22.3698 26.1739 22.4497 26.2187 22.5012 26.3029C22.6458 26.5731 22.6306 26.9006 22.6513 27.2076C22.6713 27.9014 22.655 28.5937 22.6594 29.2888C22.2308 29.2888 21.8021 29.2888 21.3734 29.2888C21.3808 28.7926 21.3899 28.2952 21.414 27.7999C21.4479 27.3548 21.4446 26.9052 21.5803 26.4814V26.4774C21.6341 26.2947 21.7881 26.1368 21.986 26.1407ZM52.611 29.3618L52.5786 29.3821L52.5705 29.3861L52.5583 29.3942C52.3546 29.5193 52.1365 29.6281 51.9538 29.7878C51.8383 29.8632 51.7329 29.9926 51.6414 30.1001H51.6374C51.3639 30.4981 51.3263 30.9973 51.2966 31.4592C51.2772 32.0514 51.2609 32.6472 51.2926 33.2401C51.3122 33.4446 51.3252 33.6759 51.4427 33.8568C51.5418 34.0116 51.7297 34.0468 51.897 34.0393C51.8984 34.0393 51.8998 34.0393 51.9011 34.0393C52.0941 34.0396 52.2923 33.9658 52.4082 33.804C52.5758 33.5792 52.5975 33.2794 52.611 33.0129C52.6155 31.808 52.6098 30.6031 52.611 29.3983V29.3618ZM52.5705 29.4348C52.5693 30.6276 52.5708 31.8204 52.5664 33.0129C52.5529 33.2788 52.5337 33.5678 52.3757 33.7797C52.2686 33.9293 52.0806 34 51.897 33.9988C51.7361 34.0066 51.5637 33.9707 51.4751 33.8324C51.3659 33.6643 51.357 33.442 51.3372 33.2361C51.3057 32.6452 51.3178 32.0511 51.3372 31.4592C51.3668 30.9996 51.4073 30.514 51.6698 30.1285C51.6711 30.1271 51.6727 30.1259 51.6739 30.1245C51.7648 30.0176 51.8727 29.8891 51.9782 29.8202C52.1519 29.6683 52.3685 29.5579 52.5705 29.4348Z" fill="black"/>
<path d="M65.022 22.0117L65.0017 22.0158L62.4783 22.2064L62.458 22.2105V22.2267V22.8718V22.8921H62.4783H62.7988C62.9001 22.8921 62.9724 22.9149 63.0219 22.9772C63.0715 23.0396 63.099 23.1475 63.099 23.3221V33.8049C63.099 33.9481 63.0847 34.0353 63.0422 34.0849C62.9998 34.1344 62.9254 34.1538 62.7988 34.1538H62.7015H62.6812V34.1741V34.8191H62.7015V34.8394H62.7258H65.4195H65.4398V34.8191V34.1741V34.1538H65.4195H65.2451C65.1422 34.1538 65.0858 34.1423 65.0585 34.1133C65.0311 34.0843 65.022 34.0301 65.022 33.9348V27.7765C65.022 27.3836 65.0561 27.0365 65.1721 26.7907C65.288 26.5449 65.4813 26.3972 65.8212 26.3972C65.9436 26.3972 66.0386 26.4171 66.1092 26.454C66.1798 26.4908 66.2277 26.5442 66.2634 26.6203C66.3347 26.7725 66.3485 27.013 66.3485 27.3424V33.8861C66.3485 34.0034 66.3199 34.068 66.2755 34.1051C66.2312 34.1423 66.1674 34.1538 66.0808 34.1538H65.9023H65.882V34.1741V34.8191V34.8394H65.9023H68.6853H68.7056V34.8191V34.1741V34.1538H68.6853H68.5392C68.4287 34.1538 68.3624 34.1387 68.3242 34.097C68.2861 34.0554 68.2715 33.9806 68.2715 33.8536V26.9895C68.2715 26.4082 68.1662 25.9537 67.9145 25.6466C67.6628 25.3396 67.2637 25.1842 66.6893 25.1842C65.9617 25.1842 65.4369 25.6023 65.022 26.2349V22.0361V22.0117ZM64.9814 22.0563V26.2957V26.3688L65.022 26.3079C65.4379 25.652 65.9577 25.2247 66.6893 25.2247C67.2561 25.2247 67.6394 25.3791 67.882 25.675C68.1247 25.971 68.2309 26.4132 68.2309 26.9895V33.8536C68.2309 33.9841 68.2456 34.0706 68.2958 34.1254C68.3461 34.1803 68.4247 34.1944 68.5392 34.1944H68.665V34.7989H65.9226V34.1944H66.0808C66.1711 34.1944 66.2476 34.1848 66.3039 34.1376C66.3603 34.0904 66.3891 34.0099 66.3891 33.8861V27.3424C66.3891 27.012 66.3774 26.7693 66.2999 26.6041C66.2611 26.5214 66.2081 26.4585 66.1295 26.4174C66.0508 26.3764 65.9478 26.3566 65.8212 26.3566C65.4692 26.3566 65.2566 26.5138 65.1356 26.7704C65.0145 27.027 64.9814 27.3814 64.9814 27.7765V33.9348C64.9814 34.0324 64.9892 34.0983 65.0301 34.1417C65.071 34.185 65.139 34.1944 65.2451 34.1944H65.3992V34.7989H62.7258V34.1944H62.7988C62.9297 34.1944 63.0206 34.1763 63.0747 34.1133C63.1287 34.0502 63.1436 33.9512 63.1436 33.8049V23.3221C63.1436 23.1431 63.1134 23.0271 63.0544 22.9529C62.9954 22.8787 62.9065 22.8515 62.7988 22.8515H62.4986V22.2511L64.9814 22.0563ZM51.7391 33.8704C51.2239 33.8704 51.1763 33.5322 51.1763 32.3261C51.1763 30.2039 51.3209 29.9145 52.4466 29.2869V32.6959C52.4466 33.372 52.334 33.8704 51.7391 33.8704ZM21.2308 29.1592C21.2785 26.2967 21.3755 25.9911 21.9544 25.9911C22.5976 25.9911 22.5328 26.3609 22.5328 29.1592H21.2308ZM21.9544 34.98C23.5304 34.98 24.3343 34.3041 24.1409 31.8603H23.466C23.5137 33.9183 23.1761 34.1116 22.4207 34.1116C21.3111 34.1116 21.2306 33.5322 21.2306 30.1236C21.2306 30.0593 21.2306 29.9629 21.2306 29.8342H24.3016C24.3016 26.3932 23.6423 25.2037 21.9542 25.2037C20.3939 25.2037 19.1883 26.8596 19.1883 30.1558C19.1884 33.7734 20.2981 34.98 21.9544 34.98ZM33.4139 34.98C34.7963 34.98 35.5682 34.0468 35.5682 32.6317C35.5682 31.1527 35.0541 30.5099 33.9923 29.3356C32.9797 28.226 32.5938 27.8081 32.5938 26.8918C32.5938 26.3609 32.7706 26.0234 33.3817 26.0234C33.9923 26.0234 34.3465 26.2646 34.4586 27.1968L34.5712 28.0978H35.2788V25.3644H34.7C34.6683 25.7018 34.6683 25.8946 34.5713 25.8461C34.4271 25.7179 33.8643 25.2036 33.0602 25.2036C31.9507 25.2036 30.9537 25.9107 30.9537 27.4705C30.9537 28.9337 31.4522 29.5124 32.5295 30.735C33.4623 31.7959 33.9281 32.2622 33.9281 33.1301C33.9281 33.8216 33.7355 34.2076 33.0119 34.2076C32.4005 34.2076 31.9984 33.9182 31.8059 32.6958L31.6773 31.86H30.9698V34.819H31.5647C31.629 34.513 31.7898 34.2235 31.9346 34.32C32.1433 34.5614 32.6259 34.98 33.4139 34.98ZM46.6203 34.98C48.1963 34.98 49.0003 34.3041 48.8069 31.8603H48.1319C48.1802 33.9183 47.8426 34.1116 47.0866 34.1116C45.9771 34.1116 45.8967 33.5322 45.8967 30.1236C45.8967 30.0593 45.8967 29.9629 45.8967 29.8342H48.9676C48.9676 26.3932 48.3089 25.2037 46.6203 25.2037C45.0604 25.2037 43.8544 26.8596 43.8544 30.1558C43.8544 33.7734 44.9645 34.98 46.6203 34.98ZM50.9351 34.98C51.8839 34.98 52.3501 34.3041 52.6076 33.8217C52.7683 34.5613 52.9769 34.98 53.9582 34.98C55.0835 34.98 55.3406 34.3041 55.3406 32.986H54.7623C54.7623 33.9348 54.7296 34.0313 54.5211 34.0313C54.3276 34.0313 54.3277 33.9509 54.3277 33.4197V27.5671C54.3277 25.6853 53.3151 25.2037 51.9804 25.2037C50.2757 25.2037 49.3109 26.3932 49.9543 27.5832C50.2276 28.0814 50.7583 28.2262 51.2081 27.8888C51.6749 27.5353 51.7553 26.795 50.5654 26.2006C50.7261 26.0556 51.1924 25.9268 51.5141 25.9268C52.4468 25.9268 52.4468 26.265 52.4468 27.1333C52.4468 27.2617 52.4468 28.5321 52.4468 28.7731C50.1313 29.5615 49.3273 29.9952 49.3273 32.4881C49.327 34.4171 50.0666 34.98 50.9351 34.98ZM24.2914 34.8193H27.218V34.176H27.0407C26.8317 34.176 26.7995 34.1273 26.7995 33.9348V27.7763C26.7995 26.9883 26.9281 26.3772 27.6195 26.3772C28.118 26.3772 28.1667 26.6827 28.1667 27.342V33.8861C28.1667 34.1273 28.0536 34.176 27.8768 34.176H27.7V34.8193H30.4815V34.176H30.3373C30.1122 34.176 30.0479 34.1116 30.0479 33.8543V26.9883C30.0479 25.8304 29.6298 25.2036 28.4885 25.2036C27.7483 25.2036 27.1855 25.6376 26.7674 26.2965V25.2514L24.2754 25.4282V26.0714H24.5971C24.8061 26.0714 24.9188 26.1681 24.9188 26.5216V33.8056C24.9188 34.0955 24.8539 34.176 24.5971 34.176H24.2915V34.8193H24.2914ZM59.0606 32.873C59.0606 34.4011 59.2696 34.98 60.7812 34.98C61.7617 34.98 62.4211 34.5613 62.4211 33.1629V31.796H61.73V33.3077C61.73 33.8705 61.6497 34.0957 61.328 34.0957C61.0063 34.0957 60.942 33.8705 60.942 33.372V26.0716H62.3889V25.3644H60.9581V22.8718H60.2989C59.5592 25.1067 59.2214 25.3646 58.6104 25.3646H58.4175V26.0556H59.0607L59.0606 32.873ZM9.93977 34.8193H12.4489V34.176H12.063C11.7087 34.176 11.5484 33.7573 11.5484 33.1785V25.1228L13.574 34.8026H14.5389L16.5649 25.0908V33.3392C16.5649 33.9182 16.4685 34.1759 16.1468 34.1759H15.6966V34.8191H19.3142V34.1759H19.0408C18.7193 34.1759 18.6232 33.9182 18.6232 33.3392V23.7079C18.6232 23.1292 18.7193 22.8718 19.0408 22.8718H19.3142V22.2285H16.2917L14.7157 30.1724L13.0433 22.2285H9.93977V22.8718H10.1976C10.5193 22.8718 10.7122 23.2577 10.7122 23.853V33.1786C10.7122 33.7575 10.5193 34.1761 10.1976 34.1761H9.93977V34.8193ZM35.8581 34.8193H39.5079V34.176H39.1381C38.7999 34.176 38.704 34.0629 38.704 33.5002V28.8377H41.1482V33.5002C41.1482 34.0629 41.0351 34.176 40.7136 34.176H40.3441V34.8193H43.9779V34.176H43.6562C43.3184 34.176 43.2224 34.0629 43.2224 33.5002V23.5474C43.2224 22.968 43.3184 22.8718 43.6562 22.8718H43.9779V22.2285H40.3441V22.8718H40.7136C41.0351 22.8718 41.1482 22.968 41.1482 23.5474V28.0814H38.704V23.5474C38.704 22.968 38.7999 22.8718 39.1381 22.8718H39.5079V22.2285H35.8581V22.8718H36.1953C36.533 22.8718 36.6295 22.968 36.6295 23.5474V33.8219C36.6295 34.0957 36.533 34.1761 36.1953 34.1761H35.8581V34.8193ZM55.5555 34.8193H58.5299V34.176H58.1439C57.9349 34.176 57.8546 34.0957 57.8546 33.8378V22.0358L55.3304 22.2284V22.8717H55.6837C55.8933 22.8717 55.9736 22.9359 55.9736 23.1931V33.8704C55.9736 34.1115 55.9409 34.176 55.7163 34.176H55.5556L55.5555 34.8193ZM62.7028 34.8193H65.4204V34.176H65.2431C65.0346 34.176 65.002 34.1273 65.002 33.9348V27.7763C65.002 26.9883 65.1306 26.3772 65.8224 26.3772C66.3206 26.3772 66.3687 26.6827 66.3687 27.342V33.8861C66.3687 34.1273 66.2563 34.176 66.0794 34.176H65.9031V34.8193H68.684V34.176H68.5394C68.3147 34.176 68.2503 34.1116 68.2503 33.8543V26.9883C68.2503 25.8304 67.8322 25.2036 66.6904 25.2036C65.9508 25.2036 65.4205 25.6376 65.002 26.2965V22.0358L62.4773 22.2284V22.8717H62.7994C63.0079 22.8717 63.1211 22.9679 63.1211 23.3219V33.8056C63.1211 34.0955 63.0568 34.176 62.7994 34.176H62.7029V34.8193H62.7028ZM30.5302 25.6853C32.1377 24.48 32.4594 23.5793 31.9291 22.7591C31.6398 22.3089 30.9804 22.0197 30.498 22.4216C29.9186 22.904 30.0639 23.7559 31.1412 24.2222C30.9478 24.4475 30.498 24.8977 30.1281 25.2514L30.5302 25.6853ZM45.8966 29.1592C45.9453 26.2967 46.0413 25.9911 46.6202 25.9911C47.2634 25.9911 47.199 26.3609 47.199 29.1592H45.8966ZM28.4902 25.1842C27.7638 25.1842 27.2069 25.6004 26.7903 26.2308V25.2531V25.2288L26.766 25.2328L24.2751 25.4073H24.2548V25.4276V26.0726V26.0929H24.2751H24.5956C24.6967 26.0929 24.7691 26.1158 24.8187 26.1781C24.8683 26.2404 24.8999 26.3484 24.8999 26.5229V33.8049C24.8999 33.9481 24.8815 34.0353 24.839 34.0849C24.7965 34.1344 24.7219 34.1538 24.5956 34.1538H24.2913H24.2711V34.1741V34.8191V34.8394H24.2913H27.2204H27.2407V34.8191V34.1741V34.1538H27.2204H27.0419C26.939 34.1538 26.8827 34.1423 26.8553 34.1133C26.8279 34.0843 26.8187 34.0301 26.8187 33.9348V27.7765C26.8187 27.3836 26.8528 27.0365 26.9688 26.7907C27.0849 26.5449 27.2783 26.3972 27.6179 26.3972C27.7405 26.3972 27.8354 26.4171 27.906 26.454C27.9766 26.4908 28.0245 26.5442 28.0601 26.6203C28.1314 26.7725 28.1453 27.013 28.1453 27.3424V33.8861C28.1453 34.0035 28.1206 34.068 28.0764 34.1051C28.0321 34.1423 27.9641 34.1538 27.8776 34.1538H27.6991H27.6788V34.1741V34.8191V34.8394H27.6991H30.4821H30.5023V34.8191V34.1741V34.1538H30.4821H30.336C30.2254 34.1538 30.1632 34.1387 30.1251 34.097C30.0869 34.0554 30.0683 33.9806 30.0683 33.8536V26.9895C30.0683 26.4082 29.963 25.9537 29.7113 25.6466C29.4595 25.3396 29.0646 25.1842 28.4902 25.1842ZM28.4902 25.2247C29.057 25.2247 29.4362 25.3791 29.6788 25.675C29.9215 25.971 30.0277 26.4132 30.0277 26.9895V33.8536C30.0277 33.9841 30.0424 34.0706 30.0926 34.1254C30.1429 34.1803 30.2215 34.1944 30.336 34.1944H30.4618V34.7989H27.7194V34.1944H27.8776C27.9679 34.1944 28.0445 34.1848 28.1007 34.1376C28.157 34.0904 28.1859 34.0099 28.1859 33.8861V27.3424C28.1859 27.012 28.1781 26.7693 28.1007 26.6041C28.062 26.5214 28.0049 26.4585 27.9263 26.4174C27.8476 26.3764 27.7447 26.3566 27.6179 26.3566C27.2661 26.3566 27.0535 26.5138 26.9323 26.7704C26.8112 27.027 26.7782 27.3814 26.7782 27.7765V33.9348C26.7782 34.0324 26.7859 34.0983 26.8269 34.1417C26.8678 34.185 26.9358 34.1944 27.0419 34.1944H27.196V34.7989H24.3116V34.1944H24.5956C24.7262 34.1944 24.8173 34.1763 24.8715 34.1133C24.9256 34.0502 24.9404 33.9512 24.9404 33.8049V26.5229C24.9404 26.344 24.9102 26.2239 24.8512 26.1497C24.7921 26.0755 24.7031 26.0523 24.5956 26.0523H24.2954V25.4479L26.7457 25.2734V26.2957V26.3688L26.7863 26.3079C27.202 25.6524 27.758 25.2247 28.4902 25.2247ZM21.9546 25.1842C21.1671 25.1842 20.47 25.6029 19.9708 26.4337C19.4716 27.2644 19.1676 28.5031 19.1676 30.1538C19.1676 31.9648 19.4464 33.1756 19.9343 33.9348C20.4222 34.6939 21.1214 35.0017 21.9546 35.0017C22.7455 35.0017 23.3485 34.8294 23.7274 34.3486C24.1064 33.8677 24.2584 33.0822 24.1615 31.8577V31.8374H24.1412H23.4678H23.4435L23.4475 31.8617C23.4716 32.8897 23.3972 33.4499 23.2284 33.7481C23.1441 33.8973 23.0371 33.9793 22.9039 34.0281C22.7707 34.0769 22.6091 34.0889 22.4211 34.0889C22.1455 34.0889 21.9386 34.0552 21.7802 33.951C21.6217 33.8468 21.5099 33.6738 21.4313 33.3911C21.274 32.8258 21.2528 31.8257 21.2528 30.1213C21.2528 30.062 21.2528 29.9687 21.2528 29.8536H24.3035H24.3238V29.8333C24.3238 28.1115 24.159 26.9521 23.7802 26.2187C23.4014 25.4853 22.8035 25.1842 21.9546 25.1842ZM21.9546 25.2247C22.7937 25.2247 23.3708 25.5171 23.7437 26.2389C24.1149 26.9577 24.2818 28.106 24.2832 29.813H21.2325H21.2122V29.8333C21.2122 29.9616 21.2122 30.0575 21.2122 30.1213C21.2122 31.826 21.2303 32.8228 21.3907 33.3993C21.4709 33.6875 21.5871 33.8725 21.7558 33.9834C21.9245 34.0943 22.1419 34.1335 22.4211 34.1335C22.6108 34.1335 22.7749 34.1203 22.9161 34.0686C23.0572 34.0169 23.1764 33.9249 23.265 33.7684C23.4403 33.4587 23.5101 32.8929 23.4881 31.882H24.1209C24.2139 33.0889 24.0614 33.8592 23.695 34.3242C23.3263 34.7921 22.7396 34.9571 21.9546 34.9571C21.1314 34.9571 20.4477 34.6628 19.9667 33.9145C19.4858 33.1662 19.2081 31.9606 19.2081 30.1538C19.2081 28.5082 19.5096 27.2754 20.0033 26.454C20.4969 25.6325 21.1818 25.2247 21.9546 25.2247ZM21.9546 25.9712C21.8081 25.9712 21.6859 25.991 21.5895 26.0686C21.4931 26.1461 21.4262 26.2752 21.3745 26.4945C21.2709 26.9331 21.2363 27.7286 21.2122 29.1599V29.1801H21.2325H22.5347H22.555V29.1599C22.555 27.7612 22.5711 26.9691 22.5063 26.5229C22.4739 26.2998 22.4217 26.1601 22.3319 26.0767C22.242 25.9932 22.1174 25.9712 21.9546 25.9712ZM21.9546 26.0118C22.1134 26.0118 22.2246 26.0358 22.3035 26.1091C22.3824 26.1824 22.4339 26.3079 22.4658 26.527C22.529 26.9625 22.5146 27.7563 22.5144 29.1396H21.2528C21.2769 27.7248 21.3142 26.9338 21.415 26.5067C21.4658 26.2918 21.5319 26.1702 21.6179 26.101C21.7038 26.0319 21.8117 26.0118 21.9546 26.0118ZM46.6202 25.9712C46.4736 25.9712 46.3514 25.991 46.255 26.0686C46.1586 26.1461 46.0918 26.2793 46.04 26.4986C45.9365 26.9372 45.9021 27.7284 45.8778 29.1599L45.8737 29.1801H45.898H47.2003H47.2206V29.1599C47.2206 27.7609 47.2368 26.9691 47.1719 26.5229C47.1394 26.2998 47.0873 26.1602 46.9974 26.0767C46.9075 25.9932 46.783 25.9712 46.6202 25.9712ZM46.6202 26.0118C46.779 26.0118 46.8901 26.0358 46.969 26.1091C47.048 26.1824 47.0995 26.3078 47.1313 26.527C47.1947 26.9626 47.1802 27.7561 47.18 29.1396H45.9183C45.9427 27.7246 45.9798 26.9339 46.0806 26.5067C46.1313 26.2918 46.1975 26.1702 46.2834 26.101C46.3694 26.0318 46.4773 26.0118 46.6202 26.0118ZM30.8796 22.2227C30.742 22.2456 30.6094 22.3025 30.4861 22.4052C30.1912 22.6508 30.077 22.995 30.1778 23.3342C30.277 23.6679 30.5808 23.9966 31.1068 24.2308C30.9087 24.4587 30.4751 24.8902 30.1129 25.2369L30.1007 25.2491L30.1129 25.2653L30.5145 25.6994L30.5267 25.7116L30.5429 25.7034C31.3481 25.0995 31.8346 24.5685 32.0521 24.0848C32.2696 23.601 32.2146 23.1608 31.9466 22.746C31.7991 22.5168 31.56 22.331 31.2934 22.2511C31.1601 22.2111 31.0173 22.1997 30.8796 22.2227ZM30.8877 22.2632C31.0185 22.2415 31.1532 22.2532 31.2813 22.2916C31.5373 22.3685 31.7682 22.5498 31.9101 22.7703C32.1723 23.1761 32.2242 23.5955 32.0115 24.0685C31.8003 24.5384 31.3235 25.058 30.5307 25.6548L30.1575 25.2491C30.5242 24.8975 30.9637 24.4583 31.1555 24.2349L31.1758 24.2146L31.1514 24.2024C30.6167 23.9709 30.3147 23.6461 30.2184 23.3221C30.1221 22.998 30.226 22.6745 30.5105 22.4377C30.6283 22.3394 30.757 22.285 30.8877 22.2632ZM57.8738 22.0117L57.8535 22.0158L55.3302 22.2064L55.3099 22.2105V22.2267V22.8718V22.8921H55.3302H55.6831C55.7857 22.8921 55.8538 22.9068 55.8941 22.9488C55.9344 22.9909 55.9549 23.0658 55.9549 23.1923V33.8698C55.9549 33.9895 55.9446 34.0624 55.9144 34.1011C55.8992 34.1204 55.8771 34.1327 55.8454 34.1417C55.8137 34.1506 55.7709 34.1538 55.7156 34.1538H55.5574H55.533V34.1741V34.8191H55.5574V34.8394H55.5776H58.531H58.5513V34.8191V34.1741V34.1538H58.531H58.1456C58.0438 34.1538 57.9796 34.1351 57.9387 34.0889C57.8979 34.0427 57.8738 33.964 57.8738 33.8374V22.0361V22.0117ZM57.8332 22.0563V33.8374C57.8332 33.9683 57.8547 34.059 57.9063 34.1173C57.9578 34.1756 58.0385 34.1944 58.1456 34.1944H58.5107V34.7989H55.5776V34.1944H55.7156C55.7728 34.1944 55.8199 34.1929 55.8576 34.1822C55.8953 34.1716 55.9258 34.1523 55.9468 34.1254C55.9889 34.0716 55.9955 33.9914 55.9955 33.8698V23.1923C55.9955 23.0615 55.9745 22.9748 55.9225 22.9204C55.8704 22.8661 55.7899 22.8515 55.6831 22.8515H55.3505V22.2511L57.8332 22.0563ZM35.8371 22.2064V22.2267V22.8718V22.8921H35.8574H36.1941C36.2775 22.8921 36.3478 22.8994 36.401 22.9164C36.4542 22.9334 36.492 22.9611 36.5227 23.0056C36.5841 23.0947 36.6079 23.257 36.6079 23.5452V33.8212C36.6079 33.9553 36.5866 34.036 36.5268 34.0849C36.4669 34.1337 36.3613 34.1538 36.1941 34.1538H35.8574H35.8371V34.1741V34.8191V34.8394H35.8574H39.5085H39.5288V34.8191V34.1741V34.1538H39.5085H39.1394C39.0562 34.1538 38.9895 34.1476 38.9365 34.1295C38.8835 34.1113 38.8415 34.0818 38.8107 34.0362C38.7493 33.9449 38.7256 33.7809 38.7256 33.5007V28.8556H41.1272V33.5007C41.1272 33.7807 41.0974 33.9446 41.0339 34.0362C41.0021 34.082 40.9646 34.1113 40.9122 34.1295C40.8598 34.1476 40.7926 34.1538 40.7134 34.1538H40.3442H40.3239V34.1741V34.8191V34.8394H40.3442H43.9792H43.9994V34.8191V34.1741V34.1538H43.9792H43.6546C43.5713 34.1538 43.5048 34.1476 43.4518 34.1295C43.3987 34.1113 43.3608 34.0818 43.3301 34.0362C43.2687 33.9449 43.2449 33.7809 43.2449 33.5007V23.5452C43.2449 23.257 43.2689 23.0947 43.3301 23.0056C43.3606 22.9611 43.3987 22.9334 43.4518 22.9164C43.5049 22.8994 43.5711 22.8921 43.6546 22.8921H43.9792H43.9994V22.8718V22.2267V22.2064H43.9792H40.3442H40.3239V22.2267V22.8718V22.8921H40.3442H40.7134C40.7928 22.8921 40.8598 22.8994 40.9122 22.9164C40.9646 22.9334 41.0022 22.961 41.0339 23.0056C41.0972 23.0949 41.1272 23.2572 41.1272 23.5452V28.0605H38.7256V23.5452C38.7256 23.257 38.7495 23.0947 38.8107 23.0056C38.8414 22.9611 38.8794 22.9334 38.9325 22.9164C38.9855 22.8994 39.056 22.8921 39.1394 22.8921H39.5085H39.5288V22.8718V22.2267V22.2064H39.5085H35.8574H35.8371ZM35.8777 22.2511H39.4882V22.8515H39.1394C39.0541 22.8515 38.9802 22.8567 38.9203 22.8758C38.8604 22.895 38.814 22.9294 38.7783 22.9813C38.707 23.0851 38.685 23.2547 38.685 23.5452V28.0807V28.101H38.7053H41.1475H41.1678V28.0807V23.5452C41.1678 23.2545 41.1438 23.0848 41.0704 22.9813C41.0337 22.9296 40.9835 22.895 40.9244 22.8758C40.8652 22.8567 40.7949 22.8515 40.7134 22.8515H40.3645V22.2511H43.9589V22.8515H43.6546C43.5692 22.8515 43.4995 22.8567 43.4396 22.8758C43.3797 22.895 43.3292 22.9294 43.2936 22.9813C43.2223 23.0851 43.2002 23.2547 43.2002 23.5452V33.5007C43.2002 33.7832 43.2225 33.9549 43.2936 34.0605C43.3291 34.1133 43.3796 34.1495 43.4396 34.1701C43.4995 34.1906 43.569 34.1944 43.6546 34.1944H43.9589V34.7989H40.3645V34.1944H40.7134C40.795 34.1944 40.8652 34.1906 40.9244 34.1701C40.9836 34.1495 41.0338 34.1132 41.0704 34.0605C41.1436 33.9551 41.1678 33.7834 41.1678 33.5007V28.8353V28.815H41.1475H38.7053H38.685V28.8353V33.5007C38.685 33.7832 38.7072 33.9549 38.7783 34.0605C38.8138 34.1133 38.8604 34.1495 38.9203 34.1701C38.9802 34.1906 39.0539 34.1944 39.1394 34.1944H39.4882V34.7989H35.8777V34.1944H36.1941C36.3646 34.1944 36.478 34.177 36.5511 34.1173C36.6242 34.0576 36.6525 33.9602 36.6525 33.8212V23.5452C36.6525 23.2547 36.6267 23.0851 36.5551 22.9813C36.5194 22.9294 36.4731 22.895 36.4132 22.8758C36.3532 22.8567 36.2795 22.8515 36.1941 22.8515H35.8777V22.2511ZM9.91797 22.2064V22.2267V22.8718V22.8921H9.94231H10.1979C10.3505 22.8921 10.4727 22.9813 10.5589 23.1476C10.6452 23.3139 10.6928 23.5582 10.6928 23.8535V33.1802C10.6928 33.4673 10.6454 33.7134 10.5589 33.8861C10.4725 34.0587 10.3497 34.1538 10.1979 34.1538H9.94231H9.91797V34.1741V34.8191V34.8394H9.94231H12.4494H12.4697V34.8191V34.1741V34.1538H12.4494H12.064C11.895 34.1538 11.7731 34.0584 11.6908 33.8861C11.6085 33.7137 11.5691 33.4677 11.5691 33.1802V25.3221L13.5529 34.807L13.5569 34.8232H13.5732H14.5387H14.5549L14.559 34.807L16.5428 25.3099V33.3384C16.5428 33.6267 16.5193 33.8361 16.4576 33.9672C16.3959 34.0983 16.3046 34.1538 16.1493 34.1538H15.699H15.6746V34.1741V34.8191V34.8394H15.699H19.3136H19.3339V34.8191V34.1741V34.1538H19.3136H19.0418C18.8865 34.1538 18.791 34.0983 18.7294 33.9672C18.6678 33.8361 18.6442 33.6268 18.6442 33.3384V23.7075C18.6442 23.4193 18.6678 23.2138 18.7294 23.0827C18.791 22.9517 18.8865 22.8921 19.0418 22.8921H19.3136H19.3339V22.8718V22.2267V22.2064H19.3136H16.2913H16.275L16.271 22.2227L14.7172 30.0686L13.062 22.2227V22.2064H13.0417H9.94231H9.91797ZM9.96259 22.2511H13.0296L14.6969 30.166V30.1741H14.7375V30.166L16.3075 22.2511H19.2933V22.8515H19.0418C18.8755 22.8515 18.7597 22.9203 18.6929 23.0624C18.6261 23.2046 18.6037 23.417 18.6037 23.7075V33.3384C18.6037 33.629 18.6261 33.8412 18.6929 33.9834C18.7597 34.1257 18.8754 34.1944 19.0418 34.1944H19.2933V34.7989H15.7192V34.1944H16.1493C16.3156 34.1944 16.4272 34.1257 16.4941 33.9834C16.561 33.8412 16.5874 33.629 16.5874 33.3384V25.0949V25.0909H16.5671L16.5468 25.0868V25.0909H16.5428V25.1071L14.5225 34.7826H13.5894L11.5691 25.1233V25.1193L11.5488 25.1233H11.5285V25.1274V33.1802C11.5285 33.4715 11.5677 33.7209 11.6543 33.9023C11.7409 34.0837 11.8788 34.1944 12.064 34.1944H12.4291V34.7989H9.96259V34.1944H10.1979C10.3676 34.1944 10.5048 34.0835 10.5955 33.9023C10.6861 33.7211 10.7334 33.4719 10.7334 33.1802V23.8535C10.7334 23.5537 10.6863 23.3026 10.5955 23.1273C10.5046 22.9521 10.367 22.8515 10.1979 22.8515H9.96259V22.2511ZM60.2836 22.8515L60.2795 22.8637C59.9096 23.9805 59.6414 24.6051 59.3911 24.9448C59.1407 25.2845 58.9145 25.3424 58.6122 25.3424H58.4174H58.3971V25.3627V26.0564V26.0767H58.4174H59.0422V32.8719C59.0422 33.6364 59.092 34.168 59.3383 34.5108C59.5846 34.8536 60.0244 35.0017 60.7826 35.0017C61.276 35.0017 61.6907 34.8926 61.9834 34.6082C62.276 34.3238 62.4418 33.8665 62.4418 33.164V31.7968V31.7765H62.4215H61.7319H61.7075V31.7968V33.3059C61.7075 33.5863 61.6879 33.7817 61.6304 33.9023C61.573 34.0229 61.4822 34.0727 61.3262 34.0727C61.1702 34.0727 61.0875 34.0229 61.0341 33.9104C60.9807 33.7979 60.9611 33.6195 60.9611 33.3709V26.0929H62.3891H62.4094V26.0726V25.3627V25.3424H62.3891H60.9773V22.8718V22.8515H60.957H60.2998H60.2836ZM60.316 22.8921H60.9367V25.3627V25.3829H60.957H62.3688V26.0523H60.9408H60.9205V26.0726V33.3709C60.9205 33.6213 60.9385 33.8062 60.9976 33.9307C61.0567 34.0552 61.1605 34.1133 61.3262 34.1133C61.4918 34.1133 61.6038 34.055 61.667 33.9226C61.7301 33.7902 61.7522 33.5883 61.7522 33.3059V31.8171H62.4012V33.164C62.4012 33.86 62.2372 34.3055 61.955 34.5798C61.6728 34.8541 61.2701 34.9571 60.7826 34.9571C60.0297 34.9571 59.6068 34.8149 59.3708 34.4865C59.1348 34.1581 59.0828 33.6345 59.0828 32.8719V26.0564V26.0361H59.0625H58.4377V25.3829H58.6122C58.9203 25.3829 59.1673 25.3168 59.4235 24.9692C59.6782 24.6235 59.949 23.9979 60.316 22.8921ZM51.9792 25.1842C51.1222 25.1842 50.4513 25.4826 50.0725 25.9347C49.6938 26.3868 49.6095 26.9926 49.9346 27.5939C50.0736 27.8473 50.2814 28.0107 50.5107 28.0686C50.7399 28.1264 50.9914 28.0782 51.2206 27.9063C51.4591 27.7254 51.6012 27.4434 51.5289 27.1314C51.4582 26.826 51.1804 26.4969 50.608 26.2024C50.6883 26.1395 50.8222 26.0743 50.9853 26.028C51.1605 25.9782 51.3546 25.9468 51.5127 25.9468C51.7446 25.9468 51.9205 25.9677 52.0482 26.0118C52.1759 26.0558 52.2561 26.1222 52.3119 26.2146C52.4235 26.3994 52.4255 26.6973 52.4255 27.1314C52.4255 27.2597 52.4255 28.5122 52.4255 28.7623C51.2782 29.1531 50.4959 29.4546 50.0036 29.9753C49.5083 30.499 49.3058 31.2382 49.3058 32.4865C49.3057 33.454 49.491 34.0831 49.7885 34.4703C50.0861 34.8575 50.4979 35.0017 50.9366 35.0017C51.4159 35.0017 51.7738 34.8278 52.0441 34.596C52.3014 34.3755 52.472 34.1047 52.5999 33.8698C52.6782 34.2175 52.7701 34.5005 52.961 34.6934C53.1608 34.8952 53.4656 35.0017 53.959 35.0017C54.5257 35.0017 54.8821 34.8263 55.0908 34.4865C55.2996 34.1466 55.3626 33.6461 55.3626 32.9855V32.9652H55.3424H54.7622H54.7419V32.9855C54.7419 33.4596 54.7344 33.7198 54.7014 33.8577C54.6848 33.9266 54.6634 33.9636 54.6365 33.9834C54.6095 34.0033 54.5734 34.0118 54.5229 34.0118C54.4759 34.0118 54.4434 34.0043 54.4214 33.9916C54.3995 33.9788 54.384 33.9587 54.3728 33.9185C54.3503 33.8382 54.3484 33.6849 54.3484 33.4195V27.5655C54.3484 26.6212 54.0924 26.0232 53.6669 25.6629C53.2414 25.3025 52.6491 25.1842 51.9792 25.1842ZM51.9792 25.2247C52.6441 25.2247 53.228 25.3443 53.6425 25.6953C54.0571 26.0464 54.3079 26.6286 54.3079 27.5655V33.4195C54.3079 33.6849 54.3063 33.8382 54.3322 33.9307C54.3451 33.977 54.3687 34.0092 54.4012 34.0281C54.4336 34.047 54.4731 34.0524 54.5229 34.0524C54.5766 34.0524 54.623 34.0437 54.6608 34.0159C54.6986 33.988 54.7243 33.9436 54.7419 33.8698C54.7765 33.7257 54.7822 33.46 54.7825 33.0057H55.3221C55.3206 33.6522 55.2531 34.1426 55.0543 34.4662C54.8532 34.7937 54.5175 34.9571 53.959 34.9571C53.4715 34.9571 53.1795 34.8571 52.9894 34.665C52.7992 34.4729 52.7085 34.1859 52.6283 33.8171L52.6162 33.7603L52.5878 33.8131C52.4597 34.0532 52.28 34.3411 52.0157 34.5676C51.7515 34.7942 51.4061 34.9571 50.9366 34.9571C50.5069 34.9571 50.1104 34.8225 49.821 34.4459C49.5316 34.0693 49.3503 33.4487 49.3504 32.4865C49.3504 31.2427 49.5503 30.5173 50.036 30.0037C50.5217 29.49 51.2965 29.1845 52.4539 28.7907L52.4661 28.7866V28.7704C52.4661 28.5292 52.4661 27.2604 52.4661 27.1314C52.4661 26.6973 52.4699 26.3954 52.3484 26.1943C52.2876 26.0938 52.195 26.0217 52.0604 25.9752C51.9257 25.9288 51.7471 25.9063 51.5127 25.9063C51.3491 25.9063 51.1516 25.9367 50.9731 25.9874C50.7946 26.0381 50.6369 26.1095 50.5512 26.1862L50.5309 26.2065L50.5553 26.2187C51.1468 26.5146 51.42 26.8444 51.4884 27.1396C51.5568 27.4347 51.4246 27.7007 51.1963 27.8738C50.9756 28.0393 50.7356 28.0827 50.5188 28.028C50.3019 27.9733 50.1055 27.8186 49.9711 27.5736C49.6529 26.985 49.736 26.3994 50.105 25.959C50.474 25.5186 51.1318 25.2247 51.9792 25.2247ZM46.6202 25.1842C45.8331 25.1842 45.1357 25.6029 44.6364 26.4337C44.137 27.2644 43.8331 28.5031 43.8331 30.1538C43.8332 31.9648 44.1119 33.1756 44.5999 33.9348C45.0878 34.6939 45.7873 35.0017 46.6202 35.0017C47.411 35.0017 48.014 34.8294 48.393 34.3486C48.772 33.8677 48.924 33.0822 48.8271 31.8577V31.8374H48.8068H48.1334H48.1131V31.8617C48.1371 32.8897 48.0627 33.4499 47.894 33.7481C47.8096 33.8973 47.7027 33.9793 47.5695 34.0281C47.4362 34.0769 47.2748 34.0889 47.0867 34.0889C46.8111 34.0889 46.6042 34.0552 46.4457 33.951C46.2873 33.8468 46.1754 33.6738 46.0968 33.3911C45.9396 32.8258 45.9183 31.8257 45.9183 30.1213C45.9183 30.062 45.9183 29.9687 45.9183 29.8536H48.9691H48.9893V29.8333C48.9893 28.1115 48.8245 26.9521 48.4457 26.2187C48.067 25.4853 47.4692 25.1842 46.6202 25.1842ZM46.6202 25.2247C47.4595 25.2247 48.0364 25.5171 48.4092 26.2389C48.7804 26.9577 48.9474 28.106 48.9488 29.813H45.898H45.8778V29.8333C45.8778 29.9616 45.8778 30.0575 45.8778 30.1213C45.8778 31.826 45.8959 32.8228 46.0563 33.3993C46.1364 33.6875 46.2527 33.8725 46.4214 33.9834C46.5901 34.0943 46.8075 34.1335 47.0867 34.1335C47.2766 34.1335 47.4405 34.1203 47.5816 34.0686C47.7228 34.0169 47.842 33.9249 47.9305 33.7684C48.1058 33.4587 48.1756 32.8929 48.1536 31.882H48.7865C48.8794 33.0889 48.727 33.8592 48.3605 34.3242C47.9918 34.7921 47.4051 34.9571 46.6202 34.9571C45.7973 34.9571 45.1133 34.6628 44.6323 33.9145C44.1513 33.1662 43.8737 31.9606 43.8737 30.1538C43.8737 28.5082 44.1751 27.2754 44.6688 26.454C45.1626 25.6325 45.8478 25.2247 46.6202 25.2247ZM33.0622 25.1842C32.503 25.1842 31.9697 25.3599 31.5774 25.7359C31.1851 26.1119 30.9324 26.6841 30.9324 27.4682C30.9324 28.2023 31.0569 28.7212 31.3178 29.2045C31.5787 29.6878 31.9758 30.1352 32.5145 30.7461C32.9811 31.2769 33.3297 31.6604 33.5612 32.0159C33.7928 32.3714 33.906 32.7011 33.906 33.1315C33.906 33.4754 33.8575 33.7375 33.7235 33.9145C33.5894 34.0914 33.3717 34.1863 33.0135 34.1863C32.711 34.1863 32.4638 34.1186 32.2671 33.8982C32.0703 33.6779 31.9208 33.3026 31.8249 32.6934L31.6991 31.8577L31.6951 31.8374H31.6788H30.9689H30.9486V31.8617V34.8191V34.8394H30.9689H31.5652H31.5815L31.5855 34.8232C31.6173 34.6725 31.6717 34.5247 31.7356 34.4297C31.7676 34.3822 31.8017 34.3481 31.833 34.3323C31.8643 34.3165 31.8916 34.3159 31.9222 34.3364C32.1361 34.5812 32.6237 35.0017 33.4152 35.0017C34.111 35.0017 34.6558 34.7632 35.0257 34.3486C35.3956 33.9339 35.5896 33.3438 35.5896 32.6325C35.5896 31.8904 35.459 31.3551 35.1961 30.8597C34.9332 30.3643 34.5382 29.909 34.0075 29.3221C33.5012 28.7673 33.1538 28.3873 32.9324 28.0321C32.711 27.6769 32.616 27.3473 32.616 26.8921C32.616 26.6289 32.6581 26.4165 32.7742 26.2714C32.8903 26.1263 33.081 26.0442 33.3827 26.0442C33.6852 26.0442 33.9187 26.1035 34.0926 26.2755C34.2666 26.4474 34.3817 26.7365 34.4375 27.2004L34.5511 28.101L34.5551 28.1173H34.5714H35.2772H35.3016V28.097V25.3627V25.3424H35.2772H34.7012H34.6809V25.3627C34.665 25.5318 34.6559 25.6623 34.6403 25.744C34.6325 25.7849 34.6212 25.8143 34.6119 25.8251C34.6073 25.8306 34.6037 25.8327 34.5998 25.8333C34.5966 25.8337 34.5903 25.8319 34.5835 25.8292C34.5832 25.8289 34.5798 25.8295 34.5795 25.8292C34.4339 25.6993 33.8729 25.1842 33.0622 25.1842ZM33.0622 25.2247C33.8573 25.2247 34.4145 25.7326 34.5592 25.8617L34.5632 25.8657C34.5778 25.873 34.5931 25.8759 34.6079 25.8738C34.6226 25.8718 34.6349 25.8647 34.6444 25.8535C34.6634 25.8312 34.6726 25.7957 34.6809 25.7521C34.6968 25.6686 34.7069 25.5414 34.7215 25.3829H35.257V28.0767H34.5876L34.478 27.1923C34.4217 26.7236 34.3049 26.4288 34.121 26.2471C33.9372 26.0653 33.6907 26.0036 33.3827 26.0036C33.0734 26.0036 32.8669 26.0907 32.7417 26.2471C32.6166 26.4034 32.5754 26.6243 32.5754 26.8921C32.5754 27.3531 32.6712 27.6919 32.8959 28.0523C33.1206 28.4128 33.4728 28.7958 33.9791 29.3505C34.5095 29.9371 34.8999 30.3905 35.1596 30.88C35.4193 31.3694 35.5491 31.8952 35.5491 32.6325C35.5491 33.3363 35.3549 33.9188 34.9933 34.3242C34.6316 34.7297 34.1017 34.9571 33.4152 34.9571C32.6345 34.9571 32.1577 34.5464 31.9506 34.308L31.9466 34.3039C31.9051 34.2762 31.8582 34.2749 31.8168 34.2958C31.7754 34.3167 31.7375 34.3544 31.7032 34.4053C31.6374 34.5031 31.5862 34.6508 31.5531 34.7989H30.9892V31.882H31.6626L31.7843 32.6974C31.8809 33.3105 32.0293 33.6926 32.2346 33.9226C32.4399 34.1525 32.7045 34.2268 33.0135 34.2268C33.3791 34.2268 33.6169 34.1277 33.76 33.9388C33.9031 33.7499 33.9507 33.4792 33.9507 33.1315C33.9507 32.6937 33.8322 32.3516 33.5977 31.9915C33.3632 31.6314 33.0132 31.2522 32.547 30.7217C32.0083 30.1109 31.612 29.6616 31.3543 29.1842C31.0966 28.7068 30.9729 28.1976 30.9729 27.4682C30.9729 26.6929 31.2223 26.136 31.6058 25.7683C31.9894 25.4007 32.5118 25.2247 33.0622 25.2247ZM52.4661 29.2532L52.4377 29.2694C51.874 29.5836 51.55 29.8173 51.3707 30.239C51.1914 30.6607 51.1557 31.2624 51.1557 32.3242C51.1557 32.9275 51.1667 33.3166 51.2449 33.5575C51.2841 33.6779 51.3419 33.7635 51.4234 33.8171C51.505 33.8707 51.609 33.8901 51.7399 33.8901C52.0431 33.8901 52.231 33.7599 52.3362 33.5453C52.4415 33.3307 52.4661 33.0364 52.4661 32.6974V29.2856V29.2532ZM52.4255 29.3262V32.6974C52.4255 33.0341 52.3995 33.3256 52.2997 33.5291C52.1999 33.7326 52.0316 33.8496 51.7399 33.8496C51.6135 33.8496 51.52 33.8281 51.4478 33.7806C51.3755 33.7331 51.3228 33.66 51.2855 33.5453C51.211 33.3158 51.1963 32.9269 51.1963 32.3242C51.1963 31.2633 51.2327 30.6655 51.4072 30.2552C51.5775 29.8547 51.8886 29.628 52.4255 29.3262Z" fill="black"/>
</svg>
