<svg width="80" height="58" viewBox="0 0 80 58" fill="none" xmlns="http://www.w3.org/2000/svg">
<path d="M10.1406 26.6209V26.6106C10.1406 25.5921 10.9088 24.7578 12.009 24.7578C12.6844 24.7578 13.0885 24.9832 13.4213 25.3107L12.9201 25.8888C12.6435 25.6388 12.3623 25.4849 12.0035 25.4849C11.3993 25.4849 10.9648 25.9862 10.9648 26.6005V26.6108C10.9648 27.2251 11.39 27.7371 12.0035 27.7371C12.4135 27.7371 12.6646 27.5727 12.9456 27.3178L13.4468 27.8244C13.0788 28.2184 12.669 28.4644 11.978 28.4644C10.9235 28.4642 10.1406 27.6499 10.1406 26.6209Z" fill="black"/>
<path d="M13.6289 26.6209V26.6106C13.6289 25.5921 14.4331 24.7578 15.5382 24.7578C16.6441 24.7578 17.4375 25.5821 17.4375 26.6004V26.6106C17.4375 27.6289 16.634 28.4642 15.5287 28.4642C14.4228 28.4642 13.6289 27.6397 13.6289 26.6209ZM16.6131 26.6209V26.6106C16.6131 25.9967 16.1632 25.4849 15.5287 25.4849C14.8938 25.4849 14.4523 25.9862 14.4523 26.6005V26.6108C14.4523 27.2251 14.9032 27.7371 15.5382 27.7371C16.1731 27.7369 16.6131 27.2356 16.6131 26.6209Z" fill="black"/>
<path d="M17.9609 24.8203H18.6881L20.3668 27.0262V24.8203H21.1445V28.4034H20.4741L18.7387 26.1254V28.4034H17.9609V24.8203Z" fill="black"/>
<path d="M21.7734 27.8782L22.239 27.3195C22.5616 27.5862 22.8999 27.7553 23.3089 27.7553C23.631 27.7553 23.8256 27.6262 23.8256 27.4167V27.4066C23.8256 27.2071 23.7037 27.1047 23.1042 26.9512C22.3821 26.7672 21.9167 26.5667 21.9167 25.8552V25.8457C21.9167 25.1954 22.4389 24.7656 23.171 24.7656C23.6927 24.7656 24.1378 24.9292 24.501 25.2211L24.0922 25.8148C23.7745 25.5949 23.4632 25.4617 23.1609 25.4617C22.859 25.4617 22.7001 25.5999 22.7001 25.7739V25.7838C22.7001 26.0196 22.8533 26.0962 23.4727 26.2545C24.1989 26.444 24.6083 26.7059 24.6083 27.3298V27.3402C24.6083 28.0516 24.0656 28.4509 23.2933 28.4509C22.7511 28.4511 22.2034 28.2612 21.7734 27.8782Z" fill="black"/>
<path d="M25.3008 24.8203H28.0031V25.5219H26.084V26.2481H27.7729V26.9497H26.084V27.7027H28.0295V28.4034H25.3008V24.8203Z" fill="black"/>
<path d="M28.8438 24.8203H30.4809C30.9367 24.8203 31.2896 24.9482 31.5251 25.1842C31.7251 25.3829 31.8324 25.6654 31.8324 26.0025V26.0132C31.8324 26.5915 31.5202 26.9547 31.0651 27.1236L31.94 28.4036H31.0187L30.2514 27.2566H30.2402H29.6314V28.4036H28.8438V24.8203ZM30.4302 26.5609C30.8136 26.5609 31.0341 26.3558 31.0341 26.0546V26.0436C31.0341 25.7065 30.798 25.5309 30.4141 25.5309H29.6314V26.5609H30.4302Z" fill="black"/>
<path d="M32.1172 24.8203H32.9868L33.9234 27.3445L34.8604 24.8203H35.7104L34.2617 28.4295H33.5656L32.1172 24.8203Z" fill="black"/>
<path d="M36.9138 24.793H37.641L39.1772 28.4021H38.3529L38.0249 27.5982H36.5094L36.182 28.4021H35.3789L36.9138 24.793ZM37.7439 26.9028L37.2677 25.74L36.7911 26.9028H37.7439Z" fill="black"/>
<path d="M40.0552 25.5474H38.9648V24.8203H41.934V25.5474H40.843V28.4034H40.0552V25.5474Z" fill="black"/>
<path d="M43.3105 24.8203H42.5234V28.4036H43.3105V24.8203Z" fill="black"/>
<path d="M43.9492 26.6209V26.6106C43.9492 25.5921 44.7532 24.7578 45.8591 24.7578C46.9643 24.7578 47.7578 25.5821 47.7578 26.6004V26.6106C47.7578 27.6289 46.9532 28.4642 45.8486 28.4642C44.7435 28.4642 43.9492 27.6397 43.9492 26.6209ZM46.9336 26.6209V26.6106C46.9336 25.9967 46.4833 25.4849 45.8484 25.4849C45.2134 25.4849 44.7734 25.9862 44.7734 26.6005V26.6108C44.7734 27.2251 45.2241 27.7371 45.8591 27.7371C46.4938 27.7369 46.9336 27.2356 46.9336 26.6209Z" fill="black"/>
<path d="M48.4062 24.8203H49.1326L50.8121 27.0262V24.8203H51.5897V28.4034H50.92L49.184 26.1254V28.4034H48.4062V24.8203Z" fill="black"/>
<path d="M11.0263 29.8281H10.6328V33.317H11.0263V29.8281Z" fill="black"/>
<path d="M11.9805 29.8281H12.3497L14.5479 32.6247V29.8281H14.9313V33.317H14.6182L12.3642 30.4556V33.317H11.9805V29.8281Z" fill="black"/>
<path d="M16.7767 30.1924H15.6055V29.8281H18.3477V30.1924H17.1765V33.3173H16.7767V30.1924Z" fill="black"/>
<path d="M19.0195 29.8281H21.5413V30.1873H19.413V31.3785H21.3172V31.7369H19.413V32.9587H21.5665V33.317H19.0195V29.8281Z" fill="black"/>
<path d="M22.293 29.8281H23.7932C24.2217 29.8281 24.5658 29.958 24.7847 30.1774C24.954 30.3469 25.0545 30.5905 25.0545 30.8647V30.874C25.0545 31.4529 24.6555 31.7917 24.1073 31.8917L25.1791 33.3171H24.6946L23.6839 31.9609H23.6735H22.6868V33.3171H22.293V29.8281ZM23.7589 31.6081C24.2821 31.6081 24.6555 31.3383 24.6555 30.8895V30.8803C24.6555 30.4509 24.3268 30.192 23.7637 30.192H22.6868V31.6081H23.7589Z" fill="black"/>
<path d="M25.832 29.8281H26.2007L28.3989 32.6247V29.8281H28.7832V33.317H28.4688L26.2154 30.4556V33.317H25.832V29.8281Z" fill="black"/>
<path d="M30.9959 29.8047H31.3655L32.9549 33.3183H32.5313L32.1227 32.3962H30.2236L29.8096 33.3183H29.4062L30.9959 29.8047ZM31.9684 32.0422L31.1751 30.2629L30.3781 32.0422H31.9684Z" fill="black"/>
<path d="M34.0503 30.1924H32.8789V29.8281H35.6212V30.1924H34.4492V33.3173H34.0503V30.1924Z" fill="black"/>
<path d="M36.7259 29.8281H36.332V33.317H36.7259V29.8281Z" fill="black"/>
<path d="M37.5234 31.584V31.5736C37.5234 30.6113 38.2465 29.7695 39.308 29.7695C40.3706 29.7695 41.0833 30.6012 41.0833 31.5631C41.0884 31.5688 41.0884 31.5688 41.0833 31.5736C41.0833 32.5358 40.36 33.3778 39.2985 33.3778C38.2364 33.3778 37.5234 32.5457 37.5234 31.584ZM40.6738 31.584V31.5736C40.6738 30.7806 40.0966 30.1331 39.2985 30.1331C38.5009 30.1331 37.9323 30.7712 37.9323 31.5631V31.5736C37.9323 32.3662 38.5105 33.0144 39.308 33.0144C40.1061 33.0146 40.6738 32.3757 40.6738 31.584Z" fill="black"/>
<path d="M41.8555 29.8281H42.224L44.4228 32.6247V29.8281H44.8061V33.317H44.4921L42.2388 30.4556V33.317H41.8555V29.8281Z" fill="black"/>
<path d="M47.0195 29.8047H47.3876L48.9785 33.3183H48.5542L48.1457 32.3962H46.2471L45.832 33.3183H45.4297L47.0195 29.8047ZM47.9906 32.0422L47.1985 30.2629L46.4008 32.0422H47.9906Z" fill="black"/>
<path d="M49.5977 29.8281H49.9915V32.9541H51.9549V33.317H49.5977V29.8281Z" fill="black"/>
<path d="M56.7022 31.9357C55.3412 30.5764 54.4943 28.6829 54.4961 26.6054C54.4943 24.528 55.3412 22.6343 56.7022 21.2736C58.0625 19.9117 59.9559 19.0653 62.0341 19.0664C64.1113 19.0653 66.0054 19.9117 67.365 21.2736C68.7266 22.6343 69.5735 24.528 69.5735 26.6054C69.5735 28.6827 68.7266 30.5763 67.3652 31.9357C66.0052 33.2985 64.1115 34.1453 62.0343 34.144H62.0314C59.955 34.144 58.0611 33.2984 56.7022 31.9357ZM58.7586 23.3304C57.9178 24.1725 57.4025 25.321 57.402 26.6054C57.4027 27.889 57.9178 29.0384 58.7586 29.8805C59.6019 30.7195 60.75 31.2355 62.0341 31.2366C63.318 31.2355 64.4662 30.7197 65.3093 29.8805C66.1488 29.0382 66.665 27.889 66.6654 26.6054C66.665 25.321 66.149 24.1725 65.3093 23.3304C64.4661 22.4892 63.318 21.974 62.0341 21.974C60.75 21.974 59.6019 22.4892 58.7586 23.3304Z" fill="black"/>
<path d="M67.6151 35.1172H56.4492V38.0244H67.6151V35.1172Z" fill="black"/>
</svg>
