<svg width="30" height="30" viewBox="0 0 30 30" fill="none" xmlns="http://www.w3.org/2000/svg">
<path d="M3.54205 0.235908C3.82941 0.0878795 4.17059 0.0878793 4.45795 0.235908L5.78 0.91695L7.03082 1.72136C7.3027 1.8962 7.47329 2.19168 7.48877 2.51455L7.56 4L7.48877 5.48545C7.47329 5.80832 7.3027 6.1038 7.03083 6.27864L5.78 7.08305L4.45795 7.76409C4.17059 7.91212 3.82941 7.91212 3.54205 7.76409L2.22 7.08305L0.969175 6.27864C0.697301 6.1038 0.526708 5.80832 0.511226 5.48545L0.44 4L0.511226 2.51455C0.526708 2.19168 0.697301 1.8962 0.969175 1.72136L2.22 0.91695L3.54205 0.235908Z" fill="#D9D9D9"/>
<path d="M3.54205 11.2359C3.82941 11.0879 4.17059 11.0879 4.45795 11.2359L5.78 11.9169L7.03082 12.7214C7.3027 12.8962 7.47329 13.1917 7.48877 13.5145L7.56 15L7.48877 16.4855C7.47329 16.8083 7.3027 17.1038 7.03083 17.2786L5.78 18.0831L4.45795 18.7641C4.17059 18.9121 3.82941 18.9121 3.54205 18.7641L2.22 18.0831L0.969175 17.2786C0.697301 17.1038 0.526708 16.8083 0.511226 16.4855L0.44 15L0.511226 13.5145C0.526708 13.1917 0.697301 12.8962 0.969175 12.7214L2.22 11.9169L3.54205 11.2359Z" fill="black"/>
<path d="M3.54205 22.2359C3.82941 22.0879 4.17059 22.0879 4.45795 22.2359L5.78 22.9169L7.03082 23.7214C7.3027 23.8962 7.47329 24.1917 7.48877 24.5145L7.56 26L7.48877 27.4855C7.47329 27.8083 7.3027 28.1038 7.03083 28.2786L5.78 29.0831L4.45795 29.7641C4.17059 29.9121 3.82941 29.9121 3.54205 29.7641L2.22 29.0831L0.969175 28.2786C0.697301 28.1038 0.526708 27.8083 0.511226 27.4855L0.44 26L0.511226 24.5145C0.526708 24.1917 0.697301 23.8962 0.969175 23.7214L2.22 22.9169L3.54205 22.2359Z" fill="#D9D9D9"/>
<path d="M14.5421 0.235908C14.8294 0.0878795 15.1706 0.0878793 15.4579 0.235908L16.78 0.91695L18.0308 1.72136C18.3027 1.8962 18.4733 2.19168 18.4888 2.51455L18.56 4L18.4888 5.48545C18.4733 5.80832 18.3027 6.1038 18.0308 6.27864L16.78 7.08305L15.4579 7.76409C15.1706 7.91212 14.8294 7.91212 14.5421 7.76409L13.22 7.08305L11.9692 6.27864C11.6973 6.1038 11.5267 5.80832 11.5112 5.48545L11.44 4L11.5112 2.51455C11.5267 2.19168 11.6973 1.8962 11.9692 1.72136L13.22 0.91695L14.5421 0.235908Z" fill="black"/>
<path d="M14.5421 11.2359C14.8294 11.0879 15.1706 11.0879 15.4579 11.2359L16.78 11.9169L18.0308 12.7214C18.3027 12.8962 18.4733 13.1917 18.4888 13.5145L18.56 15L18.4888 16.4855C18.4733 16.8083 18.3027 17.1038 18.0308 17.2786L16.78 18.0831L15.4579 18.7641C15.1706 18.9121 14.8294 18.9121 14.5421 18.7641L13.22 18.0831L11.9692 17.2786C11.6973 17.1038 11.5267 16.8083 11.5112 16.4855L11.44 15L11.5112 13.5145C11.5267 13.1917 11.6973 12.8962 11.9692 12.7214L13.22 11.9169L14.5421 11.2359Z" fill="#D9D9D9"/>
<path d="M14.5421 22.2359C14.8294 22.0879 15.1706 22.0879 15.4579 22.2359L16.78 22.9169L18.0308 23.7214C18.3027 23.8962 18.4733 24.1917 18.4888 24.5145L18.56 26L18.4888 27.4855C18.4733 27.8083 18.3027 28.1038 18.0308 28.2786L16.78 29.0831L15.4579 29.7641C15.1706 29.9121 14.8294 29.9121 14.5421 29.7641L13.22 29.0831L11.9692 28.2786C11.6973 28.1038 11.5267 27.8083 11.5112 27.4855L11.44 26L11.5112 24.5145C11.5267 24.1917 11.6973 23.8962 11.9692 23.7214L13.22 22.9169L14.5421 22.2359Z" fill="black"/>
<path d="M25.5421 0.235908C25.8294 0.0878795 26.1706 0.0878793 26.4579 0.235908L27.78 0.91695L29.0308 1.72136C29.3027 1.8962 29.4733 2.19168 29.4888 2.51455L29.56 4L29.4888 5.48545C29.4733 5.80832 29.3027 6.1038 29.0308 6.27864L27.78 7.08305L26.4579 7.76409C26.1706 7.91212 25.8294 7.91212 25.5421 7.76409L24.22 7.08305L22.9692 6.27864C22.6973 6.1038 22.5267 5.80832 22.5112 5.48545L22.44 4L22.5112 2.51455C22.5267 2.19168 22.6973 1.8962 22.9692 1.72136L24.22 0.91695L25.5421 0.235908Z" fill="#D9D9D9"/>
<path d="M25.5421 11.2359C25.8294 11.0879 26.1706 11.0879 26.4579 11.2359L27.78 11.9169L29.0308 12.7214C29.3027 12.8962 29.4733 13.1917 29.4888 13.5145L29.56 15L29.4888 16.4855C29.4733 16.8083 29.3027 17.1038 29.0308 17.2786L27.78 18.0831L26.4579 18.7641C26.1706 18.9121 25.8294 18.9121 25.5421 18.7641L24.22 18.0831L22.9692 17.2786C22.6973 17.1038 22.5267 16.8083 22.5112 16.4855L22.44 15L22.5112 13.5145C22.5267 13.1917 22.6973 12.8962 22.9692 12.7214L24.22 11.9169L25.5421 11.2359Z" fill="black"/>
<path d="M25.5421 22.2359C25.8294 22.0879 26.1706 22.0879 26.4579 22.2359L27.78 22.9169L29.0308 23.7214C29.3027 23.8962 29.4733 24.1917 29.4888 24.5145L29.56 26L29.4888 27.4855C29.4733 27.8083 29.3027 28.1038 29.0308 28.2786L27.78 29.0831L26.4579 29.7641C26.1706 29.9121 25.8294 29.9121 25.5421 29.7641L24.22 29.0831L22.9692 28.2786C22.6973 28.1038 22.5267 27.8083 22.5112 27.4855L22.44 26L22.5112 24.5145C22.5267 24.1917 22.6973 23.8962 22.9692 23.7214L24.22 22.9169L25.5421 22.2359Z" fill="#D9D9D9"/>
</svg>
