<svg width="26" height="26" viewBox="0 0 26 26" fill="none" xmlns="http://www.w3.org/2000/svg">
    <path d="M14.8785 23.634C17.7109 21.1412 22.75 16.0485 22.75 11.375C22.75 8.78914 21.7228 6.30919 19.8943 4.48071C18.0658 2.65223 15.5859 1.625 13 1.625C10.4141 1.625 7.93419 2.65223 6.10571 4.48071C4.27723 6.30919 3.25 8.78914 3.25 11.375C3.25 16.0485 8.2875 21.1412 11.1215 23.634C11.6384 24.0954 12.3071 24.3504 13 24.3504C13.6929 24.3504 14.3616 24.0954 14.8785 23.634ZM9.75 11.375C9.75 10.513 10.0924 9.6864 10.7019 9.0769C11.3114 8.46741 12.138 8.125 13 8.125C13.862 8.125 14.6886 8.46741 15.2981 9.0769C15.9076 9.6864 16.25 10.513 16.25 11.375C16.25 12.237 15.9076 13.0636 15.2981 13.6731C14.6886 14.2826 13.862 14.625 13 14.625C12.138 14.625 11.3114 14.2826 10.7019 13.6731C10.0924 13.0636 9.75 12.237 9.75 11.375Z" fill="white"/>
</svg>
