<svg width="50px" height="50px" viewBox="0 0 50 50" version="1.1" xmlns="http://www.w3.org/2000/svg" xmlns:xlink="http://www.w3.org/1999/xlink">
    <g id="Design" stroke="none" stroke-width="1" fill="none" fill-rule="evenodd">
        <g id="Frame-30" transform="translate(-100.000000, -15.000000)" fill="#FFFFFF" fill-rule="nonzero">
            <path d="M125,15 C138.80712,15 150,26.1928805 150,40 C150,53.8071195 138.80712,65 125,65 C111.19288,65 100,53.8071195 100,40 C100,26.1928805 111.19288,15 125,15 Z M125.578439,37.671501 C125.41752,36.9909174 124.615877,36.4919212 123.840809,36.6749849 C120.601763,37.4397186 117.852857,39.8077362 116.875533,43.3671439 C116.431161,44.986667 116.685087,46.6401456 116.602413,48.1238472 L116.602106,48.7678706 C116.601921,48.9782258 116.601675,49.1849927 116.601429,49.388889 L116.600875,51.1658257 L116.602413,51.7437846 C116.605366,52.7211085 117.111744,53.3145891 117.945865,53.3308286 C118.850849,53.3485445 119.413327,52.72406 119.41628,51.6965413 C119.420709,49.8304727 119.414803,47.9629275 119.431043,46.0953827 C119.436948,45.432515 119.459093,44.7637434 119.648062,44.1244968 C120.368506,41.6870924 121.97917,40.1576243 124.42248,39.487375 C125.354038,39.2319717 125.785123,38.5454824 125.578439,37.671501 Z M127.791773,28.7871537 C126.040857,28.4254552 124.263368,28.7192431 122.841672,28.6173766 L121.710365,28.6165586 C121.34762,28.616105 120.997989,28.6155623 120.657747,28.615206 L119.661459,28.6149713 C119.173672,28.6154088 118.698625,28.6168852 118.223742,28.6203299 C117.144552,28.6277115 116.58355,29.1488521 116.604219,30.089268 C116.624887,30.983918 117.172602,31.4341966 118.250316,31.4371492 C118.688537,31.4383795 119.12684,31.4372722 119.565177,31.4350782 L122.195227,31.4188795 C123.510074,31.4142659 124.824368,31.4223855 126.136817,31.4770093 C128.804527,31.5877334 130.742936,32.9754751 131.766026,35.4350245 C132.792068,37.9004794 132.328503,40.1872972 130.570206,42.2083795 C129.555974,43.3746724 128.22581,43.9312466 126.759824,44.2767055 C125.92718,44.4730561 125.457709,45.2584569 125.642249,45.9936643 C125.832695,46.7539692 126.590047,47.2175349 127.416786,47.0536634 C129.632742,46.6151963 131.487001,45.5743894 132.964797,43.8367604 C137.467573,38.5426762 134.609419,30.1955632 127.791773,28.7871537 Z" id="Subtract"></path>
        </g>
    </g>
</svg>