<svg width="694" height="921" viewBox="0 0 694 921" fill="none" xmlns="http://www.w3.org/2000/svg">
    <g clip-path="url(#clip0_495_2066)">
        <path d="M693.903 0H0V921H693.903V0Z" fill="url(#paint0_linear_495_2066)"/>
        <path opacity="0.61" d="M921.001 428.339V242.647C886.763 251.691 859.1 276.945 846.761 309.732C836.797 291.81 817.661 279.671 795.708 279.671C778.837 279.671 763.661 286.836 752.998 298.257C737.085 257.622 697.561 228.832 651.297 228.832C592.471 228.832 544.531 275.36 542.192 333.623C538.693 332.831 535.046 332.389 531.307 332.389C514.363 332.389 499.445 341.009 490.678 354.106C481.212 322.626 452.02 299.693 417.469 299.693C392.55 299.693 370.431 311.611 356.471 330.068C347.593 292.252 313.668 264.087 273.15 264.087C230.182 264.087 194.618 295.751 188.467 337.012C179.571 324.966 165.279 317.137 149.146 317.137C135.609 317.137 123.343 322.645 114.502 331.56C108.959 303.543 84.2611 282.415 54.6275 282.415C44.2584 282.415 34.4788 285.013 25.9331 289.581C26.283 287.241 26.4672 284.847 26.4672 282.415C26.4672 263.535 15.7483 247.159 0.0566406 239.018V428.339H921.001Z" fill="#72B3E3"/>
        <path d="M921.001 556.708V408.979C911.166 404.522 900.263 402.017 888.752 402.017C868.843 402.017 850.665 409.477 836.852 421.726C824.825 373.981 781.618 338.615 730.141 338.615C705.609 338.615 682.937 346.665 664.649 360.24C664.759 358.509 664.851 356.759 664.851 354.99C664.851 311.777 629.821 276.742 586.614 276.742C543.407 276.742 508.377 311.777 508.377 354.99C508.377 363.537 509.777 371.771 512.3 379.471C498.929 368.805 481.985 362.395 463.549 362.395C434.505 362.395 409.181 378.236 395.681 401.74C386.269 393.064 373.69 387.759 359.877 387.759C347.298 387.759 335.732 392.162 326.652 399.511C312.876 377.297 288.289 362.506 260.239 362.506C222.852 362.506 191.634 388.773 183.954 423.863C163.769 399.198 133.104 383.449 98.7551 383.449C55.4004 383.449 17.9026 408.537 -0.0175781 444.99V556.708H921.001Z" fill="#7AB8E5"/>
        <path d="M921.001 652.473V441.491C882.325 460.15 854.477 497.672 849.376 542.119C834.071 522.852 810.441 510.473 783.92 510.473C757.399 510.473 733.254 523.128 717.967 542.764C703.454 512.15 672.274 490.985 636.157 490.985C636.102 490.985 636.028 490.985 635.973 490.985C636.084 489.198 636.157 487.412 636.157 485.588C636.157 439.427 598.733 401.998 552.579 401.998C506.425 401.998 469.995 438.47 469.056 483.801C445.611 457.626 411.575 441.141 373.672 441.141C323.982 441.141 280.94 469.47 259.724 510.86C248.544 500.49 233.589 494.153 217.143 494.153C202.648 494.153 189.295 499.09 178.687 507.36C165.132 479.491 136.566 460.297 103.507 460.297C87.1524 460.297 71.9027 465.013 59.0105 473.136C54.1668 440.772 30.7766 414.487 0.0195312 405.424V652.473H921.001Z" fill="#82BCE7"/>
        <path d="M921.001 786.884V579.567C917.354 578.885 913.597 578.517 909.748 578.517C880.206 578.517 855.601 599.59 850.094 627.514C839.007 615.818 823.352 608.523 805.966 608.523C793.7 608.523 782.299 612.17 772.741 618.415C763.256 577.449 726.568 546.908 682.716 546.908C651.978 546.908 624.757 561.921 607.96 585.019C597.83 550.795 566.171 525.836 528.673 525.836C483.937 525.836 447.526 561.35 446.052 605.723C436.015 598.411 423.675 594.1 410.304 594.1C386.748 594.1 366.323 607.51 356.231 627.109C339.268 606.939 313.871 594.1 285.452 594.1C273.757 594.1 262.578 596.292 252.283 600.253C253.277 595.869 253.83 591.319 253.83 586.64C253.83 553.061 226.609 525.817 193.015 525.817C167.397 525.817 145.498 541.659 136.548 564.076C119.751 540.903 92.4931 525.817 61.6808 525.817C37.9591 525.817 16.3371 534.751 -0.0175781 549.45V786.902H921.001V786.884Z" fill="#8EC2E9"/>
        <path d="M921 884.657V677.892C881.9 682.534 847.975 704.049 826.703 734.939C815.413 729.192 802.632 725.932 789.095 725.932C757.638 725.932 730.251 743.431 716.162 769.219C705.903 758.848 691.667 752.42 675.92 752.42C669.326 752.42 662.991 753.562 657.097 755.643C658.699 749.215 659.565 742.473 659.565 735.547C659.565 689.663 622.38 652.473 576.502 652.473C539.17 652.473 507.603 677.1 497.123 710.993C487.252 702.612 474.47 697.546 460.509 697.546C438.114 697.546 418.757 710.551 409.585 729.431C394.373 710.017 370.743 697.546 344.185 697.546C300.978 697.546 265.487 730.537 261.509 772.718C236.977 743.965 200.511 725.711 159.753 725.711C130.469 725.711 103.414 735.142 81.3869 751.112C73.5963 713.314 40.1318 684.873 0.0371094 684.873V884.694H921V884.657Z" fill="#9DCBEC"/>
        <path d="M921.001 920.852V697.215C898.292 708.985 882.748 732.71 882.748 760.064C882.748 763.582 883.006 767.045 883.503 770.434C871.108 763.822 856.964 760.064 841.935 760.064C799.004 760.064 763.256 790.66 755.226 831.22C742.407 818.326 724.671 810.35 705.057 810.35C681.704 810.35 661.002 821.679 648.11 839.122C639.215 779.368 587.701 733.521 525.487 733.521C466.809 733.521 417.671 774.303 404.816 829.065C384.594 802.356 352.566 785.078 316.486 785.078C266.446 785.078 224.178 818.289 210.457 863.879C197.767 844.925 176.164 832.436 151.632 832.436C140.121 832.436 129.255 835.199 119.641 840.08C106.325 793.865 63.7622 760.064 13.2617 760.064C8.76781 760.064 4.36604 760.359 0.0195312 760.874V920.852H921.001Z" fill="#A6CFEE"/>
        <path d="M317.713 477.909L340.053 546.247C341.637 551.11 347.623 552.842 351.564 549.581L418.272 494.506C418.272 494.506 347.383 466.839 347.383 468.349C347.383 469.86 317.713 477.909 317.713 477.909Z" fill="#B5D1DB"/>
        <path d="M493.727 346.575C450.152 363.816 309.535 421.452 256.308 443.28C249.273 446.172 249.697 456.247 256.935 458.55L317.712 477.909L339.979 546.026C340.881 548.771 343.128 550.539 345.651 551C347.696 551.387 350.716 495.832 350.716 495.832C350.716 495.832 414.606 543.227 444.903 565.588C452.362 571.096 463.026 566.952 464.794 557.852C473.818 511.323 496.398 394.982 504.115 355.195C505.275 349.209 499.382 344.309 493.727 346.556V346.575Z" fill="white"/>
        <path d="M345.651 551.018C347.695 551.405 350.716 495.85 350.716 495.85L455.677 397.248C456.395 396.585 455.529 395.461 454.701 395.959L317.693 477.909L339.96 546.027C340.862 548.771 343.109 550.539 345.633 551L345.651 551.018Z" fill="#D6E2EA"/>
        <path d="M-18 684.784C54.0858 684.563 149.912 643.91 169.158 565.847C176.912 534.348 170.023 500.584 145.049 477.596C113.5 448.548 78.8572 475.091 87.3845 515.652C101.382 582.277 182.75 631.606 244.577 632.306C280.307 632.711 313.845 615.562 326.7 580.546" stroke="white" stroke-width="2" stroke-miterlimit="10"/>
    </g>
    <defs>
        <linearGradient id="paint0_linear_495_2066" x1="109.984" y1="1005.27" x2="811.348" y2="90.0065" gradientUnits="userSpaceOnUse">
            <stop stop-color="#5190C5"/>
            <stop offset="1" stop-color="#72B3E3"/>
        </linearGradient>
        <clipPath id="clip0_495_2066">
            <rect width="694" height="921" rx="20" fill="white"/>
        </clipPath>
    </defs>
</svg>
