<svg width="112" height="84" viewBox="0 0 112 84" fill="none" xmlns="http://www.w3.org/2000/svg">
    <path d="M5.4 83.2C4.56 83.2 3.86667 83.0867 3.32 82.86C2.78667 82.62 2.36 82.3333 2.04 82C1.72 81.6533 1.48 81.3067 1.32 80.96C1.17333 80.6133 1.08 80.3267 1.04 80.1C1 79.86 0.98 79.74 0.98 79.74H3.2C3.2 79.74 3.22 79.8267 3.26 80C3.31333 80.16 3.41333 80.3467 3.56 80.56C3.70667 80.7733 3.93333 80.9667 4.24 81.14C4.54667 81.3 4.95333 81.38 5.46 81.38C6.07333 81.38 6.52667 81.24 6.82 80.96C7.12667 80.68 7.28 80.36 7.28 80C7.28 79.6533 7.15333 79.38 6.9 79.18C6.64667 78.98 6.28667 78.8267 5.82 78.72L4.38 78.4C3.82 78.2667 3.29333 78.0867 2.8 77.86C2.32 77.62 1.92667 77.3067 1.62 76.92C1.32667 76.52 1.18 76.0067 1.18 75.38C1.18 74.46 1.52667 73.7 2.22 73.1C2.91333 72.5 3.84667 72.2 5.02 72.2C5.78 72.2 6.40667 72.3067 6.9 72.52C7.40667 72.7333 7.80667 73 8.1 73.32C8.39333 73.6267 8.61333 73.94 8.76 74.26C8.90667 74.5667 9 74.8267 9.04 75.04C9.09333 75.24 9.12 75.34 9.12 75.34H6.98C6.98 75.34 6.96 75.2733 6.92 75.14C6.88 75.0067 6.79333 74.8533 6.66 74.68C6.52667 74.4933 6.32667 74.3333 6.06 74.2C5.80667 74.0533 5.46 73.98 5.02 73.98C4.42 73.98 3.98667 74.1133 3.72 74.38C3.45333 74.6467 3.32 74.9333 3.32 75.24C3.32 75.56 3.44667 75.8133 3.7 76C3.96667 76.1733 4.31333 76.3067 4.74 76.4L6.16 76.72C7.10667 76.9333 7.88667 77.2867 8.5 77.78C9.11333 78.26 9.42 78.96 9.42 79.88C9.42 80.4933 9.26 81.0533 8.94 81.56C8.63333 82.0533 8.18 82.4533 7.58 82.76C6.98 83.0533 6.25333 83.2 5.4 83.2ZM16.6553 83.2C15.762 83.2 14.982 83.0467 14.3153 82.74C13.6486 82.42 13.0953 82 12.6553 81.48C12.2153 80.9467 11.882 80.3533 11.6553 79.7C11.442 79.0467 11.3353 78.38 11.3353 77.7C11.3353 77.02 11.442 76.3533 11.6553 75.7C11.882 75.0467 12.2153 74.46 12.6553 73.94C13.0953 73.4067 13.6486 72.9867 14.3153 72.68C14.982 72.36 15.762 72.2 16.6553 72.2C17.5353 72.2 18.262 72.3333 18.8353 72.6C19.422 72.8533 19.8886 73.1733 20.2353 73.56C20.582 73.9467 20.842 74.3333 21.0153 74.72C21.1886 75.1067 21.2953 75.4333 21.3353 75.7C21.3886 75.9667 21.4153 76.1 21.4153 76.1H19.2553C19.2553 76.1 19.222 76 19.1553 75.8C19.102 75.6 18.9886 75.3667 18.8153 75.1C18.642 74.8333 18.382 74.6 18.0353 74.4C17.702 74.2 17.2486 74.1 16.6753 74.1C15.9953 74.1 15.4286 74.2733 14.9753 74.62C14.522 74.9533 14.1753 75.3933 13.9353 75.94C13.7086 76.4867 13.5953 77.0733 13.5953 77.7C13.5953 78.3267 13.7086 78.9133 13.9353 79.46C14.1753 80.0067 14.522 80.4533 14.9753 80.8C15.4286 81.1333 15.9953 81.3 16.6753 81.3C17.2486 81.3 17.702 81.2 18.0353 81C18.382 80.8 18.642 80.5667 18.8153 80.3C18.9886 80.0333 19.102 79.8 19.1553 79.6C19.222 79.4 19.2553 79.3 19.2553 79.3H21.4153C21.4153 79.3 21.3886 79.4333 21.3353 79.7C21.2953 79.9667 21.1886 80.2933 21.0153 80.68C20.842 81.0667 20.582 81.4533 20.2353 81.84C19.8886 82.2267 19.422 82.5533 18.8353 82.82C18.262 83.0733 17.5353 83.2 16.6553 83.2ZM23.8786 83V72.4H26.1586V73.8H26.2386C26.4386 73.3867 26.7519 73.02 27.1786 72.7C27.6186 72.3667 28.2519 72.2 29.0786 72.2C29.3319 72.2 29.5453 72.2133 29.7186 72.24C29.9053 72.2667 29.9986 72.28 29.9986 72.28V74.48C29.9986 74.48 29.8986 74.4667 29.6986 74.44C29.4986 74.4133 29.2719 74.4 29.0186 74.4C28.0853 74.4 27.3719 74.6667 26.8786 75.2C26.3986 75.72 26.1586 76.5667 26.1586 77.74V83H23.8786ZM36.4409 83.2C35.2809 83.2 34.3009 82.94 33.5009 82.42C32.7143 81.9 32.1143 81.22 31.7009 80.38C31.3009 79.54 31.1009 78.6467 31.1009 77.7C31.1009 76.7533 31.3009 75.86 31.7009 75.02C32.1143 74.18 32.7143 73.5 33.5009 72.98C34.3009 72.46 35.2809 72.2 36.4409 72.2C37.5876 72.2 38.5543 72.46 39.3409 72.98C40.1409 73.5 40.7409 74.18 41.1409 75.02C41.5543 75.86 41.7609 76.7533 41.7609 77.7C41.7609 78.6467 41.5543 79.54 41.1409 80.38C40.7409 81.22 40.1409 81.9 39.3409 82.42C38.5543 82.94 37.5876 83.2 36.4409 83.2ZM36.4409 81.26C37.0943 81.26 37.6409 81.0933 38.0809 80.76C38.5343 80.4267 38.8743 79.9867 39.1009 79.44C39.3409 78.8933 39.4609 78.3133 39.4609 77.7C39.4609 77.0733 39.3409 76.4933 39.1009 75.96C38.8743 75.4133 38.5343 74.9733 38.0809 74.64C37.6409 74.3067 37.0943 74.14 36.4409 74.14C35.7876 74.14 35.2343 74.3067 34.7809 74.64C34.3276 74.9733 33.9876 75.4133 33.7609 75.96C33.5343 76.4933 33.4209 77.0733 33.4209 77.7C33.4209 78.3133 33.5343 78.8933 33.7609 79.44C33.9876 79.9867 34.3276 80.4267 34.7809 80.76C35.2343 81.0933 35.7876 81.26 36.4409 81.26ZM44.3911 83L44.4111 67.8H46.6711V83H44.3911ZM49.7036 83L49.7236 67.8H51.9836V83H49.7036ZM64.0055 83.2C63.2055 83.2 62.5055 83.0467 61.9055 82.74C61.3188 82.42 60.8255 82 60.4255 81.48C60.0255 80.9467 59.7255 80.3533 59.5255 79.7C59.3388 79.0467 59.2455 78.38 59.2455 77.7C59.2455 77.02 59.3388 76.3533 59.5255 75.7C59.7255 75.0467 60.0255 74.46 60.4255 73.94C60.8255 73.4067 61.3188 72.9867 61.9055 72.68C62.5055 72.36 63.2055 72.2 64.0055 72.2C64.6721 72.2 65.2255 72.3067 65.6655 72.52C66.1188 72.7333 66.4788 72.98 66.7455 73.26C67.0121 73.54 67.2055 73.78 67.3255 73.98H67.4455V67.8H69.7255V83H67.4455V81.42H67.3255C67.2055 81.62 67.0121 81.86 66.7455 82.14C66.4788 82.42 66.1188 82.6667 65.6655 82.88C65.2255 83.0933 64.6721 83.2 64.0055 83.2ZM64.5055 81.3C65.1588 81.3 65.6988 81.1267 66.1255 80.78C66.5655 80.42 66.8921 79.9667 67.1055 79.42C67.3321 78.8733 67.4455 78.3 67.4455 77.7C67.4455 77.1 67.3321 76.5267 67.1055 75.98C66.8921 75.4333 66.5655 74.9867 66.1255 74.64C65.6988 74.28 65.1588 74.1 64.5055 74.1C63.8521 74.1 63.3055 74.28 62.8655 74.64C62.4255 74.9867 62.0921 75.4333 61.8655 75.98C61.6521 76.5267 61.5455 77.1 61.5455 77.7C61.5455 78.3 61.6521 78.8733 61.8655 79.42C62.0921 79.9667 62.4255 80.42 62.8655 80.78C63.3055 81.1267 63.8521 81.3 64.5055 81.3ZM77.6909 83.2C76.5309 83.2 75.5509 82.94 74.7509 82.42C73.9643 81.9 73.3643 81.22 72.9509 80.38C72.5509 79.54 72.3509 78.6467 72.3509 77.7C72.3509 76.7533 72.5509 75.86 72.9509 75.02C73.3643 74.18 73.9643 73.5 74.7509 72.98C75.5509 72.46 76.5309 72.2 77.6909 72.2C78.8376 72.2 79.8043 72.46 80.5909 72.98C81.3909 73.5 81.9909 74.18 82.3909 75.02C82.8043 75.86 83.0109 76.7533 83.0109 77.7C83.0109 78.6467 82.8043 79.54 82.3909 80.38C81.9909 81.22 81.3909 81.9 80.5909 82.42C79.8043 82.94 78.8376 83.2 77.6909 83.2ZM77.6909 81.26C78.3443 81.26 78.8909 81.0933 79.3309 80.76C79.7843 80.4267 80.1243 79.9867 80.3509 79.44C80.5909 78.8933 80.7109 78.3133 80.7109 77.7C80.7109 77.0733 80.5909 76.4933 80.3509 75.96C80.1243 75.4133 79.7843 74.9733 79.3309 74.64C78.8909 74.3067 78.3443 74.14 77.6909 74.14C77.0376 74.14 76.4843 74.3067 76.0309 74.64C75.5776 74.9733 75.2376 75.4133 75.0109 75.96C74.7843 76.4933 74.6709 77.0733 74.6709 77.7C74.6709 78.3133 74.7843 78.8933 75.0109 79.44C75.2376 79.9867 75.5776 80.4267 76.0309 80.76C76.4843 81.0933 77.0376 81.26 77.6909 81.26ZM87.7109 83L84.3309 72.4H86.6309L88.9509 80.06L91.3909 72.4H93.5109L95.9509 80.06L98.2709 72.4H100.591L97.1909 83H94.7709L92.4509 75.72L90.1509 83H87.7109ZM102.531 83V72.4H104.811V73.94H104.931C105.024 73.7533 105.184 73.5267 105.411 73.26C105.638 72.98 105.951 72.7333 106.351 72.52C106.764 72.3067 107.284 72.2 107.911 72.2C108.698 72.2 109.358 72.38 109.891 72.74C110.424 73.1 110.824 73.58 111.091 74.18C111.371 74.78 111.511 75.44 111.511 76.16V83H109.231V76.4C109.231 75.76 109.051 75.22 108.691 74.78C108.344 74.34 107.824 74.12 107.131 74.12C106.584 74.12 106.138 74.26 105.791 74.54C105.458 74.8067 105.211 75.16 105.051 75.6C104.891 76.0267 104.811 76.4867 104.811 76.98V83H102.531Z" fill="url(#paint0_linear_0_1)"/>
    <rect x="41.5" y="1.5" width="28.3333" height="44" rx="14.1667" stroke="#FAFBFC" stroke-width="3"/>
    <path fill-rule="evenodd" clip-rule="evenodd" d="M55.9278 10.9668C56.6489 10.9668 57.2334 11.5513 57.2334 12.2724L57.2334 21.1501C57.2334 21.8712 56.6489 22.4557 55.9278 22.4557C55.2068 22.4557 54.6223 21.8712 54.6223 21.1501L54.6223 12.2724C54.6223 11.5513 55.2068 10.9668 55.9278 10.9668Z" fill="#FAFBFC"/>
    <defs>
        <linearGradient id="paint0_linear_0_1" x1="-9.89752" y1="75.5514" x2="139.407" y2="75.5514" gradientUnits="userSpaceOnUse">
            <stop stop-color="white"/>
            <stop offset="0.963542" stop-color="white"/>
        </linearGradient>
    </defs>
</svg>
