<svg width="1916" height="453" viewBox="0 0 1916 453" fill="none" xmlns="http://www.w3.org/2000/svg">
    <path d="M503.428 450.434L535.5 299.053H477L484.954 260.566H646.086L638.132 299.053H580.145L547.816 450.434H503.428Z" fill="white" fill-opacity="0.07"/>
    <path d="M728.6 453C713.889 453 701.146 450.691 690.369 446.072C679.764 441.283 670.869 434.868 663.685 426.829C656.672 418.79 651.455 409.638 648.034 399.375C644.613 389.112 642.902 378.421 642.902 367.303C642.902 354.132 645.212 341.132 649.83 328.303C654.448 315.303 661.205 303.5 670.1 292.895C679.165 282.289 690.284 273.822 703.455 267.493C716.626 261.164 731.764 258 748.869 258C763.409 258 775.981 260.395 786.587 265.184C797.363 269.803 806.258 276.132 813.271 284.171C820.455 292.211 825.758 301.362 829.179 311.625C832.6 321.888 834.31 332.579 834.31 343.697C834.31 356.868 832.001 369.954 827.383 382.954C822.764 395.783 815.922 407.5 806.856 418.105C797.962 428.711 786.929 437.178 773.758 443.507C760.587 449.836 745.534 453 728.6 453ZM730.396 413.23C739.804 413.23 748.1 411.263 755.284 407.329C762.639 403.224 768.797 397.836 773.758 391.165C778.889 384.322 782.738 376.882 785.304 368.842C788.04 360.803 789.409 352.763 789.409 344.724C789.409 336.342 787.869 328.645 784.791 321.632C781.883 314.447 777.264 308.717 770.935 304.441C764.777 299.993 756.823 297.77 747.073 297.77C737.837 297.77 729.54 299.822 722.185 303.928C714.83 307.862 708.587 313.25 703.455 320.092C698.494 326.763 694.646 334.118 691.909 342.158C689.343 350.197 688.06 358.237 688.06 366.276C688.06 374.658 689.514 382.441 692.422 389.625C695.501 396.638 700.119 402.368 706.277 406.816C712.606 411.092 720.646 413.23 730.396 413.23Z" fill="white" fill-opacity="0.07"/>
    <path d="M937.553 453C923.356 453 910.955 450.776 900.349 446.329C889.744 441.711 880.849 435.467 873.665 427.599C866.652 419.73 861.349 410.665 857.757 400.401C854.165 390.138 852.369 379.276 852.369 367.816C852.369 354.987 854.593 342.072 859.04 329.072C863.658 316.072 870.415 304.27 879.31 293.664C888.376 282.888 899.58 274.25 912.922 267.75C926.435 261.25 942.001 258 959.619 258C972.619 258 983.566 259.711 992.461 263.132C1001.36 266.382 1008.63 270.743 1014.27 276.217C1019.92 281.52 1024.28 287.165 1027.36 293.151C1030.61 298.967 1032.83 304.612 1034.03 310.086C1035.4 315.388 1036.17 319.75 1036.34 323.171C1036.68 326.421 1036.85 328.046 1036.85 328.046H992.974C992.974 328.046 992.803 327.02 992.461 324.967C992.29 322.914 991.606 320.349 990.408 317.27C989.382 314.191 987.586 311.197 985.02 308.289C982.454 305.211 978.862 302.645 974.244 300.592C969.626 298.539 963.724 297.513 956.54 297.513C946.961 297.513 938.408 299.48 930.882 303.415C923.527 307.349 917.369 312.651 912.408 319.322C907.448 325.822 903.685 333.007 901.119 340.875C898.553 348.743 897.27 356.612 897.27 364.48C897.27 373.204 898.895 381.329 902.145 388.855C905.395 396.211 910.27 402.112 916.77 406.559C923.441 411.007 931.823 413.23 941.915 413.23C952.52 413.23 961.501 410.579 968.856 405.276C976.382 399.974 981.856 391.934 985.277 381.158H940.889L948.33 346.776H1036.08L1034.28 361.145C1031.55 382.355 1025.56 399.717 1016.32 413.23C1007.26 426.743 995.882 436.75 982.198 443.25C968.685 449.75 953.803 453 937.553 453Z" fill="white" fill-opacity="0.07"/>
    <path d="M1041 450.434L1081.28 260.566H1214.19L1205.98 299.053H1117.72L1109.76 335.743H1186.74L1178.78 372.434H1102.07L1093.6 411.947H1183.15L1175.19 450.434H1041Z" fill="white" fill-opacity="0.07"/>
    <path d="M1251.87 450.434L1283.94 299.053H1225.44L1233.39 260.566H1394.52L1386.57 299.053H1328.58L1296.25 450.434H1251.87Z" fill="white" fill-opacity="0.07"/>
    <path d="M1382.02 450.434L1422.3 260.566H1466.95L1451.3 334.204H1521.09L1536.48 260.566H1581.13L1540.84 450.434H1496.2L1512.88 372.178H1443.09L1426.66 450.434H1382.02Z" fill="white" fill-opacity="0.07"/>
    <path d="M1573.7 450.434L1613.99 260.566H1746.89L1738.68 299.053H1650.42L1642.47 335.743H1719.44L1711.49 372.434H1634.77L1626.3 411.947H1715.85L1707.89 450.434H1573.7Z" fill="white" fill-opacity="0.07"/>
    <path d="M1735.82 450.434L1776.1 260.566H1849.23C1864.28 260.566 1876.68 263.217 1886.43 268.52C1896.35 273.822 1903.71 280.664 1908.5 289.046C1913.29 297.428 1915.68 306.322 1915.68 315.73C1915.68 324.112 1913.8 332.408 1910.04 340.618C1906.44 348.658 1900.97 355.842 1893.61 362.171C1886.26 368.5 1877.28 373.118 1866.67 376.026L1890.28 450.434H1844.86L1823.31 379.362H1795.34L1780.46 450.434H1735.82ZM1847.69 298.796H1812.54L1803.04 343.697H1843.33C1852.56 343.697 1859.57 341.132 1864.36 336C1869.32 330.868 1871.81 325.309 1871.81 319.322C1871.81 314.02 1869.75 309.316 1865.65 305.211C1861.71 300.934 1855.73 298.796 1847.69 298.796Z" fill="white" fill-opacity="0.07"/>
    <path d="M76.7492 190C63.916 190 53.0828 188.583 44.2495 185.75C35.4163 182.75 28.1664 178.917 22.4998 174.25C16.9998 169.583 12.6665 164.667 9.4999 159.5C6.49993 154.167 4.33329 149.25 2.99997 144.75C1.66665 140.083 0.833324 136.25 0.499994 133.25C0.166665 130.25 0 128.75 0 128.75H42.7495C42.7495 128.75 43.0829 130.083 43.7495 132.75C44.4162 135.417 45.8328 138.5 47.9995 142C50.1661 145.333 53.6661 148.333 58.4994 151C63.3326 153.667 69.9992 155 78.4991 155C87.8324 155 95.2489 153 100.749 149C106.415 145 109.249 139.833 109.249 133.5C109.249 128.833 107.582 125 104.249 122C100.916 118.833 96.0823 116.25 89.749 114.25L69.4992 108C56.3327 104.167 45.4162 98.25 36.7496 90.25C28.083 82.0833 23.7497 71.1667 23.7497 57.5C23.7497 47.1667 26.4997 37.6667 31.9996 29C37.4996 20.3333 45.5828 13.3333 56.2494 8C67.0826 2.66667 80.2491 0 95.7489 0C107.415 0 117.249 1.41667 125.249 4.25C133.415 6.91668 140.082 10.4167 145.248 14.75C150.582 18.9167 154.748 23.4167 157.748 28.25C160.915 33.0833 163.248 37.6667 164.748 42C166.248 46.3333 167.165 49.8333 167.498 52.5C167.998 55.1667 168.248 56.5 168.248 56.5H126.499C126.499 56.5 126.165 55.4167 125.499 53.25C124.999 50.9167 123.749 48.3333 121.749 45.5C119.749 42.5 116.665 39.9167 112.499 37.75C108.499 35.4167 102.916 34.25 95.7489 34.25C86.4157 34.25 79.2491 36.25 74.2492 40.25C69.2492 44.25 66.7493 49.1667 66.7493 55C66.7493 59.8333 68.4159 63.8333 71.7492 67C75.2492 70 79.9991 72.4167 85.9991 74.25L104.499 80C119.165 84.5 130.832 90.9167 139.498 99.25C148.165 107.583 152.498 118.333 152.498 131.5C152.498 141.833 149.498 151.5 143.498 160.5C137.665 169.333 129.082 176.5 117.749 182C106.582 187.333 92.9156 190 76.7492 190Z" fill="white" fill-opacity="0.07"/>
    <path d="M208.781 187.5L240.031 40H183.031L190.781 2.50001H347.779L340.029 40H283.53L252.03 187.5H208.781Z" fill="white" fill-opacity="0.07"/>
    <path d="M335.596 187.5L374.845 2.50001H446.095C460.761 2.50001 472.844 5.08334 482.344 10.25C492.011 15.4167 499.177 22.0833 503.844 30.25C508.511 38.4167 510.844 47.0833 510.844 56.25C510.844 64.4167 509.011 72.5 505.344 80.5C501.844 88.3333 496.511 95.3333 489.344 101.5C482.178 107.667 473.428 112.167 463.094 115L486.094 187.5H441.845L420.845 118.25H393.595L379.095 187.5H335.596ZM444.595 39.75H410.345L401.095 83.5H440.345C449.345 83.5 456.178 81 460.845 76C465.678 71 468.094 65.5833 468.094 59.75C468.094 54.5833 466.094 50 462.095 46C458.261 41.8333 452.428 39.75 444.595 39.75Z" fill="white" fill-opacity="0.07"/>
    <path d="M604.689 190C590.355 190 577.939 187.75 567.439 183.25C557.106 178.583 548.439 172.333 541.439 164.5C534.606 156.667 529.523 147.75 526.19 137.75C522.856 127.75 521.19 117.333 521.19 106.5C521.19 93.6667 523.44 81 527.94 68.5C532.439 55.8333 539.023 44.3333 547.689 34C556.523 23.6667 567.356 15.4167 580.189 9.25C593.022 3.08333 607.772 0 624.438 0C638.605 0 650.855 2.33333 661.188 7C671.688 11.5 680.354 17.6667 687.188 25.5C694.188 33.3333 699.354 42.25 702.688 52.25C706.021 62.25 707.688 72.6667 707.688 83.5C707.688 96.3333 705.438 109.083 700.938 121.75C696.438 134.25 689.771 145.667 680.938 156C672.271 166.333 661.521 174.583 648.688 180.75C635.855 186.917 621.188 190 604.689 190ZM606.439 151.25C615.605 151.25 623.688 149.333 630.688 145.5C637.855 141.5 643.855 136.25 648.688 129.75C653.688 123.083 657.438 115.833 659.938 108C662.605 100.167 663.938 92.3333 663.938 84.5C663.938 76.3333 662.438 68.8333 659.438 62C656.605 55 652.105 49.4167 645.938 45.25C639.938 40.9167 632.188 38.75 622.688 38.75C613.689 38.75 605.605 40.75 598.439 44.75C591.272 48.5833 585.189 53.8333 580.189 60.5C575.356 67 571.606 74.1667 568.939 82C566.439 89.8333 565.189 97.6667 565.189 105.5C565.189 113.667 566.606 121.25 569.439 128.25C572.439 135.083 576.939 140.667 582.939 145C589.105 149.167 596.939 151.25 606.439 151.25Z" fill="white" fill-opacity="0.07"/>
    <path d="M713.033 187.5L752.283 2.50001H792.282L841.782 114.75L865.781 2.50001H909.031L869.781 187.5H829.532L779.532 79.5L756.533 187.5H713.033Z" fill="white" fill-opacity="0.07"/>
    <path d="M997.001 190C983.168 190 971.084 187.833 960.751 183.5C950.418 179 941.751 172.917 934.751 165.25C927.918 157.583 922.752 148.75 919.252 138.75C915.752 128.75 914.002 118.167 914.002 107C914.002 94.5 916.168 81.9167 920.502 69.25C925.002 56.5833 931.585 45.0833 940.251 34.75C949.085 24.25 960.001 15.8333 973.001 9.50001C986.168 3.16667 1001.33 0 1018.5 0C1031.17 0 1041.83 1.66667 1050.5 5.00001C1059.17 8.16667 1066.25 12.4167 1071.75 17.75C1077.25 22.9167 1081.5 28.4167 1084.5 34.25C1087.67 39.9167 1089.83 45.4167 1091 50.75C1092.33 55.9167 1093.08 60.1667 1093.25 63.5C1093.58 66.6667 1093.75 68.25 1093.75 68.25H1051C1051 68.25 1050.83 67.25 1050.5 65.25C1050.33 63.25 1049.67 60.75 1048.5 57.75C1047.5 54.75 1045.75 51.8333 1043.25 49C1040.75 46 1037.25 43.5 1032.75 41.5C1028.25 39.5 1022.5 38.5 1015.5 38.5C1006.17 38.5 997.834 40.4167 990.501 44.25C983.334 48.0833 977.334 53.25 972.501 59.75C967.668 66.0833 964.001 73.0833 961.501 80.75C959.001 88.4167 957.751 96.0833 957.751 103.75C957.751 112.25 959.334 120.167 962.501 127.5C965.668 134.667 970.418 140.417 976.751 144.75C983.251 149.083 991.417 151.25 1001.25 151.25C1011.58 151.25 1020.33 148.667 1027.5 143.5C1034.83 138.333 1040.17 130.5 1043.5 120H1000.25L1007.5 86.5H1093L1091.25 100.5C1088.58 121.167 1082.75 138.083 1073.75 151.25C1064.92 164.417 1053.83 174.167 1040.5 180.5C1027.33 186.833 1012.83 190 997.001 190Z" fill="white" fill-opacity="0.07"/>
    <path d="M1097.79 187.5L1137.04 2.50001H1266.54L1258.54 40H1172.54L1164.79 75.75H1239.79L1232.04 111.5H1157.29L1149.04 150H1236.29L1228.54 187.5H1097.79Z" fill="white" fill-opacity="0.07"/>
    <path d="M1255.75 187.5L1295 2.50001H1366.25C1380.92 2.50001 1393 5.08334 1402.5 10.25C1412.17 15.4167 1419.33 22.0833 1424 30.25C1428.67 38.4167 1431 47.0833 1431 56.25C1431 64.4167 1429.17 72.5 1425.5 80.5C1422 88.3333 1416.67 95.3333 1409.5 101.5C1402.33 107.667 1393.58 112.167 1383.25 115L1406.25 187.5H1362L1341 118.25H1313.75L1299.25 187.5H1255.75ZM1364.75 39.75H1330.5L1321.25 83.5H1360.5C1369.5 83.5 1376.33 81 1381 76C1385.83 71 1388.25 65.5833 1388.25 59.75C1388.25 54.5833 1386.25 50 1382.25 46C1378.42 41.8333 1372.58 39.75 1364.75 39.75Z" fill="white" fill-opacity="0.07"/>
</svg>
