<svg width="26" height="26" viewBox="0 0 26 26" fill="none" xmlns="http://www.w3.org/2000/svg">
    <path fill-rule="evenodd" clip-rule="evenodd" d="M13.0007 24.9168C19.582 24.9168 24.9173 19.5816 24.9173 13.0002C24.9173 6.41877 19.582 1.0835 13.0007 1.0835C6.41926 1.0835 1.08398 6.41877 1.08398 13.0002C1.08398 19.5816 6.41926 24.9168 13.0007 24.9168ZM10.4007 16.4359C10.8812 16.8073 11.4818 16.993 12.2026 16.993C12.6603 16.993 13.0436 16.9249 13.3525 16.7887C13.6614 16.6402 13.9074 16.4668 14.0904 16.2687C14.2849 16.0706 14.4222 15.8973 14.5023 15.7487H14.6053V16.863H16.1155V8.69159H17.334V7.54016H16.1155V6.50016H14.6053V7.54016H12.7346V8.69159H14.6053V10.6602H14.5023C14.4222 10.4992 14.2849 10.3197 14.0904 10.1216C13.9074 9.9235 13.6614 9.75635 13.3525 9.62016C13.0436 9.47159 12.6603 9.39731 12.2026 9.39731C11.4818 9.39731 10.8812 9.58302 10.4007 9.95445C9.92012 10.3259 9.55401 10.8025 9.3023 11.3844C9.06204 11.954 8.94191 12.5544 8.94191 13.1859C8.94191 13.8173 9.06204 14.424 9.3023 15.0059C9.55401 15.5878 9.92012 16.0644 10.4007 16.4359ZM13.6614 15.2844C13.3639 15.5197 12.9863 15.6373 12.5287 15.6373C12.0711 15.6373 11.6878 15.5197 11.3789 15.2844C11.0814 15.0368 10.8526 14.7273 10.6924 14.3559C10.5437 13.9844 10.4693 13.5944 10.4693 13.1859C10.4693 12.7773 10.5437 12.3873 10.6924 12.0159C10.8526 11.6444 11.0814 11.3411 11.3789 11.1059C11.6878 10.8706 12.0711 10.753 12.5287 10.753C12.9863 10.753 13.3639 10.8768 13.6614 11.1244C13.9703 11.3597 14.1991 11.663 14.3478 12.0344C14.508 12.4059 14.5881 12.7897 14.5881 13.1859C14.5881 13.5944 14.508 13.9844 14.3478 14.3559C14.1991 14.7273 13.9703 15.0368 13.6614 15.2844ZM8.66732 18.2744V19.5002H17.0766V18.2744H8.66732Z" fill="white"/>
</svg>
