<svg width="36" height="36" viewBox="0 0 36 36" fill="none" xmlns="http://www.w3.org/2000/svg">
    <path d="M18.366 6C19.167 6.0045 21.171 6.024 23.301 6.1095L24.057 6.1425C26.2005 6.243 28.3425 6.417 29.406 6.7125C30.8235 7.1115 31.9365 8.2725 32.313 9.7455C32.913 12.0855 32.988 16.6485 32.997 17.754L32.9985 17.982V18.243C32.988 19.3485 32.913 23.913 32.313 26.2515C31.932 27.729 30.8175 28.8915 29.406 29.2845C28.3425 29.58 26.2005 29.754 24.057 29.8545L23.301 29.889C21.171 29.973 19.167 29.994 18.366 29.997L18.0135 29.9985H17.631C15.936 29.988 8.847 29.9115 6.591 29.2845C5.175 28.8855 4.0605 27.7245 3.684 26.2515C3.084 23.9115 3.009 19.3485 3 18.243V17.754C3.009 16.6485 3.084 12.084 3.684 9.7455C4.065 8.268 5.1795 7.1055 6.5925 6.714C8.847 6.0855 15.9375 6.009 17.6325 6H18.366ZM14.9985 12.75V23.25L23.9985 18L14.9985 12.75Z" fill="#FAFBFC"/>
</svg>
