<svg width="512" height="512" viewBox="0 0 512 512" fill="none" xmlns="http://www.w3.org/2000/svg">
<rect width="512" height="512" rx="70" fill="black"/>
<path d="M290.268 341.19C289.418 341.905 287.585 342.754 286.244 343.112C284.143 343.693 279.94 343.783 258.525 343.649C234.651 343.559 233.041 343.47 229.017 342.576C226.693 342.039 222.848 341.011 220.523 340.251C218.198 339.491 214.264 337.881 211.805 336.674C209.346 335.512 205.411 333.232 203.087 331.711C200.27 329.834 196.872 326.928 192.983 323.038C189.093 319.148 186.232 315.795 184.354 312.979C182.789 310.654 180.867 307.435 180.062 305.825C179.257 304.216 177.916 300.997 177.022 298.672C176.128 296.347 174.965 292.324 174.429 289.73C173.579 285.886 173.4 283.605 173.4 276.989C173.4 270.953 173.579 267.913 174.205 264.917C174.652 262.682 175.591 258.971 176.351 256.646C177.066 254.322 178.765 250.164 180.107 247.481C181.448 244.799 183.907 240.686 185.561 238.361C187.215 236.036 190.255 232.415 192.357 230.313C194.458 228.167 197.945 225.082 200.181 223.428C202.416 221.774 206.529 219.27 209.346 217.795C212.162 216.364 216.007 214.621 217.84 213.95C226.093 210.931 235.022 210.399 243.809 210.362L289.392 210.169C291.854 210.158 293.844 208.16 293.844 205.698V173.489C293.844 171.02 295.846 169.018 298.315 169.018H334.529C336.998 169.018 339 171.02 339 173.489V186.007C339 196.693 338.821 203.846 338.508 205.366C338.24 206.618 337.435 208.987 336.675 210.597C335.468 213.279 333.858 215.023 317.093 231.61C304.351 244.262 298.092 250.164 296.259 251.281C294.783 252.131 292.324 253.204 290.715 253.606C288.122 254.322 285.35 254.411 263.219 254.411C242.609 254.411 238.138 254.545 235.724 255.126C234.114 255.484 231.432 256.557 229.733 257.451C227.766 258.524 225.754 260.089 224.189 261.788C222.848 263.263 221.238 265.499 220.612 266.706C219.986 267.958 219.226 269.969 218.913 271.177C218.556 272.428 218.287 275.021 218.287 276.989C218.287 278.956 218.6 281.683 219.003 283.024C219.405 284.365 220.21 286.377 220.881 287.495C221.506 288.613 222.937 290.491 224.055 291.698C225.172 292.905 227.184 294.559 228.436 295.408C233.962 298.838 240.829 299.119 247.333 299.119H283.783C285.542 299.119 287.269 298.657 288.792 297.778C293.092 295.402 293.657 289.61 293.726 284.698L293.844 276.318C294.023 262.637 294.157 260.268 294.828 259.105C295.23 258.39 296.124 257.228 296.84 256.557C297.51 255.886 298.807 255.126 299.656 254.858C300.595 254.59 307.525 254.411 316.869 254.411C330.952 254.411 332.696 254.5 334.305 255.216C335.289 255.663 336.541 256.646 337.122 257.362C337.703 258.077 338.374 259.374 338.597 260.223C338.858 261.135 338.992 267.576 338.794 291.438C338.783 292.831 338.373 294.196 337.614 295.364C336.988 296.303 335.691 297.51 334.708 298.002C333.098 298.851 331.846 298.896 317.093 299.119C303.278 299.298 300.998 299.432 299.656 300.103C298.807 300.55 297.421 301.533 296.572 302.338C295.722 303.143 294.56 304.842 294.023 306.049C292.995 308.24 292.95 308.553 292.95 322.591C292.905 332.472 292.727 337.389 292.369 338.418C292.056 339.267 291.117 340.519 290.268 341.19Z" fill="white"/>
</svg>
