<svg width="371" height="391" viewBox="0 0 371 391" fill="none" xmlns="http://www.w3.org/2000/svg">
<path d="M261.4 385.1C259.5 386.7 255.4 388.6 252.4 389.4C247.7 390.7 238.3 390.9 190.4 390.6C137 390.4 133.4 390.2 124.4 388.2C119.2 387 110.6 384.7 105.4 383C100.2 381.3 91.3999 377.7 85.8999 375C80.3999 372.4 71.5999 367.3 66.3999 363.9C60.0999 359.7 52.4999 353.2 43.7999 344.5C35.0999 335.8 28.6999 328.3 24.4999 322C20.9999 316.8 16.6999 309.6 14.8999 306C13.0999 302.4 10.0999 295.2 8.09991 290C6.09991 284.8 3.49991 275.8 2.2999 270C0.399902 261.4 -9.15527e-05 256.3 -9.15527e-05 241.5C-9.15527e-05 228 0.399902 221.2 1.7999 214.5C2.7999 209.5 4.8999 201.2 6.59991 196C8.19992 190.8 11.9999 181.5 14.9999 175.5C17.9999 169.5 23.4999 160.3 27.1999 155.1C30.8999 149.9 37.6999 141.8 42.3999 137.1C47.0999 132.3 54.8999 125.4 59.8999 121.7C64.8999 118 74.0999 112.4 80.3999 109.1C86.6999 105.9 95.2999 102 99.3999 100.5C117.858 93.7471 137.831 92.5579 157.485 92.4745L259.442 92.0422C264.949 92.0189 269.4 87.5486 269.4 82.0423V10C269.4 4.47714 273.877 0 279.4 0H360.4C365.923 0 370.4 4.47714 370.4 10V38C370.4 61.9 370 77.9 369.3 81.3C368.7 84.1 366.9 89.4 365.2 93C362.5 99 358.9 102.9 321.4 140C292.9 168.3 278.9 181.5 274.8 184C271.5 185.9 266 188.3 262.4 189.2C256.6 190.8 250.4 191 200.9 191C154.8 191 144.8 191.3 139.4 192.6C135.8 193.4 129.8 195.8 126 197.8C121.6 200.2 117.1 203.7 113.6 207.5C110.6 210.8 107 215.8 105.6 218.5C104.2 221.3 102.5 225.8 101.8 228.5C101 231.3 100.4 237.1 100.4 241.5C100.4 245.9 101.1 252 102 255C102.9 258 104.7 262.5 106.2 265C107.6 267.5 110.8 271.7 113.3 274.4C115.8 277.1 120.3 280.8 123.1 282.7C135.46 290.372 150.819 291 165.367 291H246.897C250.83 291 254.693 289.965 258.1 288C267.716 282.686 268.981 269.73 269.136 258.743L269.4 240C269.8 209.4 270.1 204.1 271.6 201.5C272.5 199.9 274.5 197.3 276.1 195.8C277.6 194.3 280.5 192.6 282.4 192C284.5 191.4 300 191 320.9 191C352.4 191 356.3 191.2 359.9 192.8C362.1 193.8 364.9 196 366.2 197.6C367.5 199.2 369 202.1 369.5 204C370.083 206.04 370.383 220.447 369.941 273.819C369.915 276.935 368.998 279.988 367.3 282.6C365.9 284.7 363 287.4 360.8 288.5C357.2 290.4 354.4 290.5 321.4 291C290.5 291.4 285.4 291.7 282.4 293.2C280.5 294.2 277.4 296.4 275.5 298.2C273.6 300 271 303.8 269.8 306.5C267.5 311.4 267.4 312.1 267.4 343.5C267.3 365.6 266.9 376.6 266.1 378.9C265.4 380.8 263.3 383.6 261.4 385.1Z" fill="white"/>
</svg>
