<svg width="24" height="25" viewBox="0 0 24 25" fill="none" xmlns="http://www.w3.org/2000/svg">
    <path fill-rule="evenodd" clip-rule="evenodd" d="M13.9001 19.375C14.0501 19.5312 14.2401 19.6042 14.4301 19.6042C14.6201 19.6042 14.8101 19.5312 14.9601 19.375L21.0301 13.0521C21.3201 12.75 21.3201 12.25 21.0301 11.9479L14.9601 5.625C14.6701 5.32292 14.1901 5.32292 13.9001 5.625C13.6101 5.92708 13.6101 6.42708 13.9001 6.72917L18.6901 11.7188H3.5C3.09 11.7188 2.75 12.0729 2.75 12.5C2.75 12.9271 3.09 13.2812 3.5 13.2812H18.6901L13.9001 18.2708C13.6101 18.5729 13.6101 19.0729 13.9001 19.375Z" fill="white" fill-opacity="0.8"/>
</svg>
