<svg width="24" height="25" viewBox="0 0 24 25" fill="none" xmlns="http://www.w3.org/2000/svg">
    <path fill-rule="evenodd" clip-rule="evenodd" d="M10.0999 19.375C9.94988 19.5312 9.75988 19.6042 9.56988 19.6042C9.37988 19.6042 9.18988 19.5312 9.03988 19.375L2.96988 13.0521C2.67988 12.75 2.67988 12.25 2.96988 11.9479L9.03988 5.625C9.32988 5.32292 9.80988 5.32292 10.0999 5.625C10.3899 5.92708 10.3899 6.42708 10.0999 6.72917L5.30988 11.7188H20.5C20.91 11.7188 21.25 12.0729 21.25 12.5C21.25 12.9271 20.91 13.2812 20.5 13.2812H5.30988L10.0999 18.2708C10.3899 18.5729 10.3899 19.0729 10.0999 19.375Z" fill="white" fill-opacity="0.8"/>
</svg>
