<svg width="36" height="36" viewBox="0 0 36 36" fill="none" xmlns="http://www.w3.org/2000/svg">
    <path d="M22.6264 17.2865L21.9189 17.9937L22.6264 18.7009L34.1987 30.2692C35.2671 31.3373 35.2671 33.1182 34.1987 34.1862C33.6414 34.7433 32.9442 35 32.239 35C31.5338 35 30.8366 34.7433 30.2793 34.1862L18.707 22.618L18 21.9112L17.293 22.618L5.72069 34.1862C5.16341 34.7433 4.46618 35 3.76101 35C3.05583 35 2.3586 34.7433 1.80132 34.1862C0.732892 33.1182 0.732892 31.3373 1.80132 30.2692L13.3736 18.7009L14.0811 17.9937L13.3736 17.2865L1.80132 5.7182C0.732892 4.65014 0.732892 2.86925 1.80132 1.80119C2.86995 0.732938 4.65206 0.732938 5.72069 1.80119L17.293 13.3695L18 14.0762L18.707 13.3695L30.2793 1.80119C31.3479 0.732937 33.1301 0.732938 34.1987 1.80119C35.2671 2.86924 35.2671 4.65014 34.1987 5.7182L22.6264 17.2865Z" fill="#131313" stroke="white" stroke-width="2"/>
</svg>
