<svg width="50px" height="50px" viewBox="0 0 50 50" version="1.1" xmlns="http://www.w3.org/2000/svg" xmlns:xlink="http://www.w3.org/1999/xlink">
    <g id="Design" stroke="none" stroke-width="1" fill="none" fill-rule="evenodd">
        <g id="Frame-55" transform="translate(-100.000000, -15.000000)" fill-rule="nonzero">
            <g id="Frame-34055" transform="translate(100.000000, 15.000000)">
                <rect id="Rectangle-17" fill="#3A93FD" x="10" y="9" width="30" height="31"></rect>
                <path d="M25,0 C38.8071195,0 50,11.1928805 50,25 C50,38.8071195 38.8071195,50 25,50 C11.1928805,50 0,38.8071195 0,25 C0,11.1928805 11.1928805,0 25,0 Z M25.5784386,22.6715 C25.4175197,21.9909164 24.6158774,21.4919203 23.8408094,21.6749839 C20.6017635,22.4397177 17.8528571,24.8077353 16.8755333,28.367143 C16.431161,29.9866661 16.6850871,31.6401446 16.6024132,33.1238463 L16.6021057,33.7678697 C16.6019211,33.9782249 16.6016751,34.1849918 16.601429,34.3888881 L16.6008754,36.1658247 L16.6024132,36.7437837 C16.6053659,37.7211075 17.1117445,38.3145882 17.9458652,38.3308277 C18.8508494,38.3485435 19.4133272,37.7240591 19.4162799,36.6965403 C19.4207088,34.8304718 19.4148033,32.9629265 19.4310428,31.0953818 C19.4369481,30.4325141 19.4590931,29.7637424 19.6480621,29.1244959 C20.3685062,26.6870915 21.9791705,25.1576234 24.4224798,24.4873741 C25.3540377,24.2319707 25.7851234,23.5454815 25.5784386,22.6715 Z M27.7917726,13.7871537 C26.040857,13.4254552 24.2633675,13.7192431 22.8416722,13.6173766 L21.7103653,13.6165586 C21.3476198,13.616105 20.997989,13.6155623 20.6577468,13.615206 L19.6614592,13.6149713 C19.173672,13.6154088 18.6986249,13.6168852 18.2237419,13.6203299 C17.144552,13.6277115 16.5835501,14.1488521 16.6042186,15.089268 C16.6248871,15.983918 17.1726021,16.4341966 18.2503157,16.4371492 C18.6885367,16.4383795 19.1268397,16.4372722 19.5651769,16.4350782 L22.1952271,16.4188795 C23.5100744,16.4142659 24.8243682,16.4223855 26.1368168,16.4770093 C28.8045271,16.5877334 30.7429361,17.9754751 31.7660259,20.4350245 C32.7920683,22.9004794 32.3285029,25.1872972 30.5702057,27.2083795 C29.5559739,28.3746724 28.2258099,28.9312466 26.759824,29.2767055 C25.9271795,29.4730561 25.4577092,30.2584569 25.6422492,30.9936643 C25.8326945,31.7539692 26.5900468,32.2175349 27.416786,32.0536634 C29.6327425,31.6151963 31.4870006,30.5743894 32.9647971,28.8367604 C37.4675732,23.5426762 34.6094186,15.1955632 27.7917726,13.7871537 Z" id="Subtract" fill="#031833"></path>
            </g>
        </g>
    </g>
</svg>