<svg width="329" height="232" viewBox="0 0 329 232" fill="none" xmlns="http://www.w3.org/2000/svg">
    <path d="M81.0547 84.9609C100.586 84.9609 116.862 92.4479 129.883 107.422C142.904 122.396 149.414 139.323 149.414 158.203C149.414 180.339 141.602 198.242 125.977 211.914C110.352 224.935 93.75 231.445 76.1719 231.445C59.2448 231.445 42.3177 223.958 25.3906 208.984C8.46354 193.359 0 173.177 0 148.438C0 110.026 12.3698 76.8229 37.1094 48.8281C61.849 20.1823 87.2396 3.90625 113.281 0L121.094 15.625C106.12 21.4844 88.8672 32.8776 69.3359 49.8047C50.4557 66.7318 40.3646 83.3333 39.0625 99.6094C55.3385 89.8438 69.3359 84.9609 81.0547 84.9609Z" fill="#131313" fill-opacity="0.1"/>
    <path d="M309.055 107.422C296.034 92.4479 279.758 84.9609 260.227 84.9609C248.508 84.9609 234.51 89.8438 218.234 99.6094C219.536 83.3333 229.628 66.7318 248.508 49.8047C268.039 32.8776 285.292 21.4844 300.266 15.625L292.453 0C266.411 3.90625 241.021 20.1823 216.281 48.8281C191.542 76.8229 179.172 110.026 179.172 148.438C179.172 173.177 187.31 193.359 203.586 208.984C220.513 223.958 237.766 231.445 255.344 231.445C272.922 231.445 289.523 224.935 305.148 211.914C320.773 198.242 328.586 180.339 328.586 158.203C328.586 139.323 322.076 122.396 309.055 107.422Z" fill="#131313" fill-opacity="0.1"/>
</svg>
