<svg width="24" height="24" viewBox="0 0 24 24" fill="none" xmlns="http://www.w3.org/2000/svg">
    <path fill-rule="evenodd" clip-rule="evenodd" d="M12 23C18.0751 23 23 18.0751 23 12C23 5.92487 18.0751 1 12 1C5.92487 1 1 5.92487 1 12C1 18.0751 5.92487 23 12 23ZM9.6 15.1714C10.0436 15.5143 10.598 15.6857 11.2634 15.6857C11.6858 15.6857 12.0396 15.6229 12.3248 15.4971C12.6099 15.36 12.837 15.2 13.0059 15.0171C13.1855 14.8343 13.3122 14.6743 13.3861 14.5371H13.4812V15.5657H14.8752V8.02286H16V6.96H14.8752V6H13.4812V6.96H11.7545V8.02286H13.4812V9.84H13.3861C13.3122 9.69143 13.1855 9.52571 13.0059 9.34286C12.837 9.16 12.6099 9.00571 12.3248 8.88C12.0396 8.74286 11.6858 8.67429 11.2634 8.67429C10.598 8.67429 10.0436 8.84571 9.6 9.18857C9.15644 9.53143 8.81848 9.97143 8.58614 10.5086C8.36436 11.0343 8.25347 11.5886 8.25347 12.1714C8.25347 12.7543 8.36436 13.3143 8.58614 13.8514C8.81848 14.3886 9.15644 14.8286 9.6 15.1714ZM12.6099 14.1086C12.3353 14.3257 11.9868 14.4343 11.5644 14.4343C11.1419 14.4343 10.7881 14.3257 10.503 14.1086C10.2284 13.88 10.0172 13.5943 9.86931 13.2514C9.73201 12.9086 9.66337 12.5486 9.66337 12.1714C9.66337 11.7943 9.73201 11.4343 9.86931 11.0914C10.0172 10.7486 10.2284 10.4686 10.503 10.2514C10.7881 10.0343 11.1419 9.92571 11.5644 9.92571C11.9868 9.92571 12.3353 10.04 12.6099 10.2686C12.895 10.4857 13.1063 10.7657 13.2436 11.1086C13.3914 11.4514 13.4653 11.8057 13.4653 12.1714C13.4653 12.5486 13.3914 12.9086 13.2436 13.2514C13.1063 13.5943 12.895 13.88 12.6099 14.1086ZM8 16.8686V18H15.7624V16.8686H8Z" fill="#131313" fill-opacity="0.5"/>
</svg>
