<svg width="16" height="16" viewBox="0 0 18 18" fill="#747474" xmlns="http://www.w3.org/2000/svg">
<path d="M5 8C5 7.44772 5.44772 7 6 7H12C12.5523 7 13 7.44772 13 8C13 8.55228 12.5523 9 12 9H6C5.44772 9 5 8.55228 5 8Z" fill="#747474"/>
<path d="M5 11C5 10.4477 5.44772 10 6 10H9C9.55228 10 10 10.4477 10 11C10 11.5523 9.55228 12 9 12H6C5.44772 12 5 11.5523 5 11Z" fill="#747474"/>
<path d="M2.7387 12.5577C2.12117 11.4738 1.79758 10.2474 1.8 9C1.8 7.57597 2.22227 6.18392 3.01342 4.99989C3.80456 3.81586 4.92905 2.89302 6.24468 2.34807C7.5603 1.80312 9.00798 1.66053 10.4046 1.93834C11.8013 2.21616 13.0842 2.90189 14.0912 3.90883C15.0981 4.91577 15.7838 6.19868 16.0616 7.59535C16.3395 8.99201 16.1969 10.4397 15.6519 11.7553C15.107 13.0709 14.1841 14.1954 13.0001 14.9866C11.8161 15.7777 10.424 16.2 8.99999 16.2C7.75257 16.2024 6.52617 15.8788 5.4423 15.2613C5.10718 15.0686 4.73522 14.9486 4.35065 14.9092C3.96608 14.8698 3.57752 14.9119 3.2103 15.0327L2.8458 15.1542L2.9673 14.7897C3.2283 14.0058 3.1023 13.1967 2.7387 12.5577ZM1.1745 13.4487C1.3086 13.6836 1.3455 13.9644 1.26 14.2209L0.5688 16.2927C0.516142 16.4512 0.508641 16.6213 0.547137 16.7838C0.585632 16.9464 0.668604 17.095 0.786767 17.2131C0.90493 17.3311 1.05362 17.414 1.2162 17.4523C1.37877 17.4907 1.54882 17.4831 1.7073 17.4303L3.78 16.74C3.90751 16.6993 4.04216 16.6858 4.1752 16.7006C4.30823 16.7153 4.43669 16.7579 4.5522 16.8255C5.90729 17.5975 7.44044 18.0023 8.99999 18C13.9707 18 18 13.9707 18 9C18 4.0293 13.9707 0 8.99999 0C4.0293 0 0 4.0293 0 9C0 10.6182 0.4266 12.1365 1.1745 13.4487Z" fill="#747474"/>
</svg>
